Open Sans-Bold.ufo
<glyph name="numbersign" format="1">
  <advance width="1323"/>
  <unicode hex="0023"/>
  <note>
numbersign
</note>
  <outline>
    <contour>
      <point x="212" y="0" type="line"/>
      <point x="288" y="409" type="line"/>
      <point x="45" y="409" type="line"/>
      <point x="45" y="610" type="line"/>
      <point x="327" y="610" type="line"/>
      <point x="371" y="848" type="line"/>
      <point x="116" y="848" type="line"/>
      <point x="116" y="1053" type="line"/>
      <point x="410" y="1053" type="line"/>
      <point x="486" y="1462" type="line"/>
      <point x="701" y="1462" type="line"/>
      <point x="623" y="1053" type="line"/>
      <point x="848" y="1053" type="line"/>
      <point x="925" y="1462" type="line"/>
      <point x="1138" y="1462" type="line"/>
      <point x="1061" y="1053" type="line"/>
      <point x="1307" y="1053" type="line"/>
      <point x="1307" y="848" type="line"/>
      <point x="1022" y="848" type="line"/>
      <point x="979" y="610" type="line"/>
      <point x="1240" y="610" type="line"/>
      <point x="1240" y="409" type="line"/>
      <point x="941" y="409" type="line"/>
      <point x="863" y="0" type="line"/>
      <point x="649" y="0" type="line"/>
      <point x="726" y="409" type="line"/>
      <point x="500" y="409" type="line"/>
      <point x="425" y="0" type="line"/>
    </contour>
    <contour>
      <point x="540" y="610" type="line"/>
      <point x="764" y="610" type="line"/>
      <point x="809" y="848" type="line"/>
      <point x="584" y="848" type="line"/>
    </contour>
  </outline>
</glyph>
<glyph name="dollar" format="1">
  <advance width="1169"/>
  <unicode hex="0024"/>
  <note>
dollar
</note>
  <outline>
    <contour>
      <point x="495" y="-119" type="line"/>
      <point x="495.0" y="82.0" type="line"/>
      <point x="425.5" y="84.5"/>
      <point x="283.5833333333333" y="107.0"/>
      <point x="148.0" y="145.5"/>
      <point x="88" y="172" type="qcurve"/>
      <point x="88.0" y="435.0" type="line"/>
      <point x="178.75" y="389.25"/>
      <point x="399.75" y="323.5"/>
      <point x="495" y="316" type="qcurve"/>
      <point x="495" y="634" type="line"/>
      <point x="443.0" y="653.0" type="line" smooth="yes"/>
      <point x="312.5" y="699.5"/>
      <point x="162.5" y="807.0"/>
      <point x="128.0" y="876.0" type="qcurve" smooth="yes"/>
      <point x="93.0" y="944.4782608695652"/>
      <point x="93.0" y="1046.0" type="qcurve" smooth="yes"/>
      <point x="93.0" y="1198.25"/>
      <point x="298.5" y="1379.0"/>
      <point x="495" y="1400" type="qcurve"/>
      <point x="495" y="1554" type="line"/>
      <point x="664" y="1554" type="line"/>
      <point x="664.0" y="1402.0" type="line"/>
      <point x="763.0" y="1397.5"/>
      <point x="956.25" y="1352.5"/>
      <point x="1050" y="1312" type="qcurve"/>
      <point x="957.0" y="1086.0" type="line"/>
      <point x="805.7142857142857" y="1153.2380952380952"/>
      <point x="664" y="1168" type="qcurve"/>
      <point x="664" y="865" type="line"/>
      <point x="684.0" y="858.0" type="line" smooth="yes"/>
      <point x="823.5" y="810.5"/>
      <point x="992.25" y="701.1666666666667"/>
      <point x="1068.0" y="560.5"/>
      <point x="1068.0" y="466.0" type="qcurve" smooth="yes"/>
      <point x="1068.0" y="308.5"/>
      <point x="859.0" y="111.0"/>
      <point x="664" y="87" type="qcurve"/>
      <point x="664" y="-119" type="line"/>
    </contour>
    <contour>
      <point x="664" y="335" type="line"/>
      <point x="710.5" y="346.25"/>
      <point x="761.0" y="404.5"/>
      <point x="761.0" y="448.0" type="qcurve" smooth="yes"/>
      <point x="761.0" y="484.0"/>
      <point x="715.0" y="535.75"/>
      <point x="664" y="556" type="qcurve"/>
    </contour>
    <contour>
      <point x="495" y="938" type="qcurve"/>
      <point x="495.0" y="1158.0" type="line"/>
      <point x="447.0" y="1146.75"/>
      <point x="400.0" y="1090.25"/>
      <point x="400.0" y="1052.0" type="qcurve" smooth="yes"/>
      <point x="400.0" y="1012.25"/>
      <point x="444.75" y="959.0"/>
    </contour>
  </outline>
</glyph>
<glyph name="percent" format="1">
  <advance width="1845"/>
  <unicode hex="0025"/>
  <note>
percent
</note>
  <outline>
    <contour>
      <point x="403" y="0" type="line"/>
      <point x="1214" y="1462" type="line"/>
      <point x="1451" y="1462" type="line"/>
      <point x="640" y="0" type="line"/>
    </contour>
    <contour>
      <point x="409.0" y="565.0" type="qcurve" smooth="yes"/>
      <point x="329.125" y="565.0"/>
      <point x="201.30729166666666" y="628.2916666666666"/>
      <point x="110.94270833333333" y="748.2083333333334"/>
      <point x="63.0" y="918.75"/>
      <point x="63.0" y="1026.0" type="qcurve" smooth="yes"/>
      <point x="63.0" y="1173.0"/>
      <point x="143.91666666666663" y="1377.0"/>
      <point x="298.5" y="1483.0"/>
      <point x="409.0" y="1483.0" type="qcurve" smooth="yes"/>
      <point x="518.5" y="1483.0"/>
      <point x="677.25" y="1372.4166666666665"/>
      <point x="763.0" y="1167.5"/>
      <point x="763.0" y="1026.0" type="qcurve" smooth="yes"/>
      <point x="763.0" y="878.5"/>
      <point x="680.5833333333333" y="672.5833333333333"/>
      <point x="522.5" y="565.0"/>
    </contour>
    <contour>
      <point x="412.0" y="759.0" type="qcurve" smooth="yes"/>
      <point x="436.0" y="759.0"/>
      <point x="472.5" y="784.25"/>
      <point x="486.0" y="809.0" type="qcurve" smooth="yes"/>
      <point x="522.0" y="869.0"/>
      <point x="522.0" y="1023.0" type="qcurve" smooth="yes"/>
      <point x="522.0" y="1101.0"/>
      <point x="502.5" y="1208.0"/>
      <point x="483.0" y="1238.0" type="qcurve"/>
      <point x="456.0" y="1286.0"/>
      <point x="412.0" y="1286.0" type="qcurve" smooth="yes"/>
      <point x="366.24242424242425" y="1286.0"/>
      <point x="341.0" y="1237.0" type="qcurve"/>
      <point x="321.5" y="1207.0"/>
      <point x="303.0" y="1099.5"/>
      <point x="303.0" y="1023.0" type="qcurve" smooth="yes"/>
      <point x="303.0" y="874.6363636363636"/>
      <point x="335.0" y="815.0" type="qcurve" smooth="yes"/>
      <point x="348.5" y="787.25"/>
      <point x="387.25" y="759.0"/>
    </contour>
    <contour>
      <point x="1444.0" y="-18.0" type="qcurve" smooth="yes"/>
      <point x="1363.375" y="-18.0"/>
      <point x="1235.0364583333333" y="45.520833333333336"/>
      <point x="1144.7135416666667" y="165.47916666666666"/>
      <point x="1097.0" y="335.5"/>
      <point x="1097.0" y="442.0" type="qcurve" smooth="yes"/>
      <point x="1097.0" y="589.5"/>
      <point x="1178.4166666666665" y="793.4166666666665"/>
      <point x="1333.5" y="899.0"/>
      <point x="1444.0" y="899.0" type="qcurve" smooth="yes"/>
      <point x="1553.0" y="899.0"/>
      <point x="1711.3333333333333" y="788.8333333333333"/>
      <point x="1797.0" y="584.0"/>
      <point x="1797.0" y="442.0" type="qcurve" smooth="yes"/>
      <point x="1797.0" y="295.0"/>
      <point x="1714.6666666666665" y="89.50000000000001"/>
      <point x="1557.0" y="-18.0"/>
    </contour>
    <contour>
      <point x="1446.0" y="176.0" type="qcurve" smooth="yes"/>
      <point x="1498.3513513513512" y="176.0"/>
      <point x="1523.0" y="233.0" type="qcurve"/>
      <point x="1557.0" y="299.5217391304348"/>
      <point x="1557.0" y="439.0" type="qcurve" smooth="yes"/>
      <point x="1557.0" y="512.5"/>
      <point x="1538.5" y="617.75"/>
      <point x="1519.0" y="650.0" type="qcurve"/>
      <point x="1507.0" y="676.25"/>
      <point x="1470.0" y="702.0"/>
      <point x="1446.0" y="702.0" type="qcurve" smooth="yes"/>
      <point x="1400.5" y="702.0"/>
      <point x="1375.0" y="654.0" type="qcurve"/>
      <point x="1337.0" y="594.0769230769231"/>
      <point x="1337.0" y="439.0" type="qcurve" smooth="yes"/>
      <point x="1337.0" y="362.5"/>
      <point x="1355.25" y="255.75"/>
      <point x="1374.0" y="225.0" type="qcurve"/>
      <point x="1400.03125" y="176.0"/>
    </contour>
  </outline>
</glyph>
<glyph name="ampersand" format="1">
  <advance width="1536"/>
  <unicode hex="0026"/>
  <note>
ampersand
</note>
  <outline>
    <contour>
      <point x="588.0" y="-20.0" type="qcurve" smooth="yes"/>
      <point x="441.5" y="-20.0"/>
      <point x="212.91666666666663" y="77.91666666666666"/>
      <point x="82.0" y="263.5"/>
      <point x="82.0" y="395.0" type="qcurve" smooth="yes"/>
      <point x="82.0" y="484.0"/>
      <point x="143.25" y="630.6666666666666"/>
      <point x="273.5" y="754.0"/>
      <point x="377" y="808" type="qcurve"/>
      <point x="353.0" y="834.0" type="line" smooth="yes"/>
      <point x="311.0" y="881.0"/>
      <point x="253.5" y="978.25"/>
      <point x="224.0" y="1084.5"/>
      <point x="224.0" y="1145.0" type="qcurve" smooth="yes"/>
      <point x="224.0" y="1248.5"/>
      <point x="328.16666666666663" y="1399.75"/>
      <point x="521.0" y="1482.0"/>
      <point x="654.0" y="1482.0" type="qcurve" smooth="yes"/>
      <point x="847.5" y="1482.0"/>
      <point x="1067.0" y="1303.0"/>
      <point x="1067.0" y="1147.0" type="qcurve" smooth="yes"/>
      <point x="1067.0" y="1074.5"/>
      <point x="1009.7499999999999" y="944.5833333333333"/>
      <point x="885.5" y="823.0"/>
      <point x="785" y="763" type="qcurve"/>
      <point x="1060.0" y="493.0" type="line"/>
      <point x="1104.25" y="555.25"/>
      <point x="1166.5" y="696.75"/>
      <point x="1186" y="783" type="qcurve"/>
      <point x="1499.0" y="783.0" type="line"/>
      <point x="1479.0" y="694.0"/>
      <point x="1410.6666666666665" y="518.5833333333333"/>
      <point x="1321.0" y="359.5"/>
      <point x="1269" y="295" type="qcurve"/>
      <point x="1572" y="0" type="line"/>
      <point x="1178" y="0" type="line"/>
      <point x="1051.0" y="131.0" type="line"/>
      <point x="974.0" y="74.0"/>
      <point x="838.25" y="7.999999999999997"/>
      <point x="687.5" y="-20.0"/>
    </contour>
    <contour>
      <point x="616.0" y="225.0" type="qcurve" smooth="yes"/>
      <point x="694.0" y="225.0"/>
      <point x="817.75" y="271.75"/>
      <point x="865" y="316" type="qcurve"/>
      <point x="547.0" y="638.0" type="line"/>
      <point x="496.99999999999994" y="607.5"/>
      <point x="429.8333333333333" y="543.6666666666667"/>
      <point x="396.0" y="466.5"/>
      <point x="396.0" y="416.0" type="qcurve" smooth="yes"/>
      <point x="396.0" y="329.0"/>
      <point x="514.0" y="225.0"/>
    </contour>
    <contour>
      <point x="622.0" y="932.0" type="qcurve"/>
      <point x="709.0" y="980.0"/>
      <point x="788.0" y="1086.5"/>
      <point x="788.0" y="1148.0" type="qcurve" smooth="yes"/>
      <point x="788.0" y="1210.25"/>
      <point x="711.25" y="1276.0"/>
      <point x="649.0" y="1276.0" type="qcurve" smooth="yes"/>
      <point x="586.0" y="1276.0"/>
      <point x="502.0" y="1206.0"/>
      <point x="502.0" y="1137.0" type="qcurve" smooth="yes"/>
      <point x="502.0" y="1103.5"/>
      <point x="526.1666666666665" y="1039.9166666666665"/>
      <point x="579.0" y="972.0"/>
    </contour>
  </outline>
</glyph>
<glyph name="parenleft" format="1">
  <advance width="694"/>
  <unicode hex="0028"/>
  <note>
parenleft
</note>
  <outline>
    <contour>
      <point x="369" y="-324" type="line"/>
      <point x="228.75" y="-162.0"/>
      <point x="82.0" y="295.5"/>
      <point x="82.0" y="576.0" type="qcurve" smooth="yes"/>
      <point x="82.0" y="858.0"/>
      <point x="228.0" y="1323.0"/>
      <point x="369" y="1491" type="qcurve"/>
      <point x="631.0" y="1491.0" type="line"/>
      <point x="498.25" y="1314.0"/>
      <point x="356.0" y="843.5"/>
      <point x="356.0" y="578.0" type="qcurve" smooth="yes"/>
      <point x="356.0" y="407.5"/>
      <point x="417.0833333333333" y="87.83333333333333"/>
      <point x="538.5" y="-200.5"/>
      <point x="629" y="-324" type="qcurve"/>
    </contour>
  </outline>
</glyph>
<glyph name="comma" format="1">
  <advance width="594"/>
  <unicode hex="002C"/>
  <outline>
    <contour>
      <point x="63" y="-279" type="line"/>
      <point x="84.5" y="-187.0"/>
      <point x="124.91666666666667" y="18.5"/>
      <point x="157.0" y="210.0"/>
      <point x="166" y="281" type="qcurve"/>
      <point x="440" y="281" type="line"/>
      <point x="453.0" y="258.0" type="line"/>
      <point x="408.0" y="84.75"/>
      <point x="320.75" y="-183.0"/>
      <point x="278" y="-279" type="qcurve"/>
    </contour>
  </outline>
</glyph>
<glyph name="period" format="1">
  <advance width="584"/>
  <unicode hex="002E"/>
  <outline>
    <contour>
      <point x="290.0" y="-23.0" type="qcurve" smooth="yes"/>
      <point x="209.0" y="-23.0"/>
      <point x="117.0" y="61.25"/>
      <point x="117.0" y="140.0" type="qcurve" smooth="yes"/>
      <point x="117.0" y="218.75"/>
      <point x="205.25" y="303.0"/>
      <point x="290.0" y="303.0" type="qcurve" smooth="yes"/>
      <point x="371.75" y="303.0"/>
      <point x="458.0" y="218.75"/>
      <point x="458.0" y="140.0" type="qcurve" smooth="yes"/>
      <point x="458.0" y="62.0"/>
      <point x="369.5" y="-23.0"/>
    </contour>
  </outline>
</glyph>
<glyph name="zero" format="1">
  <advance width="1169"/>
  <unicode hex="0030"/>
  <outline>
    <contour>
      <point x="584.0" y="-20.0" type="qcurve" smooth="yes"/>
      <point x="461.0" y="-20.0"/>
      <point x="273.75" y="69.75"/>
      <point x="210.0" y="159.0" type="qcurve" smooth="yes"/>
      <point x="142.5" y="252.75"/>
      <point x="74.0" y="539.0"/>
      <point x="74.0" y="731.0" type="qcurve" smooth="yes"/>
      <point x="74.0" y="962.0"/>
      <point x="163.25" y="1277.25"/>
      <point x="254.0" y="1365.0" type="qcurve" smooth="yes"/>
      <point x="314.75" y="1425.0"/>
      <point x="479.75" y="1484.0"/>
      <point x="584.0" y="1484.0" type="qcurve" smooth="yes"/>
      <point x="694.25" y="1484.0"/>
      <point x="868.0" y="1410.0"/>
      <point x="931.0" y="1338.0" type="qcurve" smooth="yes"/>
      <point x="1012.75" y="1244.25"/>
      <point x="1095.0" y="941.0"/>
      <point x="1095.0" y="731.0" type="qcurve" smooth="yes"/>
      <point x="1095.0" y="509.0"/>
      <point x="1012.0" y="201.25"/>
      <point x="928.0" y="112.0" type="qcurve" smooth="yes"/>
      <point x="866.5" y="45.25"/>
      <point x="694.25" y="-20.0"/>
    </contour>
    <contour>
      <point x="584.0" y="227.0" type="qcurve" smooth="yes"/>
      <point x="633.5" y="227.0"/>
      <point x="707.0" y="279.25"/>
      <point x="731.0" y="331.0" type="qcurve" smooth="yes"/>
      <point x="750.0" y="369.5"/>
      <point x="774.8333333333333" y="484.3333333333333"/>
      <point x="787.0" y="636.5"/>
      <point x="787.0" y="731.0" type="qcurve" smooth="yes"/>
      <point x="787.0" y="878.0"/>
      <point x="755.0" y="1083.25"/>
      <point x="722.0" y="1141.0" type="qcurve"/>
      <point x="675.7460317460318" y="1235.0"/>
      <point x="584.0" y="1235.0" type="qcurve" smooth="yes"/>
      <point x="535.25" y="1235.0"/>
      <point x="463.25" y="1186.25"/>
      <point x="440.0" y="1136.0" type="qcurve"/>
      <point x="410.0" y="1079.0"/>
      <point x="381.0" y="876.5"/>
      <point x="381.0" y="731.0" type="qcurve" smooth="yes"/>
      <point x="381.0" y="447.0"/>
      <point x="435.0" y="333.0" type="qcurve" smooth="yes"/>
      <point x="484.2676056338028" y="227.0"/>
    </contour>
  </outline>
</glyph>
<glyph name="one" format="1">
  <advance width="1169"/>
  <unicode hex="0031"/>
  <outline>
    <contour>
      <point x="556" y="0" type="line"/>
      <point x="556.0" y="861.0" type="line" smooth="yes"/>
      <point x="556.0" y="932.25"/>
      <point x="560.25" y="1067.5"/>
      <point x="564.0" y="1132.0" type="qcurve"/>
      <point x="548.25" y="1114.0"/>
      <point x="511.75" y="1077.5"/>
      <point x="490.0" y="1058.0" type="qcurve" smooth="yes"/>
      <point x="458.5" y="1031.75"/>
      <point x="353.75" y="947.5"/>
      <point x="281" y="889" type="qcurve"/>
      <point x="121" y="1087" type="line"/>
      <point x="591" y="1462" type="line"/>
      <point x="866" y="1462" type="line"/>
      <point x="866" y="0" type="line"/>
    </contour>
  </outline>
</glyph>
<glyph name="two" format="1">
  <advance width="1169"/>
  <unicode hex="0032"/>
  <outline>
    <contour>
      <point x="79" y="0" type="line"/>
      <point x="79" y="208" type="line"/>
      <point x="445.0" y="583.0" type="line" smooth="yes"/>
      <point x="603.7052023121387" y="749.335260115607"/>
      <point x="654.0" y="814.0" type="qcurve" smooth="yes"/>
      <point x="707.25" y="882.25"/>
      <point x="751.0" y="989.75"/>
      <point x="751.0" y="1049.0" type="qcurve" smooth="yes"/>
      <point x="751.0" y="1128.5"/>
      <point x="647.75" y="1224.0"/>
      <point x="560.0" y="1224.0" type="qcurve" smooth="yes"/>
      <point x="484.25" y="1224.0"/>
      <point x="333.0" y="1148.5"/>
      <point x="246" y="1075" type="qcurve"/>
      <point x="78.0" y="1273.0" type="line"/>
      <point x="202.5" y="1383.25"/>
      <point x="434.5" y="1483.0"/>
      <point x="592.0" y="1483.0" type="qcurve" smooth="yes"/>
      <point x="726.0" y="1483.0"/>
      <point x="936.1666666666667" y="1388.8333333333333"/>
      <point x="1057.0" y="1212.0"/>
      <point x="1057.0" y="1088.0" type="qcurve" smooth="yes"/>
      <point x="1057.0" y="926.1612903225806"/>
      <point x="967.0" y="781.0" type="qcurve" smooth="yes"/>
      <point x="938.5" y="737.5"/>
      <point x="860.75" y="641.25"/>
      <point x="809.0" y="588.0" type="qcurve" smooth="yes"/>
      <point x="700.6819277108434" y="475.1686746987952"/>
      <point x="474" y="265" type="qcurve"/>
      <point x="474" y="257" type="line"/>
      <point x="1096" y="257" type="line"/>
      <point x="1096" y="0" type="line"/>
    </contour>
  </outline>
</glyph>
<glyph name="three" format="1">
  <advance width="1169"/>
  <unicode hex="0033"/>
  <outline>
    <contour>
      <point x="500.0" y="-20.0" type="qcurve" smooth="yes"/>
      <point x="384.5" y="-20.0"/>
      <point x="185.25" y="16.5"/>
      <point x="78" y="60" type="qcurve"/>
      <point x="78.0" y="319.0" type="line"/>
      <point x="170.25" y="271.75"/>
      <point x="372.75" y="224.0"/>
      <point x="459.0" y="224.0" type="qcurve" smooth="yes"/>
      <point x="616.5" y="224.0"/>
      <point x="766.0" y="328.5"/>
      <point x="766.0" y="432.0" type="qcurve" smooth="yes"/>
      <point x="766.0" y="572.2962962962963"/>
      <point x="609.0" y="613.0" type="qcurve" smooth="yes"/>
      <point x="536.1428571428571" y="633.0"/>
      <point x="414" y="633" type="qcurve" smooth="yes"/>
      <point x="304" y="633" type="line"/>
      <point x="304" y="870" type="line"/>
      <point x="416.0" y="870.0" type="line" smooth="yes"/>
      <point x="576.5" y="870.0"/>
      <point x="746.0" y="975.75"/>
      <point x="746.0" y="1074.0" type="qcurve" smooth="yes"/>
      <point x="746.0" y="1151.25"/>
      <point x="631.5" y="1235.0"/>
      <point x="537.0" y="1235.0" type="qcurve" smooth="yes"/>
      <point x="378.8378378378378" y="1235.0"/>
      <point x="214" y="1128" type="qcurve"/>
      <point x="84.0" y="1333.0" type="line"/>
      <point x="191.25" y="1411.0"/>
      <point x="433.0" y="1483.0"/>
      <point x="580.0" y="1483.0" type="qcurve" smooth="yes"/>
      <point x="799.0" y="1483.0"/>
      <point x="1046.0" y="1299.75"/>
      <point x="1046.0" y="1137.0" type="qcurve" smooth="yes"/>
      <point x="1046.0" y="1001.25"/>
      <point x="878.0" y="809.0"/>
      <point x="725" y="770" type="qcurve"/>
      <point x="725.0" y="764.0" type="line"/>
      <point x="1089.0" y="718.688796680498"/>
      <point x="1089.0" y="416.0" type="qcurve" smooth="yes"/>
      <point x="1089.0" y="211.25"/>
      <point x="779.75" y="-20.0"/>
    </contour>
  </outline>
</glyph>
<glyph name="four" format="1">
  <advance width="1169"/>
  <unicode hex="0034"/>
  <outline>
    <contour>
      <point x="669" y="0" type="line"/>
      <point x="669" y="310" type="line"/>
      <point x="35" y="310" type="line"/>
      <point x="35" y="533" type="line"/>
      <point x="679" y="1464" type="line"/>
      <point x="970" y="1464" type="line"/>
      <point x="970" y="542" type="line"/>
      <point x="1159" y="542" type="line"/>
      <point x="1159" y="310" type="line"/>
      <point x="970" y="310" type="line"/>
      <point x="970" y="0" type="line"/>
    </contour>
    <contour>
      <point x="310" y="542" type="line"/>
      <point x="669" y="542" type="line"/>
      <point x="669.0" y="787.0" type="line" smooth="yes"/>
      <point x="669.0" y="839.5"/>
      <point x="672.4166666666665" y="963.4166666666666"/>
      <point x="677.5" y="1067.0"/>
      <point x="680" y="1089" type="qcurve"/>
      <point x="670.0" y="1089.0" type="line"/>
      <point x="655.0" y="1056.75"/>
      <point x="609.75" y="978.5"/>
      <point x="579" y="932" type="qcurve" smooth="yes"/>
    </contour>
  </outline>
</glyph>
<glyph name="five" format="1">
  <advance width="1169"/>
  <unicode hex="0035"/>
  <outline>
    <contour>
      <point x="504.0" y="-20.0" type="qcurve" smooth="yes"/>
      <point x="381.0" y="-20.0"/>
      <point x="176.5" y="20.25"/>
      <point x="100" y="60" type="qcurve"/>
      <point x="100.0" y="318.0" type="line"/>
      <point x="162.0" y="288.5"/>
      <point x="295.41666666666663" y="246.41666666666666"/>
      <point x="424.5" y="224.0"/>
      <point x="480.0" y="224.0" type="qcurve" smooth="yes"/>
      <point x="615.0" y="224.0"/>
      <point x="767.0" y="350.5"/>
      <point x="767.0" y="466.0" type="qcurve" smooth="yes"/>
      <point x="767.0" y="573.25"/>
      <point x="616.0" y="695.0"/>
      <point x="472.0" y="695.0" type="qcurve" smooth="yes"/>
      <point x="368.5" y="695.0"/>
      <point x="250" y="659" type="qcurve"/>
      <point x="130" y="721" type="line"/>
      <point x="186" y="1462" type="line"/>
      <point x="981" y="1462" type="line"/>
      <point x="981" y="1203" type="line"/>
      <point x="449" y="1203" type="line"/>
      <point x="423.0" y="913.0" type="line"/>
      <point x="486.0" y="924.25"/>
      <point x="565.25" y="934.0"/>
      <point x="617.0" y="934.0" type="qcurve" smooth="yes"/>
      <point x="757.0" y="934.0"/>
      <point x="963.6666666666666" y="818.8333333333333"/>
      <point x="1077.0" y="613.0"/>
      <point x="1077.0" y="477.0" type="qcurve" smooth="yes"/>
      <point x="1077.0" y="317.5"/>
      <point x="947.5833333333333" y="95.58333333333334"/>
      <point x="692.5" y="-20.0"/>
    </contour>
  </outline>
</glyph>
<glyph name="six" format="1">
  <advance width="1169"/>
  <unicode hex="0036"/>
  <outline>
    <contour>
      <point x="602.0" y="-20.0" type="qcurve" smooth="yes"/>
      <point x="353.75" y="-20.0"/>
      <point x="72.0" y="317.0"/>
      <point x="72.0" y="620.0" type="qcurve" smooth="yes"/>
      <point x="72.0" y="919.25"/>
      <point x="241.25" y="1301.25"/>
      <point x="404.0" y="1392.0" type="qcurve" smooth="yes"/>
      <point x="565.3770491803278" y="1484.0"/>
      <point x="801.0" y="1484.0" type="qcurve" smooth="yes"/>
      <point x="846.0" y="1484.0"/>
      <point x="944.75" y="1474.0"/>
      <point x="998" y="1465" type="qcurve"/>
      <point x="998.0" y="1222.0" type="line"/>
      <point x="907.0666666666667" y="1244.0"/>
      <point x="793.0" y="1244.0" type="qcurve" smooth="yes"/>
      <point x="607.5" y="1244.0"/>
      <point x="501.0" y="1154.0" type="qcurve" smooth="yes"/>
      <point x="362.9633576369415" y="1042.6801271265658"/>
      <point x="351" y="775" type="qcurve"/>
      <point x="363.0" y="775.0" type="line"/>
      <point x="471.6101694915254" y="953.0"/>
      <point x="680.0" y="953.0" type="qcurve" smooth="yes"/>
      <point x="878.0" y="953.0"/>
      <point x="1098.0" y="708.0"/>
      <point x="1098.0" y="489.0" type="qcurve" smooth="yes"/>
      <point x="1098.0" y="252.75"/>
      <point x="834.5" y="-20.0"/>
    </contour>
    <contour>
      <point x="595.0" y="225.0" type="qcurve" smooth="yes"/>
      <point x="688.5" y="225.0"/>
      <point x="741.0" y="288.0" type="qcurve" smooth="yes"/>
      <point x="799.0" y="353.8378378378378"/>
      <point x="799.0" y="484.0" type="qcurve" smooth="yes"/>
      <point x="799.0" y="596.5"/>
      <point x="696.5" y="715.0"/>
      <point x="602.0" y="715.0" type="qcurve" smooth="yes"/>
      <point x="545.75" y="715.0"/>
      <point x="452.0" y="669.0"/>
      <point x="422.0" y="630.0" type="qcurve" smooth="yes"/>
      <point x="380.0" y="577.1111111111111"/>
      <point x="380.0" y="510.0" type="qcurve" smooth="yes"/>
      <point x="380.0" y="375.61224489795916"/>
      <point x="459.0" y="295.0" type="qcurve"/>
      <point x="513.4444444444445" y="225.0"/>
    </contour>
  </outline>
</glyph>
<glyph name="seven" format="1">
  <advance width="1169"/>
  <unicode hex="0037"/>
  <outline>
    <contour>
      <point x="214" y="0" type="line"/>
      <point x="747" y="1203" type="line"/>
      <point x="55" y="1203" type="line"/>
      <point x="55" y="1461" type="line"/>
      <point x="1078" y="1461" type="line"/>
      <point x="1078" y="1276" type="line"/>
      <point x="536" y="0" type="line"/>
    </contour>
  </outline>
</glyph>
<glyph name="eight" format="1">
  <advance width="1169"/>
  <unicode hex="0038"/>
  <outline>
    <contour>
      <point x="581.0" y="-20.0" type="qcurve" smooth="yes"/>
      <point x="416.5" y="-20.0"/>
      <point x="189.41666666666666" y="72.66666666666666"/>
      <point x="72.0" y="251.99999999999997"/>
      <point x="72.0" y="382.0" type="qcurve" smooth="yes"/>
      <point x="72.0" y="510.25"/>
      <point x="207.0" y="695.0"/>
      <point x="360.0" y="767.0" type="qcurve"/>
      <point x="230.25" y="844.25"/>
      <point x="116.0" y="1020.75"/>
      <point x="116.0" y="1131.0" type="qcurve" smooth="yes"/>
      <point x="116.0" y="1242.5"/>
      <point x="232.16666666666666" y="1400.4166666666665"/>
      <point x="443.0" y="1484.0"/>
      <point x="585.0" y="1484.0" type="qcurve" smooth="yes"/>
      <point x="802.5" y="1484.0"/>
      <point x="1051.0" y="1297.0"/>
      <point x="1051.0" y="1129.0" type="qcurve" smooth="yes"/>
      <point x="1051.0" y="1013.5"/>
      <point x="924.5" y="839.5"/>
      <point x="785.0" y="772.0" type="qcurve"/>
      <point x="956.0" y="684.25"/>
      <point x="1096.0" y="499.75"/>
      <point x="1096.0" y="385.0" type="qcurve" smooth="yes"/>
      <point x="1096.0" y="258.0"/>
      <point x="972.2499999999999" y="76.66666666666666"/>
      <point x="741.5" y="-20.0"/>
    </contour>
    <contour>
      <point x="579.0" y="206.0" type="qcurve" smooth="yes"/>
      <point x="689.25" y="206.0"/>
      <point x="811.0" y="299.0"/>
      <point x="811.0" y="386.0" type="qcurve" smooth="yes"/>
      <point x="811.0" y="433.5"/>
      <point x="768.3333333333333" y="514.0"/>
      <point x="665.0" y="592.5"/>
      <point x="574.0" y="637.0" type="qcurve"/>
      <point x="456.25" y="583.0"/>
      <point x="356.0" y="464.75"/>
      <point x="356.0" y="389.0" type="qcurve" smooth="yes"/>
      <point x="356.0" y="303.5"/>
      <point x="474.0" y="206.0"/>
    </contour>
    <contour>
      <point x="584.0" y="902.0" type="qcurve"/>
      <point x="682.25" y="950.0"/>
      <point x="761.0" y="1043.75"/>
      <point x="761.0" y="1106.0" type="qcurve" smooth="yes"/>
      <point x="761.0" y="1175.0"/>
      <point x="661.0" y="1258.0"/>
      <point x="583.0" y="1258.0" type="qcurve" smooth="yes"/>
      <point x="505.0" y="1258.0"/>
      <point x="405.0" y="1175.0"/>
      <point x="405.0" y="1106.0" type="qcurve" smooth="yes"/>
      <point x="405.0" y="1061.0"/>
      <point x="447.83333333333326" y="989.4166666666665"/>
      <point x="528.0" y="929.5"/>
    </contour>
  </outline>
</glyph>
<glyph name="nine" format="1">
  <advance width="1169"/>
  <unicode hex="0039"/>
  <outline>
    <contour>
      <point x="362.0" y="-20.0" type="qcurve" smooth="yes"/>
      <point x="299.75" y="-20.0"/>
      <point x="200.25" y="-12.5"/>
      <point x="162" y="-5" type="qcurve"/>
      <point x="162.0" y="240.0" type="line"/>
      <point x="204.75" y="229.5"/>
      <point x="302.0" y="220.0"/>
      <point x="341.0" y="220.0" type="qcurve" smooth="yes"/>
      <point x="563.75" y="220.0"/>
      <point x="809.0" y="449.25"/>
      <point x="821" y="684" type="qcurve"/>
      <point x="809.0" y="684.0" type="line"/>
      <point x="750.5" y="588.0"/>
      <point x="593.5" y="506.0"/>
      <point x="478.0" y="506.0" type="qcurve" smooth="yes"/>
      <point x="284.5" y="506.0"/>
      <point x="66.0" y="750.5"/>
      <point x="66.0" y="968.0" type="qcurve" smooth="yes"/>
      <point x="66.0" y="1125.5"/>
      <point x="187.83333333333331" y="1354.75"/>
      <point x="411.0" y="1479.0"/>
      <point x="563.0" y="1479.0" type="qcurve" smooth="yes"/>
      <point x="731.0" y="1479.0"/>
      <point x="972.0" y="1322.5"/>
      <point x="1035.0" y="1174.0" type="qcurve" smooth="yes"/>
      <point x="1067.25" y="1099.0"/>
      <point x="1100.0" y="915.25"/>
      <point x="1100.0" y="808.0" type="qcurve" smooth="yes"/>
      <point x="1100.0" y="504.25"/>
      <point x="922.0" y="130.0"/>
      <point x="736.0" y="49.0" type="qcurve" smooth="yes"/>
      <point x="581.5" y="-20.0"/>
    </contour>
    <contour>
      <point x="565.0" y="742.0" type="qcurve" smooth="yes"/>
      <point x="624.25" y="742.0"/>
      <point x="727.25" y="797.25"/>
      <point x="758.0" y="843.0" type="qcurve" smooth="yes"/>
      <point x="774.5" y="867.0"/>
      <point x="792.0" y="920.5"/>
      <point x="792.0" y="949.0" type="qcurve" smooth="yes"/>
      <point x="792.0" y="1025.5"/>
      <point x="735.5" y="1155.5"/>
      <point x="686.0" y="1193.0" type="qcurve" smooth="yes"/>
      <point x="661.25" y="1211.75"/>
      <point x="604.0" y="1232.0"/>
      <point x="571.0" y="1232.0" type="qcurve" smooth="yes"/>
      <point x="529.0" y="1232.0"/>
      <point x="458.0" y="1205.0"/>
      <point x="431.0" y="1178.0" type="qcurve" smooth="yes"/>
      <point x="399.5" y="1146.5"/>
      <point x="365.0" y="1043.75"/>
      <point x="365.0" y="974.0" type="qcurve" smooth="yes"/>
      <point x="365.0" y="864.5"/>
      <point x="466.0" y="742.0"/>
    </contour>
  </outline>
</glyph>
<glyph name="colon" format="1">
  <advance width="584"/>
  <unicode hex="003A"/>
  <note>
colon
</note>
  <outline>
    <contour>
      <point x="290.0" y="796.0" type="qcurve" smooth="yes"/>
      <point x="208.25" y="796.0"/>
      <point x="117.0" y="881.25"/>
      <point x="117.0" y="960.0" type="qcurve" smooth="yes"/>
      <point x="117.0" y="1038.75"/>
      <point x="206.0" y="1124.0"/>
      <point x="290.0" y="1124.0" type="qcurve" smooth="yes"/>
      <point x="371.75" y="1124.0"/>
      <point x="458.0" y="1038.75"/>
      <point x="458.0" y="960.0" type="qcurve" smooth="yes"/>
      <point x="458.0" y="881.25"/>
      <point x="368.0" y="796.0"/>
    </contour>
    <contour>
      <point x="290.0" y="-23.0" type="qcurve" smooth="yes"/>
      <point x="209.0" y="-23.0"/>
      <point x="117.0" y="61.25"/>
      <point x="117.0" y="140.0" type="qcurve" smooth="yes"/>
      <point x="117.0" y="303.0"/>
      <point x="290.0" y="303.0" type="qcurve" smooth="yes"/>
      <point x="458.0" y="303.0"/>
      <point x="458.0" y="140.0" type="qcurve" smooth="yes"/>
      <point x="458.0" y="62.0"/>
      <point x="369.5" y="-23.0"/>
    </contour>
  </outline>
</glyph>
<glyph name="semicolon" format="1">
  <advance width="594"/>
  <unicode hex="003B"/>
  <note>
semicolon
</note>
  <outline>
    <contour>
      <point x="62.7" y="-278.7" type="line"/>
      <point x="82.2" y="-194.95000000000002"/>
      <point x="123.225" y="12.833333333333329"/>
      <point x="156.75" y="211.15000000000003"/>
      <point x="165" y="280.7" type="qcurve"/>
      <point x="439.5" y="280.7" type="line"/>
      <point x="452.9" y="258.3" type="line"/>
      <point x="361.2551072004057" y="-91.46538425498059"/>
      <point x="277.5" y="-278.7" type="qcurve"/>
    </contour>
    <contour>
      <point x="284.7" y="796.4" type="qcurve" smooth="yes"/>
      <point x="203.175" y="796.4"/>
      <point x="113.0" y="881.0"/>
      <point x="113.0" y="960.5" type="qcurve" smooth="yes"/>
      <point x="113.0" y="1123.6"/>
      <point x="284.7" y="1123.6" type="qcurve" smooth="yes"/>
      <point x="366.9" y="1123.6"/>
      <point x="454.2" y="1038.125"/>
      <point x="454.2" y="960.5" type="qcurve" smooth="yes"/>
      <point x="454.2" y="881.5250000000001"/>
      <point x="364.575" y="796.4"/>
    </contour>
  </outline>
</glyph>
<glyph name="question" format="1">
  <advance width="977"/>
  <unicode hex="003F"/>
  <note>
question
</note>
  <outline>
    <contour>
      <point x="283" y="474" type="line"/>
      <point x="283.0" y="546.0" type="line" smooth="yes"/>
      <point x="283.0" y="616.5"/>
      <point x="316.8333333333333" y="724.1666666666666"/>
      <point x="396.0" y="816.5"/>
      <point x="464.0" y="864.0" type="qcurve" smooth="yes"/>
      <point x="484.25" y="879.0"/>
      <point x="522.5" y="907.5"/>
      <point x="539.0" y="921.0" type="qcurve" smooth="yes"/>
      <point x="574.0" y="949.0"/>
      <point x="617.1666666666665" y="1003.0833333333333"/>
      <point x="637.0" y="1061.5"/>
      <point x="637.0" y="1096.0" type="qcurve" smooth="yes"/>
      <point x="637.0" y="1162.75"/>
      <point x="534.25" y="1242.0"/>
      <point x="451.0" y="1242.0" type="qcurve" smooth="yes"/>
      <point x="373.75" y="1242.0"/>
      <point x="209.25" y="1193.75"/>
      <point x="114" y="1145" type="qcurve"/>
      <point x="6.0" y="1360.0" type="line"/>
      <point x="126.0" y="1423.75"/>
      <point x="352.5" y="1483.0"/>
      <point x="471.0" y="1483.0" type="qcurve" smooth="yes"/>
      <point x="612.0" y="1483.0"/>
      <point x="814.4999999999999" y="1394.1666666666665"/>
      <point x="923.0" y="1230.0"/>
      <point x="923.0" y="1117.0" type="qcurve" smooth="yes"/>
      <point x="923.0" y="1049.5"/>
      <point x="888.75" y="940.25"/>
      <point x="855.0" y="893.0" type="qcurve" smooth="yes"/>
      <point x="824.25" y="851.75"/>
      <point x="738.5" y="776.0"/>
      <point x="683.0" y="737.0" type="qcurve" smooth="yes"/>
      <point x="626.75" y="697.25"/>
      <point x="559.75" y="636.5"/>
      <point x="547.0" y="611.0" type="qcurve"/>
      <point x="535.0" y="592.25"/>
      <point x="523.0" y="544.0"/>
      <point x="523" y="514" type="qcurve" smooth="yes"/>
      <point x="523" y="474" type="line"/>
    </contour>
    <contour>
      <point x="415.0" y="-23.0" type="qcurve" smooth="yes"/>
      <point x="334.0" y="-23.0"/>
      <point x="243.0" y="60.5"/>
      <point x="243.0" y="140.0" type="qcurve" smooth="yes"/>
      <point x="243.0" y="218.75"/>
      <point x="330.25" y="303.0"/>
      <point x="415.0" y="303.0" type="qcurve" smooth="yes"/>
      <point x="497.5" y="303.0"/>
      <point x="585.0" y="218.0"/>
      <point x="585.0" y="140.0" type="qcurve" smooth="yes"/>
      <point x="585.0" y="61.25"/>
      <point x="494.5" y="-23.0"/>
    </contour>
  </outline>
</glyph>
<glyph name="at" format="1">
  <advance width="1837"/>
  <unicode hex="0040"/>
  <note>
at
</note>
  <outline>
    <contour>
      <point x="906.0" y="-167.0" type="qcurve" smooth="yes"/>
      <point x="717.75" y="-167.0"/>
      <point x="419.96875" y="-63.78125"/>
      <point x="211.53125" y="133.28125"/>
      <point x="102.0" y="415.75"/>
      <point x="102.0" y="595.0" type="qcurve" smooth="yes"/>
      <point x="102.0" y="788.875"/>
      <point x="230.23958333333334" y="1110.3489583333333"/>
      <point x="465.2604166666667" y="1344.4010416666667"/>
      <point x="787.75" y="1472.0"/>
      <point x="982.0" y="1472.0" type="qcurve" smooth="yes"/>
      <point x="1153.75" y="1472.0"/>
      <point x="1435.84375" y="1372.7864583333333"/>
      <point x="1639.65625" y="1184.4635416666667"/>
      <point x="1750.0" y="916.125"/>
      <point x="1750.0" y="747.0" type="qcurve" smooth="yes"/>
      <point x="1750.0" y="608.5"/>
      <point x="1663.2499999999998" y="372.58333333333337"/>
      <point x="1499.5" y="229.0"/>
      <point x="1384.0" y="229.0" type="qcurve" smooth="yes"/>
      <point x="1302.25" y="229.0"/>
      <point x="1178.75" y="305.5"/>
      <point x="1151" y="373" type="qcurve"/>
      <point x="1139.0" y="373.0" type="line"/>
      <point x="1089.5" y="301.75"/>
      <point x="949.5" y="229.0"/>
      <point x="864.0" y="229.0" type="qcurve" smooth="yes"/>
      <point x="691.5" y="229.0"/>
      <point x="505.0" y="437.25"/>
      <point x="505.0" y="624.0" type="qcurve" smooth="yes"/>
      <point x="505.0" y="768.0"/>
      <point x="627.8333333333334" y="978.9999999999999"/>
      <point x="848.0" y="1094.0"/>
      <point x="994.0" y="1094.0" type="qcurve" smooth="yes"/>
      <point x="1071.25" y="1094.0"/>
      <point x="1251.25" y="1064.5"/>
      <point x="1330" y="1039" type="qcurve"/>
      <point x="1309.0" y="604.0" type="line" smooth="yes"/>
      <point x="1308.25" y="586.0"/>
      <point x="1307.75" y="548.0"/>
      <point x="1307.0" y="530.0" type="qcurve"/>
      <point x="1307.0" y="472.45454545454544"/>
      <point x="1324.0" y="440.0" type="qcurve"/>
      <point x="1343.5" y="407.0"/>
      <point x="1387.0" y="407.0" type="qcurve" smooth="yes"/>
      <point x="1424.875" y="407.0"/>
      <point x="1481.8385416666667" y="465.9166666666667"/>
      <point x="1519.9114583333333" y="564.5833333333334"/>
      <point x="1539.0" y="685.75"/>
      <point x="1539.0" y="748.0" type="qcurve" smooth="yes"/>
      <point x="1539.0" y="875.875"/>
      <point x="1463.8177083333333" y="1076.9010416666667"/>
      <point x="1320.4322916666667" y="1216.8489583333333"/>
      <point x="1115.125" y="1290.0"/>
      <point x="985.0" y="1290.0" type="qcurve" smooth="yes"/>
      <point x="829.0" y="1290.0"/>
      <point x="582.6145833333334" y="1191.3125"/>
      <point x="410.3854166666667" y="1007.6875"/>
      <point x="320.0" y="751.5"/>
      <point x="320.0" y="594.0" type="qcurve" smooth="yes"/>
      <point x="320.0" y="319.5"/>
      <point x="620.25" y="20.0"/>
      <point x="894.0" y="20.0" type="qcurve" smooth="yes"/>
      <point x="1003.5" y="20.0"/>
      <point x="1248.75" y="66.0"/>
      <point x="1380" y="114" type="qcurve"/>
      <point x="1380.0" y="-76.0" type="line"/>
      <point x="1271.25" y="-121.0"/>
      <point x="1034.25" y="-167.0"/>
    </contour>
    <contour>
      <point x="895.0" y="407.0" type="qcurve" smooth="yes"/>
      <point x="938.5" y="407.0"/>
      <point x="1004.5" y="438.5"/>
      <point x="1027.0" y="470.0" type="qcurve" smooth="yes"/>
      <point x="1052.5" y="504.5"/>
      <point x="1083.75" y="623.25"/>
      <point x="1089" y="708" type="qcurve" smooth="yes"/>
      <point x="1100.0" y="904.0" type="line"/>
      <point x="1050.888888888889" y="917.0"/>
      <point x="995.0" y="917.0" type="qcurve" smooth="yes"/>
      <point x="947.0" y="917.0"/>
      <point x="865.5" y="890.75"/>
      <point x="834.0" y="866.0" type="qcurve" smooth="yes"/>
      <point x="785.25" y="829.25"/>
      <point x="733.0" y="707.0"/>
      <point x="733.0" y="626.0" type="qcurve" smooth="yes"/>
      <point x="733.0" y="567.5"/>
      <point x="755.25" y="483.0"/>
      <point x="777.0" y="456.0" type="qcurve" smooth="yes"/>
      <point x="818.5757575757576" y="407.0"/>
    </contour>
  </outline>
</glyph>
<glyph name="A" format="1">
  <advance width="1413"/>
  <unicode hex="0041"/>
  <outline>
    <contour>
      <point x="1409.6" y="0" type="line"/>
      <point x="1072.7" y="0" type="line"/>
      <point x="961.4" y="346.6" type="line"/>
      <point x="450.7" y="346.6" type="line"/>
      <point x="337.7" y="0" type="line"/>
      <point x="0" y="0" type="line"/>
      <point x="510.3" y="1468" type="line"/>
      <point x="898.7" y="1468" type="line"/>
    </contour>
    <contour>
      <point x="519.2" y="601" type="qcurve"/>
      <point x="893.8" y="601" type="line"/>
      <point x="790.0" y="927.1" type="line" smooth="yes"/>
      <point x="777.3" y="970.6999999999999"/>
      <point x="743.8333333333333" y="1094.9666666666665"/>
      <point x="713.5" y="1214.5"/>
      <point x="705.5" y="1251.0" type="qcurve"/>
      <point x="698.3000000000001" y="1218.75"/>
      <point x="676.95" y="1133.8500000000004"/>
      <point x="663.3" y="1081.2" type="qcurve" smooth="yes"/>
      <point x="638.55" y="1000.8750000000001"/>
      <point x="566.525" y="760.5999999999999"/>
    </contour>
    <contour>
      <point x="705.3" y="0" type="move" name="bottom"/>
    </contour>
    <contour>
      <point x="1268.4" y="10" type="move" name="ogonek"/>
    </contour>
    <contour>
      <point x="705.3" y="1462" type="move" name="top"/>
    </contour>
  </outline>
</glyph>
<glyph name="C" format="1">
  <advance width="1305"/>
  <unicode hex="0043"/>
  <outline>
    <contour>
      <point x="824.0" y="1229.0" type="qcurve" smooth="yes"/>
      <point x="642.5" y="1229.0"/>
      <point x="437.0" y="961.75"/>
      <point x="437.0" y="727.0" type="qcurve" smooth="yes"/>
      <point x="437.0" y="569.5"/>
      <point x="520.25" y="362.25"/>
      <point x="596.0" y="306.0" type="qcurve" smooth="yes"/>
      <point x="689.0" y="234.0"/>
      <point x="834.0" y="234.0" type="qcurve" smooth="yes"/>
      <point x="929.25" y="234.0"/>
      <point x="1107.25" y="279.25"/>
      <point x="1195" y="313" type="qcurve"/>
      <point x="1195.0" y="52.0" type="line"/>
      <point x="1024.0" y="-20.0"/>
      <point x="797.0" y="-20.0" type="qcurve" smooth="yes"/>
      <point x="473.0" y="-20.0"/>
      <point x="119.0" y="368.25"/>
      <point x="119.0" y="729.0" type="qcurve" smooth="yes"/>
      <point x="119.0" y="955.5"/>
      <point x="290.25" y="1297.25"/>
      <point x="450.0" y="1391.0" type="qcurve" smooth="yes"/>
      <point x="607.2903225806451" y="1483.0"/>
      <point x="825.0" y="1483.0" type="qcurve" smooth="yes"/>
      <point x="1054.5" y="1483.0"/>
      <point x="1257" y="1387" type="qcurve"/>
      <point x="1160.0" y="1142.0" type="line"/>
      <point x="1079.0" y="1180.25"/>
      <point x="915.5" y="1229.0"/>
    </contour>
    <contour>
      <point x="664" y="0" type="move" name="bottom"/>
    </contour>
    <contour>
      <point x="664" y="1462" type="move" name="top"/>
    </contour>
  </outline>
</glyph>
<glyph name="D" format="1">
  <advance width="1516"/>
  <unicode hex="0044"/>
  <outline>
    <contour>
      <point x="1385.0" y="757.0" type="qcurve" smooth="yes"/>
      <point x="1385.0" y="390.25"/>
      <point x="987.5" y="0.0"/>
      <point x="620" y="0" type="qcurve" smooth="yes"/>
      <point x="184" y="0" type="line"/>
      <point x="184" y="1462" type="line"/>
      <point x="656.0" y="1462.0" type="line" smooth="yes"/>
      <point x="890.5" y="1462.0"/>
      <point x="1215.9166666666665" y="1299.9166666666665"/>
      <point x="1385.0" y="985.5"/>
    </contour>
    <contour>
      <point x="1065.0" y="746.0" type="qcurve" smooth="yes"/>
      <point x="1065.0" y="980.75"/>
      <point x="858.25" y="1212.0"/>
      <point x="652" y="1212" type="qcurve" smooth="yes"/>
      <point x="491" y="1212" type="line"/>
      <point x="491" y="254" type="line"/>
      <point x="625.0" y="254.0" type="line" smooth="yes"/>
      <point x="849.25" y="254.0"/>
      <point x="1065.0" y="497.75"/>
    </contour>
    <contour>
      <point x="754" y="0" type="move" name="bottom"/>
    </contour>
    <contour>
      <point x="754" y="731" type="move" name="center"/>
    </contour>
    <contour>
      <point x="754" y="1462" type="move" name="top"/>
    </contour>
  </outline>
</glyph>
<glyph name="G" format="1">
  <advance width="1483"/>
  <unicode hex="0047"/>
  <outline>
    <contour>
      <point x="832.0" y="-20.0" type="qcurve" smooth="yes"/>
      <point x="489.25" y="-20.0"/>
      <point x="119.0" y="371.0"/>
      <point x="119.0" y="728.0" type="qcurve" smooth="yes"/>
      <point x="119.0" y="976.25"/>
      <point x="315.25" y="1316.5"/>
      <point x="490.0" y="1402.0" type="qcurve" smooth="yes"/>
      <point x="570.25" y="1441.0"/>
      <point x="766.5" y="1484.0"/>
      <point x="882.0" y="1484.0" type="qcurve" smooth="yes"/>
      <point x="1013.25" y="1484.0"/>
      <point x="1249.5" y="1433.5"/>
      <point x="1341" y="1393" type="qcurve"/>
      <point x="1241.0" y="1148.0" type="line"/>
      <point x="1074.5" y="1229.0"/>
      <point x="881.0" y="1229.0" type="qcurve" smooth="yes"/>
      <point x="742.0" y="1229.0"/>
      <point x="543.6666666666667" y="1111.25"/>
      <point x="438.0" y="884.5"/>
      <point x="438.0" y="721.0" type="qcurve" smooth="yes"/>
      <point x="438.0" y="484.75"/>
      <point x="655.25" y="234.0"/>
      <point x="863.0" y="234.0" type="qcurve" smooth="yes"/>
      <point x="921.5" y="234.0"/>
      <point x="1030.5" y="248.75"/>
      <point x="1077" y="263" type="qcurve"/>
      <point x="1077" y="578" type="line"/>
      <point x="764" y="578" type="line"/>
      <point x="764" y="820" type="line"/>
      <point x="1368" y="820" type="line"/>
      <point x="1368.0" y="69.0" type="line"/>
      <point x="1246.5" y="24.0"/>
      <point x="975.25" y="-20.0"/>
    </contour>
    <contour>
      <point x="761" y="0" type="move" name="bottom"/>
    </contour>
    <contour>
      <point x="761" y="1462" type="move" name="top"/>
    </contour>
  </outline>
</glyph>
<glyph name="I" format="1">
  <advance width="678"/>
  <unicode hex="0049"/>
  <outline>
    <contour>
      <point x="492" y="0" type="line"/>
      <point x="184" y="0" type="line"/>
      <point x="184" y="1462" type="line"/>
      <point x="492" y="1462" type="line"/>
    </contour>
    <contour>
      <point x="338" y="0" type="move" name="bottom"/>
    </contour>
    <contour>
      <point x="600" y="10" type="move" name="ogonek"/>
    </contour>
    <contour>
      <point x="338" y="1462" type="move" name="top"/>
    </contour>
    <contour>
      <point x="31" y="1462" type="move" name="topleft"/>
    </contour>
  </outline>
</glyph>
<glyph name="J" format="1">
  <advance width="678"/>
  <unicode hex="004A"/>
  <outline>
    <contour>
      <point x="37.0" y="-432.0" type="qcurve" smooth="yes"/>
      <point x="-14.75" y="-432.0"/>
      <point x="-108.5" y="-420.25"/>
      <point x="-152" y="-409" type="qcurve"/>
      <point x="-152.0" y="-168.0" type="line"/>
      <point x="-102.5" y="-178.5"/>
      <point x="-37.25" y="-189.0"/>
      <point x="-5.0" y="-189.0" type="qcurve" smooth="yes"/>
      <point x="101.86046511627907" y="-189.0"/>
      <point x="148.0" y="-127.0" type="qcurve" smooth="yes"/>
      <point x="172.0" y="-95.5"/>
      <point x="195.0" y="4.0"/>
      <point x="195" y="73" type="qcurve" smooth="yes"/>
      <point x="195" y="1462" type="line"/>
      <point x="504" y="1462" type="line"/>
      <point x="504.0" y="100.0" type="line" smooth="yes"/>
      <point x="504.0" y="-32.0"/>
      <point x="444.5" y="-232.25"/>
      <point x="386.0" y="-299.0" type="qcurve" smooth="yes"/>
      <point x="327.5" y="-365.0"/>
      <point x="153.25" y="-432.0"/>
    </contour>
    <contour>
      <point x="346" y="0" type="move" name="bottom"/>
    </contour>
    <contour>
      <point x="346" y="1462" type="move" name="top"/>
    </contour>
  </outline>
</glyph>
<glyph name="K" format="1">
  <advance width="1360"/>
  <unicode hex="004B"/>
  <outline>
    <contour>
      <point x="851" y="818" type="line"/>
      <point x="1353" y="0" type="line"/>
      <point x="1003" y="0" type="line"/>
      <point x="633" y="623" type="line"/>
      <point x="492" y="522" type="line"/>
      <point x="492" y="0" type="line"/>
      <point x="184" y="0" type="line"/>
      <point x="184" y="1462" type="line"/>
      <point x="492" y="1462" type="line"/>
      <point x="492.0" y="789.0" type="line"/>
      <point x="514.5" y="822.0"/>
      <point x="581.5" y="912.0"/>
      <point x="625" y="969" type="qcurve" smooth="yes"/>
      <point x="1012" y="1462" type="line"/>
      <point x="1354" y="1462" type="line"/>
    </contour>
    <contour>
      <point x="682" y="0" type="move" name="bottom"/>
    </contour>
    <contour>
      <point x="682" y="1462" type="move" name="top"/>
    </contour>
  </outline>
</glyph>
<glyph name="L" format="1">
  <advance width="1157"/>
  <unicode hex="004C"/>
  <outline>
    <contour>
      <point x="1094" y="0" type="line"/>
      <point x="184" y="0" type="line"/>
      <point x="184" y="1462" type="line"/>
      <point x="491" y="1462" type="line"/>
      <point x="491" y="252" type="line"/>
      <point x="1094" y="252" type="line"/>
    </contour>
    <contour>
      <point x="586" y="0" type="move" name="bottom"/>
    </contour>
    <contour>
      <point x="586" y="731" type="move" name="center"/>
    </contour>
    <contour>
      <point x="477" y="1462" type="move" name="top"/>
    </contour>
    <contour>
      <point x="1072" y="1462" type="move" name="topright"/>
    </contour>
  </outline>
</glyph>
<glyph name="N" format="1">
  <advance width="1665"/>
  <unicode hex="004E"/>
  <outline>
    <contour>
      <point x="184" y="0" type="line"/>
      <point x="184" y="1462" type="line"/>
      <point x="575" y="1462" type="line"/>
      <point x="1207" y="362" type="line"/>
      <point x="1213.0" y="362.0" type="line"/>
      <point x="1207.0" y="466.25"/>
      <point x="1201.0" y="641.75"/>
      <point x="1201" y="713" type="qcurve" smooth="yes"/>
      <point x="1201" y="1462" type="line"/>
      <point x="1477" y="1462" type="line"/>
      <point x="1477" y="0" type="line"/>
      <point x="1084" y="0" type="line"/>
      <point x="450" y="1110" type="line"/>
      <point x="441.0" y="1110.0" type="line"/>
      <point x="450.0" y="990.75"/>
      <point x="458.0" y="808.25"/>
      <point x="458" y="746" type="qcurve" smooth="yes"/>
      <point x="458" y="0" type="line"/>
    </contour>
    <contour>
      <point x="830" y="0" type="move" name="bottom"/>
    </contour>
    <contour>
      <point x="830" y="1462" type="move" name="top"/>
    </contour>
  </outline>
</glyph>
<glyph name="O" format="1">
  <advance width="1630"/>
  <unicode hex="004F"/>
  <outline>
    <contour>
      <point x="1507.0" y="733.0" type="qcurve" smooth="yes"/>
      <point x="1507.0" y="490.99999999999994"/>
      <point x="1346.6666666666665" y="154.83333333333331"/>
      <point x="1037.0" y="-20.0"/>
      <point x="813.0" y="-20.0" type="qcurve" smooth="yes"/>
      <point x="591.5" y="-20.0"/>
      <point x="281.41666666666663" y="155.41666666666666"/>
      <point x="119.0" y="492.50000000000006"/>
      <point x="119.0" y="735.0" type="qcurve" smooth="yes"/>
      <point x="119.0" y="975.0"/>
      <point x="281.16666666666663" y="1310.0"/>
      <point x="592.0" y="1485.0"/>
      <point x="815.0" y="1485.0" type="qcurve" smooth="yes"/>
      <point x="1039.0" y="1485.0"/>
      <point x="1347.6666666666665" y="1311.0833333333333"/>
      <point x="1507.0" y="975.5"/>
    </contour>
    <contour>
      <point x="444.0" y="733.0" type="qcurve" smooth="yes"/>
      <point x="444.0" y="490.0"/>
      <point x="630.75" y="239.0"/>
      <point x="813.0" y="239.0" type="qcurve" smooth="yes"/>
      <point x="997.5" y="239.0"/>
      <point x="1182.0" y="484.75"/>
      <point x="1182.0" y="733.0" type="qcurve" smooth="yes"/>
      <point x="1182.0" y="981.25"/>
      <point x="995.75" y="1229.0"/>
      <point x="815.0" y="1229.0" type="qcurve" smooth="yes"/>
      <point x="632.75" y="1229.0"/>
      <point x="444.0" y="976.75"/>
    </contour>
    <contour>
      <point x="814" y="0" type="move" name="bottom"/>
    </contour>
    <contour>
      <point x="814" y="731" type="move" name="center"/>
    </contour>
    <contour>
      <point x="1459" y="10" type="move" name="ogonek"/>
    </contour>
    <contour>
      <point x="814" y="1462" type="move" name="top"/>
    </contour>
    <contour>
      <point x="182" y="1462" type="move" name="topleft"/>
    </contour>
    <contour>
      <point x="1600" y="1462" type="move" name="topright"/>
    </contour>
  </outline>
</glyph>
<glyph name="P" format="1">
  <advance width="1286"/>
  <unicode hex="0050"/>
  <outline>
    <contour>
      <point x="184" y="0" type="line"/>
      <point x="184" y="1462" type="line"/>
      <point x="645.0" y="1462.0" type="line" smooth="yes"/>
      <point x="917.25" y="1462.0"/>
      <point x="1190.0" y="1229.0"/>
      <point x="1190.0" y="1010.0" type="qcurve" smooth="yes"/>
      <point x="1190.0" y="775.25"/>
      <point x="901.5" y="521.0"/>
      <point x="636" y="521" type="qcurve" smooth="yes"/>
      <point x="491" y="521" type="line"/>
      <point x="491" y="0" type="line"/>
    </contour>
    <contour>
      <point x="491" y="772" type="line"/>
      <point x="601.0" y="772.0" type="line" smooth="yes"/>
      <point x="877.0" y="772.0"/>
      <point x="877.0" y="1008.0" type="qcurve" smooth="yes"/>
      <point x="877.0" y="1211.0"/>
      <point x="635" y="1211" type="qcurve" smooth="yes"/>
      <point x="491" y="1211" type="line"/>
    </contour>
    <contour>
      <point x="644" y="0" type="move" name="bottom"/>
    </contour>
    <contour>
      <point x="644" y="1462" type="move" name="top"/>
    </contour>
  </outline>
</glyph>
<glyph name="Q" format="1">
  <advance width="1630"/>
  <unicode hex="0051"/>
  <outline>
    <contour>
      <point x="1099" y="-348" type="line"/>
      <point x="832.0" y="-19.0" type="line"/>
      <point x="827.5" y="-19.75"/>
      <point x="815.25" y="-20.0"/>
      <point x="810.0" y="-20.0" type="qcurve" smooth="yes"/>
      <point x="589.5" y="-19.0"/>
      <point x="280.75" y="156.66666666666666"/>
      <point x="119.0" y="492.99999999999994"/>
      <point x="119.0" y="735.0" type="qcurve" smooth="yes"/>
      <point x="119.0" y="975.0"/>
      <point x="281.16666666666663" y="1310.0"/>
      <point x="592.0" y="1485.0"/>
      <point x="815.0" y="1485.0" type="qcurve" smooth="yes"/>
      <point x="1039.0" y="1485.0"/>
      <point x="1347.6666666666665" y="1311.0833333333333"/>
      <point x="1507.0" y="975.5"/>
      <point x="1507.0" y="733.0" type="qcurve" smooth="yes"/>
      <point x="1507.0" y="471.25"/>
      <point x="1320.75" y="120.5"/>
      <point x="1143" y="44" type="qcurve"/>
      <point x="1493" y="-348" type="line"/>
    </contour>
    <contour>
      <point x="813.0" y="239.0" type="qcurve" smooth="yes"/>
      <point x="997.5" y="239.0"/>
      <point x="1182.0" y="484.75"/>
      <point x="1182.0" y="733.0" type="qcurve" smooth="yes"/>
      <point x="1182.0" y="981.25"/>
      <point x="995.75" y="1229.0"/>
      <point x="815.0" y="1229.0" type="qcurve" smooth="yes"/>
      <point x="632.75" y="1229.0"/>
      <point x="444.0" y="976.75"/>
      <point x="444.0" y="733.0" type="qcurve" smooth="yes"/>
      <point x="444.0" y="490.0"/>
      <point x="630.75" y="239.0"/>
    </contour>
    <contour>
      <point x="814" y="0" type="move" name="bottom"/>
    </contour>
    <contour>
      <point x="814" y="1462" type="move" name="top"/>
    </contour>
  </outline>
</glyph>
<glyph name="R" format="1">
  <advance width="1352"/>
  <unicode hex="0052"/>
  <outline>
    <contour>
      <point x="184" y="0" type="line"/>
      <point x="184" y="1462" type="line"/>
      <point x="623.0" y="1462.0" type="line" smooth="yes"/>
      <point x="1200.0" y="1462.0"/>
      <point x="1200.0" y="1039.0" type="qcurve" smooth="yes"/>
      <point x="1200.0" y="769.0"/>
      <point x="933" y="646" type="qcurve"/>
      <point x="1350" y="0" type="line"/>
      <point x="1000" y="0" type="line"/>
      <point x="670" y="564" type="line"/>
      <point x="491" y="564" type="line"/>
      <point x="491" y="0" type="line"/>
    </contour>
    <contour>
      <point x="491" y="798" type="line"/>
      <point x="626.0" y="798.0" type="line" smooth="yes"/>
      <point x="888.0" y="798.0"/>
      <point x="888.0" y="1024.0" type="qcurve" smooth="yes"/>
      <point x="888.0" y="1126.75"/>
      <point x="756.75" y="1225.0"/>
      <point x="618" y="1225" type="qcurve" smooth="yes"/>
      <point x="491" y="1225" type="line"/>
    </contour>
    <contour>
      <point x="679" y="0" type="move" name="bottom"/>
    </contour>
    <contour>
      <point x="679" y="1462" type="move" name="top"/>
    </contour>
  </outline>
</glyph>
<glyph name="S" format="1">
  <advance width="1128"/>
  <unicode hex="0053"/>
  <outline>
    <contour>
      <point x="510.0" y="-20.0" type="qcurve" smooth="yes"/>
      <point x="436.5" y="-20.0"/>
      <point x="294.0833333333333" y="-4.0"/>
      <point x="158.0" y="32.0"/>
      <point x="94" y="62" type="qcurve"/>
      <point x="94.0" y="339.0" type="line"/>
      <point x="197.5" y="287.25"/>
      <point x="434.5" y="233.0"/>
      <point x="526.0" y="233.0" type="qcurve" smooth="yes"/>
      <point x="654.25" y="233.0"/>
      <point x="773.0" y="324.75"/>
      <point x="773.0" y="399.0" type="qcurve" smooth="yes"/>
      <point x="773.0" y="457.0"/>
      <point x="698.9166666666666" y="535.25"/>
      <point x="564.5" y="598.5"/>
      <point x="474.0" y="634.0" type="qcurve" smooth="yes"/>
      <point x="332.25" y="689.5"/>
      <point x="180.5" y="809.0"/>
      <point x="143.0" y="887.0" type="qcurve" smooth="yes"/>
      <point x="107.0" y="965.0"/>
      <point x="107.0" y="1064.0" type="qcurve" smooth="yes"/>
      <point x="107.0" y="1263.5"/>
      <point x="389.0" y="1483.0"/>
      <point x="629.0" y="1483.0" type="qcurve" smooth="yes"/>
      <point x="740.0" y="1483.0"/>
      <point x="961.25" y="1434.0"/>
      <point x="1070" y="1386" type="qcurve"/>
      <point x="974.0" y="1146.0" type="line"/>
      <point x="908.0" y="1176.0"/>
      <point x="785.4166666666666" y="1215.5"/>
      <point x="674.5" y="1235.0"/>
      <point x="626.0" y="1235.0" type="qcurve" smooth="yes"/>
      <point x="520.25" y="1235.0"/>
      <point x="413.0" y="1153.0"/>
      <point x="413.0" y="1084.0" type="qcurve" smooth="yes"/>
      <point x="413.0" y="1046.5"/>
      <point x="447.25" y="985.0"/>
      <point x="484.0" y="961.0" type="qcurve" smooth="yes"/>
      <point x="526.75" y="934.0"/>
      <point x="653.25" y="875.5"/>
      <point x="720.0" y="847.0" type="qcurve" smooth="yes"/>
      <point x="844.5" y="793.0"/>
      <point x="1004.7500000000001" y="681.9166666666666"/>
      <point x="1082.0" y="536.5"/>
      <point x="1082.0" y="431.0" type="qcurve" smooth="yes"/>
      <point x="1082.0" y="283.5"/>
      <point x="940.5833333333333" y="82.58333333333334"/>
      <point x="683.5" y="-20.0"/>
    </contour>
    <contour>
      <point x="579" y="0" type="move" name="bottom"/>
    </contour>
    <contour>
      <point x="579" y="1462" type="move" name="top"/>
    </contour>
  </outline>
</glyph>
<glyph name="W" format="1">
  <advance width="1980"/>
  <unicode hex="0057"/>
  <outline>
    <contour>
      <point x="374" y="0" type="line"/>
      <point x="0" y="1462" type="line"/>
      <point x="299" y="1462" type="line"/>
      <point x="487.0" y="666.0" type="line" smooth="yes"/>
      <point x="506.0" y="584.5"/>
      <point x="534.2499999999999" y="454.49999999999994"/>
      <point x="555.5" y="342.5"/>
      <point x="564.0" y="288.0" type="qcurve"/>
      <point x="570.375" y="333.75"/>
      <point x="593.9322916666666" y="460.9166666666667"/>
      <point x="623.8177083333334" y="604.5833333333334"/>
      <point x="656.0" y="747.5"/>
      <point x="671" y="809" type="qcurve" smooth="yes"/>
      <point x="837" y="1462" type="line"/>
      <point x="1127" y="1462" type="line"/>
      <point x="1302.0" y="769.0" type="line" smooth="yes"/>
      <point x="1321.0" y="689.5"/>
      <point x="1360.5833333333333" y="504.25"/>
      <point x="1392.5" y="338.0"/>
      <point x="1400.0" y="287.0" type="qcurve"/>
      <point x="1406.75" y="337.25"/>
      <point x="1436.0" y="494.25"/>
      <point x="1460" y="603" type="qcurve" smooth="yes"/>
      <point x="1666" y="1462" type="line"/>
      <point x="1964" y="1462" type="line"/>
      <point x="1590" y="0" type="line"/>
      <point x="1238" y="0" type="line"/>
      <point x="1044.0" y="784.0" type="line" smooth="yes"/>
      <point x="1036.0" y="817.0"/>
      <point x="1011.75" y="932.6666666666665"/>
      <point x="988.5" y="1057.0"/>
      <point x="982.0" y="1103.0" type="qcurve"/>
      <point x="973.75" y="1044.5"/>
      <point x="943.25" y="879.5"/>
      <point x="926" y="806" type="qcurve" smooth="yes"/>
      <point x="727" y="0" type="line"/>
    </contour>
    <contour>
      <point x="982" y="0" type="move" name="bottom"/>
    </contour>
    <contour>
      <point x="982" y="1462" type="move" name="top"/>
    </contour>
  </outline>
</glyph>
<glyph name="X" format="1">
  <advance width="1366"/>
  <unicode hex="0058"/>
  <outline>
    <contour>
      <point x="864" y="731" type="line"/>
      <point x="1360" y="0" type="line"/>
      <point x="1005" y="0" type="line"/>
      <point x="676" y="525" type="line"/>
      <point x="347" y="0" type="line"/>
      <point x="0" y="0" type="line"/>
      <point x="487" y="752" type="line"/>
      <point x="34" y="1462" type="line"/>
      <point x="375" y="1462" type="line"/>
      <point x="678" y="958" type="line"/>
      <point x="976" y="1462" type="line"/>
      <point x="1324" y="1462" type="line"/>
    </contour>
    <contour>
      <point x="681" y="0" type="move" name="bottom"/>
    </contour>
    <contour>
      <point x="681" y="1462" type="move" name="top"/>
    </contour>
  </outline>
</glyph>
<glyph name="Z" format="1">
  <advance width="1186"/>
  <unicode hex="005A"/>
  <outline>
    <contour>
      <point x="1151" y="252" type="line"/>
      <point x="1151" y="0" type="line"/>
      <point x="49" y="0" type="line"/>
      <point x="49" y="194" type="line"/>
      <point x="749" y="1210" type="line"/>
      <point x="72" y="1210" type="line"/>
      <point x="72" y="1462" type="line"/>
      <point x="1133" y="1462" type="line"/>
      <point x="1133" y="1269" type="line"/>
      <point x="433" y="252" type="line"/>
    </contour>
    <contour>
      <point x="597" y="0" type="move" name="bottom"/>
    </contour>
    <contour>
      <point x="597" y="1462" type="move" name="top"/>
    </contour>
  </outline>
</glyph>
<glyph name="asciicircum" format="1">
  <advance width="1090"/>
  <unicode hex="005E"/>
  <note>
asciicircum
</note>
  <outline>
    <contour>
      <point x="8" y="520" type="line"/>
      <point x="456" y="1469" type="line"/>
      <point x="595" y="1469" type="line"/>
      <point x="1089" y="520" type="line"/>
      <point x="852" y="520" type="line"/>
      <point x="531" y="1161" type="line"/>
      <point x="238" y="520" type="line"/>
    </contour>
  </outline>
</glyph>
<glyph name="a" format="1">
  <advance width="1237"/>
  <unicode hex="0061"/>
  <outline>
    <contour>
      <point x="1081" y="0" type="line"/>
      <point x="869" y="0" type="line"/>
      <point x="809" y="157" type="line"/>
      <point x="801.0" y="157.0" type="line"/>
      <point x="721.5" y="56.5"/>
      <point x="554.75" y="-20.0"/>
      <point x="428.0" y="-20.0" type="qcurve" smooth="yes"/>
      <point x="268.25" y="-20.0"/>
      <point x="86.0" y="164.0"/>
      <point x="86.0" y="329.0" type="qcurve" smooth="yes"/>
      <point x="86.0" y="503.0"/>
      <point x="342.0" y="681.5"/>
      <point x="585" y="689" type="qcurve" smooth="yes"/>
      <point x="779" y="695" type="line"/>
      <point x="779.0" y="728.0" type="line" smooth="yes"/>
      <point x="779.0" y="823.25"/>
      <point x="693.0" y="920.0"/>
      <point x="603.0" y="920.0" type="qcurve" smooth="yes"/>
      <point x="471.0" y="920.0"/>
      <point x="288" y="836" type="qcurve"/>
      <point x="198.0" y="1042.0" type="line"/>
      <point x="294.0" y="1090.75"/>
      <point x="522.0" y="1139.0"/>
      <point x="654.0" y="1139.0" type="qcurve" smooth="yes"/>
      <point x="861.0" y="1139.0"/>
      <point x="1081.0" y="932.0"/>
      <point x="1081" y="737" type="qcurve" smooth="yes"/>
    </contour>
    <contour>
      <point x="546.0" y="200.0" type="qcurve" smooth="yes"/>
      <point x="648.0" y="200.0"/>
      <point x="779.0" y="322.5"/>
      <point x="779" y="426" type="qcurve" smooth="yes"/>
      <point x="779" y="520" type="line"/>
      <point x="659.0" y="515.0" type="line" smooth="yes"/>
      <point x="522.5" y="509.0"/>
      <point x="397.0" y="423.25"/>
      <point x="397.0" y="337.0" type="qcurve" smooth="yes"/>
      <point x="397.0" y="270.25"/>
      <point x="473.25" y="200.0"/>
    </contour>
    <contour>
      <point x="615" y="0" type="move" name="bottom"/>
    </contour>
    <contour>
      <point x="1063" y="10" type="move" name="ogonek"/>
    </contour>
    <contour>
      <point x="615" y="1119" type="move" name="top"/>
    </contour>
  </outline>
</glyph>
<glyph name="b" format="1">
  <advance width="1296"/>
  <unicode hex="0062"/>
  <outline>
    <contour>
      <point x="773.0" y="-20.0" type="qcurve" smooth="yes"/>
      <point x="668.75" y="-20.0"/>
      <point x="524.5" y="52.0"/>
      <point x="463" y="127" type="qcurve"/>
      <point x="444" y="127" type="line"/>
      <point x="392" y="0" type="line"/>
      <point x="160" y="0" type="line"/>
      <point x="160" y="1556" type="line"/>
      <point x="463" y="1556" type="line"/>
      <point x="463.0" y="1192.0" type="line" smooth="yes"/>
      <point x="463.0" y="1156.75"/>
      <point x="457.25" y="1043.25"/>
      <point x="452" y="966" type="qcurve"/>
      <point x="463.0" y="966.0" type="line"/>
      <point x="522.25" y="1057.5"/>
      <point x="678.5" y="1139.0"/>
      <point x="782.0" y="1139.0" type="qcurve" smooth="yes"/>
      <point x="980.0" y="1139.0"/>
      <point x="1201.0" y="836.5"/>
      <point x="1201.0" y="562.0" type="qcurve" smooth="yes"/>
      <point x="1201.0" y="287.5"/>
      <point x="975.5" y="-20.0"/>
    </contour>
    <contour>
      <point x="684.0" y="227.0" type="qcurve" smooth="yes"/>
      <point x="751.5" y="227.0"/>
      <point x="843.7499999999999" y="304.33333333333326"/>
      <point x="891.0" y="455.0"/>
      <point x="891.0" y="565.0" type="qcurve" smooth="yes"/>
      <point x="891.0" y="731.5"/>
      <point x="786.0" y="898.0"/>
      <point x="681.0" y="898.0" type="qcurve" smooth="yes"/>
      <point x="604.5" y="898.0"/>
      <point x="508.24999999999994" y="834.0"/>
      <point x="463.0" y="698.0"/>
      <point x="463" y="590" type="qcurve" smooth="yes"/>
      <point x="463.0" y="547.0" type="line" smooth="yes"/>
      <point x="463.0" y="433.0"/>
      <point x="509.33333333333326" y="292.0"/>
      <point x="607.0" y="227.0"/>
    </contour>
    <contour>
      <point x="655" y="0" type="move" name="bottom"/>
    </contour>
    <contour>
      <point x="655" y="1119" type="move" name="top"/>
    </contour>
  </outline>
</glyph>
<glyph name="c" format="1">
  <advance width="1053"/>
  <unicode hex="0063"/>
  <outline>
    <contour>
      <point x="636.0" y="-20.0" type="qcurve" smooth="yes"/>
      <point x="371.25" y="-20.0"/>
      <point x="92.0" y="278.0"/>
      <point x="92.0" y="554.0" type="qcurve" smooth="yes"/>
      <point x="92.0" y="832.25"/>
      <point x="391.5" y="1139.0"/>
      <point x="663.0" y="1139.0" type="qcurve" smooth="yes"/>
      <point x="841.4081632653061" y="1139.0"/>
      <point x="1003" y="1065" type="qcurve"/>
      <point x="915.0" y="836.0" type="line"/>
      <point x="843.75" y="864.5"/>
      <point x="723.5" y="898.0"/>
      <point x="662.0" y="898.0" type="qcurve" smooth="yes"/>
      <point x="619.25" y="898.0"/>
      <point x="546.25" y="876.25"/>
      <point x="517.0" y="856.0" type="qcurve" smooth="yes"/>
      <point x="460.0" y="816.25"/>
      <point x="401.0" y="664.0"/>
      <point x="401.0" y="556.0" type="qcurve" smooth="yes"/>
      <point x="401.0" y="464.5"/>
      <point x="444.0" y="330.25"/>
      <point x="486.0" y="289.0" type="qcurve" smooth="yes"/>
      <point x="517.5" y="257.5"/>
      <point x="604.25" y="225.0"/>
      <point x="659.0" y="225.0" type="qcurve" smooth="yes"/>
      <point x="741.5" y="225.0"/>
      <point x="897.75" y="267.5"/>
      <point x="972" y="311" type="qcurve"/>
      <point x="972.0" y="65.0" type="line"/>
      <point x="903.75" y="22.25"/>
      <point x="735.75" y="-20.0"/>
    </contour>
    <contour>
      <point x="579" y="0" type="move" name="bottom"/>
    </contour>
    <contour>
      <point x="529" y="1119" type="move" name="top"/>
    </contour>
  </outline>
</glyph>
<glyph name="d" format="1">
  <advance width="1296"/>
  <unicode hex="0064"/>
  <outline>
    <contour>
      <point x="512.0" y="-20.0" type="qcurve" smooth="yes"/>
      <point x="369.5" y="-20.0"/>
      <point x="183.25" y="131.16666666666669"/>
      <point x="92.0" y="391.0"/>
      <point x="92.0" y="554.0" type="qcurve" smooth="yes"/>
      <point x="92.0" y="831.5"/>
      <point x="317.75" y="1139.0"/>
      <point x="521.0" y="1139.0" type="qcurve" smooth="yes"/>
      <point x="623.0" y="1139.0"/>
      <point x="774.75" y="1060.5"/>
      <point x="837" y="966" type="qcurve"/>
      <point x="844.0" y="966.0" type="line"/>
      <point x="836.5" y="1032.0"/>
      <point x="829.0" y="1161.75"/>
      <point x="829" y="1227" type="qcurve" smooth="yes"/>
      <point x="829" y="1556" type="line"/>
      <point x="1134" y="1556" type="line"/>
      <point x="1134" y="0" type="line"/>
      <point x="908" y="0" type="line"/>
      <point x="842" y="150" type="line"/>
      <point x="829.0" y="150.0" type="line"/>
      <point x="775.0" y="64.5"/>
      <point x="616.25" y="-20.0"/>
    </contour>
    <contour>
      <point x="624.0" y="223.0" type="qcurve" smooth="yes"/>
      <point x="704.0" y="223.0"/>
      <point x="803.4166666666666" y="287.25"/>
      <point x="850.5" y="422.5"/>
      <point x="852" y="529" type="qcurve" smooth="yes"/>
      <point x="852.0" y="556.0" type="line" smooth="yes"/>
      <point x="852.0" y="676.5"/>
      <point x="803.5" y="824.4166666666666"/>
      <point x="701.0" y="892.0"/>
      <point x="620.0" y="892.0" type="qcurve" smooth="yes"/>
      <point x="548.5" y="892.0"/>
      <point x="450.41666666666663" y="813.0833333333333"/>
      <point x="400.0" y="660.5"/>
      <point x="400.0" y="550.0" type="qcurve" smooth="yes"/>
      <point x="400.0" y="442.5"/>
      <point x="450.75" y="296.91666666666663"/>
      <point x="550.5" y="223.0"/>
    </contour>
    <contour>
      <point x="640" y="0" type="move" name="bottom"/>
    </contour>
    <contour>
      <point x="640" y="544" type="move" name="center"/>
    </contour>
    <contour>
      <point x="640" y="1087" type="move" name="top"/>
    </contour>
    <contour>
      <point x="1572" y="1556" type="move" name="topright"/>
    </contour>
  </outline>
</glyph>
<glyph name="e" format="1">
  <advance width="1210"/>
  <unicode hex="0065"/>
  <outline>
    <contour>
      <point x="660.0" y="-20.0" type="qcurve" smooth="yes"/>
      <point x="390.75" y="-20.0"/>
      <point x="92.0" y="278.25"/>
      <point x="92.0" y="552.0" type="qcurve" smooth="yes"/>
      <point x="92.0" y="738.0"/>
      <point x="217.66666666666663" y="1000.4999999999999"/>
      <point x="456.00000000000006" y="1139.0"/>
      <point x="625.0" y="1139.0" type="qcurve" smooth="yes"/>
      <point x="862.0" y="1139.0"/>
      <point x="1124.0" y="872.25"/>
      <point x="1124" y="627" type="qcurve" smooth="yes"/>
      <point x="1124" y="482" type="line"/>
      <point x="400.0" y="482.0" type="line"/>
      <point x="403.0" y="347.75"/>
      <point x="555.75" y="202.0"/>
      <point x="693.0" y="202.0" type="qcurve" smooth="yes"/>
      <point x="759.5" y="202.0"/>
      <point x="873.9166666666665" y="216.58333333333331"/>
      <point x="990.0" y="251.50000000000003"/>
      <point x="1059" y="282" type="qcurve"/>
      <point x="1059.0" y="59.0" type="line"/>
      <point x="966.75" y="14.0"/>
      <point x="783.0" y="-20.0"/>
    </contour>
    <contour>
      <point x="407" y="680" type="qcurve"/>
      <point x="844.0" y="680.0" type="line"/>
      <point x="842.5" y="794.0"/>
      <point x="731.0" y="927.0"/>
      <point x="635.0" y="927.0" type="qcurve" smooth="yes"/>
      <point x="539.75" y="927.0"/>
      <point x="417.5" y="803.75"/>
    </contour>
    <contour>
      <point x="608" y="0" type="move" name="bottom"/>
    </contour>
    <contour>
      <point x="828" y="21" type="move" name="ogonek"/>
    </contour>
    <contour>
      <point x="608" y="1119" type="move" name="top"/>
    </contour>
  </outline>
</glyph>
<glyph name="f" format="1">
  <advance width="793"/>
  <unicode hex="0066"/>
  <outline>
    <contour>
      <point x="207" y="0" type="line"/>
      <point x="207" y="888" type="line"/>
      <point x="41" y="888" type="line"/>
      <point x="41" y="1040" type="line"/>
      <point x="212" y="1118" type="line"/>
      <point x="212.0" y="1157.0" type="line" smooth="yes"/>
      <point x="212.0" y="1373.75"/>
      <point x="384.75" y="1567.0"/>
      <point x="576.0" y="1567.0" type="qcurve" smooth="yes"/>
      <point x="644.25" y="1567.0"/>
      <point x="768.0" y="1545.75"/>
      <point x="846" y="1521" type="qcurve"/>
      <point x="781.0" y="1318.0" type="line"/>
      <point x="743.5" y="1328.5"/>
      <point x="670.0" y="1340.0"/>
      <point x="634.0" y="1340.0" type="qcurve" smooth="yes"/>
      <point x="610.0" y="1340.0"/>
      <point x="572.25" y="1329.5"/>
      <point x="558.0" y="1319.0" type="qcurve" smooth="yes"/>
      <point x="533.25" y="1300.25"/>
      <point x="510.0" y="1227.0"/>
      <point x="510" y="1170" type="qcurve" smooth="yes"/>
      <point x="510" y="1119" type="line"/>
      <point x="756" y="1119" type="line"/>
      <point x="756" y="888" type="line"/>
      <point x="510" y="888" type="line"/>
      <point x="510" y="0" type="line"/>
    </contour>
    <contour>
      <point x="389" y="0" type="move" name="bottom"/>
    </contour>
    <contour>
      <point x="389" y="1119" type="move" name="top"/>
    </contour>
  </outline>
</glyph>
<glyph name="h" format="1">
  <advance width="1346"/>
  <unicode hex="0068"/>
  <outline>
    <contour>
      <point x="160" y="0" type="line"/>
      <point x="160" y="1556" type="line"/>
      <point x="463" y="1556" type="line"/>
      <point x="463.0" y="1253.0" type="line" smooth="yes"/>
      <point x="463.0" y="1190.0"/>
      <point x="457.0" y="1049.25"/>
      <point x="451" y="972" type="qcurve"/>
      <point x="465.0" y="972.0" type="line"/>
      <point x="522.75" y="1062.75"/>
      <point x="686.5" y="1139.0"/>
      <point x="799.0" y="1139.0" type="qcurve" smooth="yes"/>
      <point x="988.0" y="1139.0"/>
      <point x="1191.0" y="927.0"/>
      <point x="1191" y="729" type="qcurve" smooth="yes"/>
      <point x="1191" y="0" type="line"/>
      <point x="887" y="0" type="line"/>
      <point x="887.0" y="644.0" type="line" smooth="yes"/>
      <point x="887.0" y="773.0"/>
      <point x="797.75" y="898.0"/>
      <point x="707.0" y="898.0" type="qcurve" smooth="yes"/>
      <point x="606.972972972973" y="898.0"/>
      <point x="549.0" y="843.0" type="qcurve" smooth="yes"/>
      <point x="504.75" y="801.0"/>
      <point x="463.0" y="646.75"/>
      <point x="463" y="529" type="qcurve" smooth="yes"/>
      <point x="463" y="0" type="line"/>
    </contour>
    <contour>
      <point x="672" y="0" type="move" name="bottom"/>
    </contour>
    <contour>
      <point x="672" y="544" type="move" name="center"/>
    </contour>
    <contour>
      <point x="672" y="1483" type="move" name="top"/>
    </contour>
  </outline>
</glyph>
<glyph name="k" format="1">
  <advance width="1270"/>
  <unicode hex="006B"/>
  <outline>
    <contour>
      <point x="160" y="0" type="line"/>
      <point x="160" y="1556" type="line"/>
      <point x="465" y="1556" type="line"/>
      <point x="465.0" y="894.0" type="line" smooth="yes"/>
      <point x="465.0" y="816.0"/>
      <point x="456.0" y="664.0"/>
      <point x="447" y="589" type="qcurve"/>
      <point x="454.0" y="589.0" type="line"/>
      <point x="488.5" y="638.5"/>
      <point x="549.75" y="720.75"/>
      <point x="576" y="753" type="qcurve" smooth="yes"/>
      <point x="883" y="1119" type="line"/>
      <point x="1225" y="1119" type="line"/>
      <point x="821" y="643" type="line"/>
      <point x="1253" y="0" type="line"/>
      <point x="905" y="0" type="line"/>
      <point x="607" y="449" type="line"/>
      <point x="465" y="332" type="line"/>
      <point x="465" y="0" type="line"/>
    </contour>
    <contour>
      <point x="632" y="0" type="move" name="bottom"/>
    </contour>
    <contour>
      <point x="632" y="1119" type="move" name="top"/>
    </contour>
  </outline>
</glyph>
<glyph name="m" format="1">
  <advance width="2011"/>
  <unicode hex="006D"/>
  <outline>
    <contour>
      <point x="160" y="0" type="line"/>
      <point x="160" y="1119" type="line"/>
      <point x="391" y="1119" type="line"/>
      <point x="432" y="976" type="line"/>
      <point x="450.0" y="976.0" type="line"/>
      <point x="495.0" y="1055.5"/>
      <point x="664.25" y="1139.0"/>
      <point x="770.0" y="1139.0" type="qcurve" smooth="yes"/>
      <point x="1018.5" y="1139.0"/>
      <point x="1110" y="977" type="qcurve"/>
      <point x="1133.0" y="977.0" type="line"/>
      <point x="1182.5" y="1054.25"/>
      <point x="1356.25" y="1139.0"/>
      <point x="1462.0" y="1139.0" type="qcurve" smooth="yes"/>
      <point x="1656.25" y="1139.0"/>
      <point x="1844.0" y="938.25"/>
      <point x="1844" y="729" type="qcurve" smooth="yes"/>
      <point x="1844" y="0" type="line"/>
      <point x="1541" y="0" type="line"/>
      <point x="1541.0" y="645.0" type="line" smooth="yes"/>
      <point x="1541.0" y="898.0"/>
      <point x="1374.0" y="898.0" type="qcurve" smooth="yes"/>
      <point x="1259.357142857143" y="898.0"/>
      <point x="1206.0" y="815.0" type="qcurve" smooth="yes"/>
      <point x="1154.0" y="733.2857142857143"/>
      <point x="1154" y="561" type="qcurve" smooth="yes"/>
      <point x="1154" y="0" type="line"/>
      <point x="849" y="0" type="line"/>
      <point x="849.0" y="654.0" type="line" smooth="yes"/>
      <point x="849.0" y="898.0"/>
      <point x="685.0" y="898.0" type="qcurve" smooth="yes"/>
      <point x="567.5245901639345" y="898.0"/>
      <point x="515.0" y="809.0" type="qcurve" smooth="yes"/>
      <point x="463.0" y="723.7777777777778"/>
      <point x="463" y="527" type="qcurve" smooth="yes"/>
      <point x="463" y="0" type="line"/>
    </contour>
    <contour>
      <point x="999" y="0" type="move" name="bottom"/>
    </contour>
    <contour>
      <point x="999" y="1119" type="move" name="top"/>
    </contour>
  </outline>
</glyph>
<glyph name="o" format="1">
  <advance width="1268"/>
  <unicode hex="006F"/>
  <outline>
    <contour>
      <point x="629.0" y="-20.0" type="qcurve" smooth="yes"/>
      <point x="462.5" y="-20.0"/>
      <point x="221.75" y="124.74999999999999"/>
      <point x="92.0" y="386.5"/>
      <point x="92.0" y="562.0" type="qcurve" smooth="yes"/>
      <point x="92.0" y="744.5"/>
      <point x="221.0" y="1002.5833333333334"/>
      <point x="464.0" y="1139.0"/>
      <point x="635.0" y="1139.0" type="qcurve" smooth="yes"/>
      <point x="801.0" y="1139.0"/>
      <point x="1041.833333333333" y="997.1666666666667"/>
      <point x="1172.0" y="738.0"/>
      <point x="1172.0" y="562.0" type="qcurve" smooth="yes"/>
      <point x="1172.0" y="379.0"/>
      <point x="1043.0" y="118.5"/>
      <point x="800.0" y="-20.0"/>
    </contour>
    <contour>
      <point x="633.0" y="210.0" type="qcurve" smooth="yes"/>
      <point x="744.8148148148148" y="210.0"/>
      <point x="801.0" y="292.0" type="qcurve" smooth="yes"/>
      <point x="832.5" y="336.25"/>
      <point x="862.0" y="472.0"/>
      <point x="862.0" y="562.0" type="qcurve" smooth="yes"/>
      <point x="862.0" y="655.0"/>
      <point x="829.5" y="792.5"/>
      <point x="795.0" y="836.0" type="qcurve" smooth="yes"/>
      <point x="738.7291666666666" y="909.0"/>
      <point x="631.0" y="909.0" type="qcurve" smooth="yes"/>
      <point x="581.5" y="909.0"/>
      <point x="504.5" y="876.5"/>
      <point x="476.0" y="845.0" type="qcurve" smooth="yes"/>
      <point x="438.5" y="802.25"/>
      <point x="401.0" y="659.5"/>
      <point x="401.0" y="562.0" type="qcurve" smooth="yes"/>
      <point x="401.0" y="478.75"/>
      <point x="428.5" y="350.0"/>
      <point x="457.0" y="305.0" type="qcurve" smooth="yes"/>
      <point x="512.7936507936508" y="210.0"/>
    </contour>
    <contour>
      <point x="633" y="0" type="move" name="bottom"/>
    </contour>
    <contour>
      <point x="633" y="560" type="move" name="center"/>
    </contour>
    <contour>
      <point x="1142" y="10" type="move" name="ogonek"/>
    </contour>
    <contour>
      <point x="633" y="1119" type="move" name="top"/>
    </contour>
    <contour>
      <point x="1249" y="1119" type="move" name="topright"/>
    </contour>
  </outline>
</glyph>
<glyph name="q" format="1">
  <advance width="1296"/>
  <unicode hex="0071"/>
  <outline>
    <contour>
      <point x="831" y="-492" type="line"/>
      <point x="831.0" y="-40.0" type="line" smooth="yes"/>
      <point x="831.0" y="-9.25"/>
      <point x="836.5" y="85.75"/>
      <point x="841" y="151" type="qcurve"/>
      <point x="831.0" y="151.0" type="line"/>
      <point x="780.0" y="65.5"/>
      <point x="619.75" y="-20.0"/>
      <point x="511.0" y="-20.0" type="qcurve" smooth="yes"/>
      <point x="313.75" y="-20.0"/>
      <point x="92.0" y="283.5"/>
      <point x="92.0" y="555.0" type="qcurve" smooth="yes"/>
      <point x="92.0" y="739.0"/>
      <point x="193.66666666666663" y="1000.3333333333331"/>
      <point x="384.0" y="1139.0"/>
      <point x="517.0" y="1139.0" type="qcurve" smooth="yes"/>
      <point x="733.1454545454545" y="1139.0"/>
      <point x="839" y="975" type="qcurve"/>
      <point x="847" y="975" type="line"/>
      <point x="872" y="1119" type="line"/>
      <point x="1134" y="1119" type="line"/>
      <point x="1134" y="-492" type="line"/>
    </contour>
    <contour>
      <point x="623.0" y="218.0" type="qcurve" smooth="yes"/>
      <point x="698.0" y="218.0"/>
      <point x="794.75" y="270.25"/>
      <point x="821.0" y="328.0" type="qcurve" smooth="yes"/>
      <point x="852.0" y="398.85714285714283"/>
      <point x="852" y="530" type="qcurve" smooth="yes"/>
      <point x="852.0" y="566.0" type="line" smooth="yes"/>
      <point x="852.0" y="745.8974358974359"/>
      <point x="796.0" y="822.0" type="qcurve" smooth="yes"/>
      <point x="742.5555555555555" y="900.0"/>
      <point x="622.0" y="900.0" type="qcurve" smooth="yes"/>
      <point x="512.5" y="900.0"/>
      <point x="401.0" y="724.0"/>
      <point x="401.0" y="550.0" type="qcurve" smooth="yes"/>
      <point x="401.0" y="435.5"/>
      <point x="450.33333333333326" y="288.58333333333337"/>
      <point x="549.0" y="218.0"/>
    </contour>
    <contour>
      <point x="640" y="0" type="move" name="bottom"/>
    </contour>
    <contour>
      <point x="640" y="1119" type="move" name="top"/>
    </contour>
  </outline>
</glyph>
<glyph name="r" format="1">
  <advance width="930"/>
  <unicode hex="0072"/>
  <outline>
    <contour>
      <point x="160" y="0" type="line"/>
      <point x="160" y="1119" type="line"/>
      <point x="389" y="1119" type="line"/>
      <point x="435" y="934" type="line"/>
      <point x="450.0" y="934.0" type="line"/>
      <point x="504.0" y="1033.0"/>
      <point x="672.5" y="1139.0"/>
      <point x="767.0" y="1139.0" type="qcurve" smooth="yes"/>
      <point x="797.75" y="1139.0"/>
      <point x="857.5" y="1133.0"/>
      <point x="895" y="1127" type="qcurve"/>
      <point x="865.0" y="840.0" type="line"/>
      <point x="838.0" y="846.75"/>
      <point x="770.25" y="854.0"/>
      <point x="729.0" y="854.0" type="qcurve" smooth="yes"/>
      <point x="651.0" y="854.0"/>
      <point x="538.25" y="796.5"/>
      <point x="506.0" y="744.0" type="qcurve" smooth="yes"/>
      <point x="485.0" y="709.5"/>
      <point x="463.0" y="621.75"/>
      <point x="463" y="570" type="qcurve" smooth="yes"/>
      <point x="463" y="0" type="line"/>
    </contour>
    <contour>
      <point x="446" y="0" type="move" name="bottom"/>
    </contour>
    <contour>
      <point x="488" y="1119" type="move" name="top"/>
    </contour>
  </outline>
</glyph>
<glyph name="t" format="1">
  <advance width="889"/>
  <unicode hex="0074"/>
  <outline>
    <contour>
      <point x="535.0" y="-20.0" type="qcurve" smooth="yes"/>
      <point x="353.5" y="-20.0"/>
      <point x="191.0" y="161.25"/>
      <point x="191" y="351" type="qcurve" smooth="yes"/>
      <point x="191" y="888" type="line"/>
      <point x="47" y="888" type="line"/>
      <point x="47" y="1017" type="line"/>
      <point x="217" y="1117" type="line"/>
      <point x="302" y="1357" type="line"/>
      <point x="497" y="1357" type="line"/>
      <point x="497" y="1119" type="line"/>
      <point x="787" y="1119" type="line"/>
      <point x="787" y="888" type="line"/>
      <point x="497" y="888" type="line"/>
      <point x="497.0" y="373.0" type="line" smooth="yes"/>
      <point x="497.0" y="297.25"/>
      <point x="560.0" y="223.0"/>
      <point x="626.0" y="223.0" type="qcurve" smooth="yes"/>
      <point x="712.4545454545455" y="223.0"/>
      <point x="807" y="255" type="qcurve"/>
      <point x="807.0" y="31.0" type="line"/>
      <point x="741.0" y="4.0"/>
      <point x="616.0" y="-20.0"/>
    </contour>
    <contour>
      <point x="441" y="0" type="move" name="bottom"/>
    </contour>
    <contour>
      <point x="435" y="560" type="move" name="center"/>
    </contour>
    <contour>
      <point x="435" y="1119" type="move" name="top"/>
    </contour>
    <contour>
      <point x="971" y="1570" type="move" name="topright"/>
    </contour>
  </outline>
</glyph>
<glyph name="u" format="1">
  <advance width="1346"/>
  <unicode hex="0075"/>
  <outline>
    <contour>
      <point x="542.0" y="-20.0" type="qcurve" smooth="yes"/>
      <point x="356.0" y="-20.0"/>
      <point x="154.0" y="191.25"/>
      <point x="154" y="390" type="qcurve" smooth="yes"/>
      <point x="154" y="1119" type="line"/>
      <point x="457" y="1119" type="line"/>
      <point x="457.0" y="475.0" type="line" smooth="yes"/>
      <point x="457.0" y="347.5"/>
      <point x="542.5" y="223.0"/>
      <point x="637.0" y="223.0" type="qcurve" smooth="yes"/>
      <point x="764.7586206896551" y="223.0"/>
      <point x="822.0" y="306.0" type="qcurve" smooth="yes"/>
      <point x="881.0" y="389.4634146341463"/>
      <point x="881" y="592" type="qcurve" smooth="yes"/>
      <point x="881" y="1119" type="line"/>
      <point x="1184" y="1119" type="line"/>
      <point x="1184" y="0" type="line"/>
      <point x="952" y="0" type="line"/>
      <point x="912" y="144" type="line"/>
      <point x="894.0" y="144.0" type="line"/>
      <point x="792.8411214953271" y="-19.999999999999993"/>
    </contour>
    <contour>
      <point x="671" y="0" type="move" name="bottom"/>
    </contour>
    <contour>
      <point x="1153" y="10" type="move" name="ogonek"/>
    </contour>
    <contour>
      <point x="671" y="1119" type="move" name="top"/>
    </contour>
    <contour>
      <point x="1313" y="1119" type="move" name="topright"/>
    </contour>
  </outline>
</glyph>
<glyph name="v" format="1">
  <advance width="1165"/>
  <unicode hex="0076"/>
  <outline>
    <contour>
      <point x="428.4" y="0" type="line"/>
      <point x="0" y="1119.2" type="line"/>
      <point x="316.2" y="1119.2" type="line"/>
      <point x="534.9" y="428.5" type="line" smooth="yes"/>
      <point x="544.3500000000001" y="400.52500000000003"/>
      <point x="567.3" y="313.275"/>
      <point x="572.7" y="273.6" type="qcurve"/>
      <point x="579.4" y="273.6" type="line"/>
      <point x="591.2987708853467" y="349.69337430382177"/>
      <point x="617.2" y="427.7" type="qcurve" smooth="yes"/>
      <point x="842.2" y="1119.2" type="line"/>
      <point x="1157.7" y="1119.2" type="line"/>
      <point x="729.3" y="0" type="line"/>
    </contour>
    <contour>
      <point x="579.2" y="0" type="move" name="bottom"/>
    </contour>
    <contour>
      <point x="579.2" y="1119.2" type="move" name="top"/>
    </contour>
  </outline>
</glyph>
<glyph name="w" format="1">
  <advance width="1753"/>
  <unicode hex="0077"/>
  <outline>
    <contour>
      <point x="329" y="0" type="line"/>
      <point x="20" y="1119" type="line"/>
      <point x="321" y="1119" type="line"/>
      <point x="437.0" y="626.0" type="line" smooth="yes"/>
      <point x="450.5" y="566.0"/>
      <point x="470.4375" y="464.8385416666667"/>
      <point x="484.5625" y="377.4114583333333"/>
      <point x="494.0" y="299.125"/>
      <point x="497" y="262" type="qcurve"/>
      <point x="503.0" y="262.0" type="line"/>
      <point x="509.0" y="299.875"/>
      <point x="521.125" y="372.1197916666667"/>
      <point x="535.875" y="450.1302083333333"/>
      <point x="555.5" y="542.25"/>
      <point x="569" y="600" type="qcurve" smooth="yes"/>
      <point x="708" y="1119" type="line"/>
      <point x="1038" y="1119" type="line"/>
      <point x="1169.0" y="597.0" type="line" smooth="yes"/>
      <point x="1199.0" y="472.5"/>
      <point x="1229.25" y="316.25"/>
      <point x="1236" y="263" type="qcurve"/>
      <point x="1242.0" y="263.0" type="line"/>
      <point x="1245.5" y="306.5"/>
      <point x="1261.5" y="430.0833333333333"/>
      <point x="1285.5" y="566.0"/>
      <point x="1301" y="628" type="qcurve" smooth="yes"/>
      <point x="1421" y="1119" type="line"/>
      <point x="1715" y="1119" type="line"/>
      <point x="1409" y="0" type="line"/>
      <point x="1085" y="0" type="line"/>
      <point x="924.0" y="596.0" type="line" smooth="yes"/>
      <point x="918.0" y="619.5"/>
      <point x="899.2499999999999" y="712.75"/>
      <point x="879.5" y="821.0"/>
      <point x="872" y="867" type="qcurve"/>
      <point x="866.0" y="867.0" type="line"/>
      <point x="851.0" y="790.5"/>
      <point x="827.1666666666666" y="671.3333333333333"/>
      <point x="808.0" y="583.5"/>
      <point x="800" y="554" type="qcurve" smooth="yes"/>
      <point x="646" y="0" type="line"/>
    </contour>
    <contour>
      <point x="868" y="0" type="move" name="bottom"/>
    </contour>
    <contour>
      <point x="868" y="1119" type="move" name="top"/>
    </contour>
  </outline>
</glyph>
<glyph name="y" format="1">
  <advance width="1165"/>
  <unicode hex="0079"/>
  <outline>
    <contour>
      <point x="225.0" y="-492.0" type="qcurve" smooth="yes"/>
      <point x="152.0" y="-492.0"/>
      <point x="74" y="-474" type="qcurve"/>
      <point x="74.0" y="-233.0" type="line"/>
      <point x="101.0" y="-239.75"/>
      <point x="162.25" y="-246.0"/>
      <point x="193.0" y="-246.0" type="qcurve" smooth="yes"/>
      <point x="247.75" y="-246.0"/>
      <point x="325.0" y="-203.5"/>
      <point x="355.0" y="-163.0" type="qcurve" smooth="yes"/>
      <point x="369.25" y="-143.5"/>
      <point x="408.5" y="-63.25"/>
      <point x="437" y="11" type="qcurve"/>
      <point x="0" y="1119" type="line"/>
      <point x="319" y="1119" type="line"/>
      <point x="522.0" y="481.0" type="line" smooth="yes"/>
      <point x="533.0" y="448.5"/>
      <point x="554.3333333333334" y="376.41666666666663"/>
      <point x="571.0" y="308.0"/>
      <point x="575" y="281" type="qcurve"/>
      <point x="583.0" y="281.0" type="line"/>
      <point x="589.0" y="307.625"/>
      <point x="599.5052083333334" y="351.40625"/>
      <point x="611.7447916666666" y="395.09375"/>
      <point x="628.625" y="447.125"/>
      <point x="641" y="482" type="qcurve" smooth="yes"/>
      <point x="847" y="1119" type="line"/>
      <point x="1157" y="1119" type="line"/>
      <point x="698.0" y="-103.0" type="line" smooth="yes"/>
      <point x="646.0" y="-241.0"/>
      <point x="519.0" y="-412.49999999999994"/>
      <point x="346.0" y="-492.0"/>
    </contour>
    <contour>
      <point x="889" y="0" type="move" name="bottom"/>
    </contour>
    <contour>
      <point x="579" y="1119" type="move" name="top"/>
    </contour>
  </outline>
</glyph>
<glyph name="z" format="1">
  <advance width="999"/>
  <unicode hex="007A"/>
  <outline>
    <contour>
      <point x="944" y="236" type="line"/>
      <point x="944" y="0" type="line"/>
      <point x="55" y="0" type="line"/>
      <point x="55" y="175" type="line"/>
      <point x="577" y="883" type="line"/>
      <point x="88" y="883" type="line"/>
      <point x="88" y="1119" type="line"/>
      <point x="928" y="1119" type="line"/>
      <point x="928" y="931" type="line"/>
      <point x="419" y="236" type="line"/>
    </contour>
    <contour>
      <point x="501" y="0" type="move" name="bottom"/>
    </contour>
    <contour>
      <point x="501" y="1119" type="move" name="top"/>
    </contour>
  </outline>
</glyph>
<glyph name="braceleft" format="1">
  <advance width="807"/>
  <unicode hex="007B"/>
  <note>
braceleft
</note>
  <outline>
    <contour>
      <point x="740" y="-338" type="line"/>
      <point x="566.75" y="-338.0"/>
      <point x="367.75" y="-277.25"/>
      <point x="322.0" y="-212.0" type="qcurve" smooth="yes"/>
      <point x="272.0" y="-142.88235294117646"/>
      <point x="272" y="-5" type="qcurve" smooth="yes"/>
      <point x="272.0" y="269.0" type="line" smooth="yes"/>
      <point x="272.0" y="307.25"/>
      <point x="245.75" y="368.25"/>
      <point x="221.0" y="390.0" type="qcurve"/>
      <point x="190.25" y="420.0"/>
      <point x="94.0" y="450.25"/>
      <point x="31" y="451" type="qcurve"/>
      <point x="31.0" y="686.0" type="line"/>
      <point x="109.0" y="686.0"/>
      <point x="217.0" y="727.25"/>
      <point x="244.0" y="767.0" type="qcurve" smooth="yes"/>
      <point x="272.0" y="805.3157894736842"/>
      <point x="272" y="864" type="qcurve" smooth="yes"/>
      <point x="272.0" y="1147.0" type="line" smooth="yes"/>
      <point x="272.0" y="1268.5"/>
      <point x="356.25" y="1401.25"/>
      <point x="450.0" y="1435.0" type="qcurve" smooth="yes"/>
      <point x="501.75" y="1455.25"/>
      <point x="647.0" y="1476.25"/>
      <point x="740" y="1477" type="qcurve"/>
      <point x="740.0" y="1254.0" type="line"/>
      <point x="652.5063829787234" y="1250.9829787234044"/>
      <point x="615.0" y="1238.0" type="qcurve" smooth="yes"/>
      <point x="573.0" y="1223.75"/>
      <point x="528.0" y="1164.75"/>
      <point x="528" y="1116" type="qcurve" smooth="yes"/>
      <point x="528.0" y="834.0" type="line" smooth="yes"/>
      <point x="528.0" y="716.25"/>
      <point x="422.75" y="593.5"/>
      <point x="305" y="574" type="qcurve"/>
      <point x="305.0" y="564.0" type="line"/>
      <point x="423.5" y="543.75"/>
      <point x="528.0" y="422.5"/>
      <point x="528" y="310" type="qcurve" smooth="yes"/>
      <point x="528.0" y="21.0" type="line" smooth="yes"/>
      <point x="528.0" y="-30.0"/>
      <point x="578.0" y="-89.25"/>
      <point x="626.0" y="-102.0" type="qcurve" smooth="yes"/>
      <point x="665.3333333333334" y="-113.01333333333334"/>
      <point x="740" y="-116" type="qcurve"/>
    </contour>
  </outline>
</glyph>
<glyph name="braceright" format="1">
  <advance width="807"/>
  <unicode hex="007D"/>
  <note>
braceright
</note>
  <outline>
    <contour>
      <point x="82" y="-338" type="qcurve"/>
      <point x="82.0" y="-116.0" type="line"/>
      <point x="189.69249201277955" y="-113.04952076677316"/>
      <point x="238.0" y="-85.0" type="qcurve" smooth="yes"/>
      <point x="293.0" y="-52.2972972972973"/>
      <point x="293" y="21" type="qcurve" smooth="yes"/>
      <point x="293.0" y="310.0" type="line" smooth="yes"/>
      <point x="293.0" y="422.5"/>
      <point x="398.5" y="543.75"/>
      <point x="517" y="564" type="qcurve"/>
      <point x="517.0" y="574.0" type="line"/>
      <point x="399.25" y="592.75"/>
      <point x="293.0" y="715.5"/>
      <point x="293" y="834" type="qcurve" smooth="yes"/>
      <point x="293.0" y="1116.0" type="line" smooth="yes"/>
      <point x="293.0" y="1164.75"/>
      <point x="248.5" y="1223.75"/>
      <point x="208.0" y="1238.0" type="qcurve" smooth="yes"/>
      <point x="170.4384133611691" y="1251.0020876826723"/>
      <point x="82" y="1254" type="qcurve"/>
      <point x="82.0" y="1477.0" type="line"/>
      <point x="243.25" y="1477.0"/>
      <point x="435.0" y="1422.75"/>
      <point x="483.0" y="1365.0" type="qcurve" smooth="yes"/>
      <point x="516.0" y="1329.0"/>
      <point x="550.0" y="1220.5"/>
      <point x="550" y="1147" type="qcurve" smooth="yes"/>
      <point x="550.0" y="864.0" type="line" smooth="yes"/>
      <point x="550.0" y="834.0"/>
      <point x="565.25" y="783.25"/>
      <point x="581.0" y="763.0" type="qcurve" smooth="yes"/>
      <point x="609.5" y="724.75"/>
      <point x="714.25" y="686.0"/>
      <point x="790" y="686" type="qcurve"/>
      <point x="790.0" y="451.0" type="line"/>
      <point x="721.0" y="450.25"/>
      <point x="619.75" y="414.5"/>
      <point x="589.0" y="380.0" type="qcurve" smooth="yes"/>
      <point x="550.0" y="336.32"/>
      <point x="550" y="269" type="qcurve" smooth="yes"/>
      <point x="550.0" y="-5.0" type="line" smooth="yes"/>
      <point x="550.0" y="-129.5"/>
      <point x="467.0" y="-263.25"/>
      <point x="374.0" y="-297.0" type="qcurve" smooth="yes"/>
      <point x="323.0" y="-317.25"/>
      <point x="177.25" y="-338.0"/>
    </contour>
  </outline>
</glyph>
<glyph name="asciitilde" format="1">
  <advance width="1169"/>
  <unicode hex="007E"/>
  <note>
asciitilde
</note>
  <outline>
    <contour>
      <point x="88" y="556" type="qcurve"/>
      <point x="88.0" y="781.0" type="line"/>
      <point x="140.5" y="835.0"/>
      <point x="267.75" y="889.0"/>
      <point x="342.0" y="889.0" type="qcurve" smooth="yes"/>
      <point x="386.5" y="889.0"/>
      <point x="466.33333333333337" y="877.75"/>
      <point x="557.5" y="849.5"/>
      <point x="619.0" y="824.0" type="qcurve" smooth="yes"/>
      <point x="662.5" y="805.0"/>
      <point x="743.0" y="780.1666666666665"/>
      <point x="817.5" y="768.0"/>
      <point x="852.0" y="768.0" type="qcurve" smooth="yes"/>
      <point x="903.75" y="768.0"/>
      <point x="1023.25" y="830.75"/>
      <point x="1081" y="890" type="qcurve"/>
      <point x="1081.0" y="665.0" type="line"/>
      <point x="1030.0" y="611.75"/>
      <point x="903.25" y="554.0"/>
      <point x="826.0" y="554.0" type="qcurve" smooth="yes"/>
      <point x="759.25" y="554.0"/>
      <point x="631.5" y="586.5"/>
      <point x="549.0" y="621.0" type="qcurve" smooth="yes"/>
      <point x="484.5" y="648.75"/>
      <point x="369.0" y="676.0"/>
      <point x="318.0" y="676.0" type="qcurve" smooth="yes"/>
      <point x="264.75" y="676.0"/>
      <point x="148.0" y="616.0"/>
    </contour>
  </outline>
</glyph>
<glyph name="exclamdown" format="1">
  <advance width="586"/>
  <unicode hex="00A1"/>
  <note>
exclamdown
</note>
  <outline>
    <contour>
      <point x="117" y="-346" type="line"/>
      <point x="162" y="642" type="line"/>
      <point x="411" y="642" type="line"/>
      <point x="455" y="-346" type="line"/>
    </contour>
    <contour>
      <point x="287.0" y="812.0" type="qcurve" smooth="yes"/>
      <point x="205.25" y="812.0"/>
      <point x="118.0" y="896.75"/>
      <point x="118.0" y="977.0" type="qcurve" smooth="yes"/>
      <point x="118.0" y="1055.0"/>
      <point x="206.0" y="1139.0"/>
      <point x="287.0" y="1139.0" type="qcurve" smooth="yes"/>
      <point x="370.25" y="1139.0"/>
      <point x="459.0" y="1054.25"/>
      <point x="459.0" y="977.0" type="qcurve" smooth="yes"/>
      <point x="459.0" y="897.5"/>
      <point x="370.25" y="812.0"/>
    </contour>
  </outline>
</glyph>
<glyph name="cent" format="1">
  <advance width="1169"/>
  <unicode hex="00A2"/>
  <note>
cent
</note>
  <outline>
    <contour>
      <point x="565" y="-20" type="line"/>
      <point x="565.0" y="173.0" type="line"/>
      <point x="361.0" y="203.75"/>
      <point x="143.0" y="494.25"/>
      <point x="143.0" y="741.0" type="qcurve" smooth="yes"/>
      <point x="143.0" y="978.75"/>
      <point x="362.5" y="1276.0"/>
      <point x="565" y="1315" type="qcurve"/>
      <point x="565" y="1483" type="line"/>
      <point x="735" y="1483" type="line"/>
      <point x="735" y="1180" type="line"/>
      <point x="629" y="1324" type="line"/>
      <point x="706.0" y="1327.0" type="line" smooth="yes"/>
      <point x="881.9215686274509" y="1327.0"/>
      <point x="1048" y="1250" type="qcurve"/>
      <point x="958.0" y="1023.0" type="line"/>
      <point x="888.25" y="1052.25"/>
      <point x="769.5" y="1086.0"/>
      <point x="708.0" y="1086.0" type="qcurve" smooth="yes"/>
      <point x="611.0540540540541" y="1086.0"/>
      <point x="549.0" y="1030.0" type="qcurve" smooth="yes"/>
      <point x="501.75" y="988.0"/>
      <point x="452.0" y="843.5"/>
      <point x="452.0" y="743.0" type="qcurve" smooth="yes"/>
      <point x="452.0" y="650.0"/>
      <point x="495.25" y="514.5"/>
      <point x="538.0" y="474.0" type="qcurve" smooth="yes"/>
      <point x="599.5" y="411.0"/>
      <point x="707.0" y="411.0" type="qcurve" smooth="yes"/>
      <point x="786.5" y="411.0"/>
      <point x="942.25" y="453.75"/>
      <point x="1018" y="498" type="qcurve"/>
      <point x="1018.0" y="253.0" type="line"/>
      <point x="944.5" y="207.25"/>
      <point x="774.75" y="164.0"/>
      <point x="678" y="164" type="qcurve" smooth="yes"/>
      <point x="626" y="165" type="line"/>
      <point x="735" y="313" type="line"/>
      <point x="735" y="-20" type="line"/>
    </contour>
  </outline>
</glyph>
<glyph name="currency" format="1">
  <advance width="1169"/>
  <unicode hex="00A4"/>
  <note>
currency
</note>
  <outline>
    <contour>
      <point x="910" y="255" type="line"/>
      <point x="785.0" y="381.0" type="line"/>
      <point x="689.6486486486486" y="325.0"/>
      <point x="583.0" y="325.0" type="qcurve" smooth="yes"/>
      <point x="467.5" y="325.0"/>
      <point x="382" y="379" type="qcurve"/>
      <point x="257" y="256" type="line"/>
      <point x="115" y="399" type="line"/>
      <point x="242.0" y="524.0" type="line"/>
      <point x="187.0" y="615.6666666666666"/>
      <point x="187.0" y="723.0" type="qcurve" smooth="yes"/>
      <point x="187.0" y="827.75"/>
      <point x="242" y="924" type="qcurve"/>
      <point x="113" y="1049" type="line"/>
      <point x="257" y="1195" type="line"/>
      <point x="385.0" y="1066.0" type="line"/>
      <point x="474.2972972972973" y="1122.0"/>
      <point x="583.0" y="1122.0" type="qcurve" smooth="yes"/>
      <point x="695.025" y="1122.0"/>
      <point x="785" y="1063" type="qcurve"/>
      <point x="910" y="1195" type="line"/>
      <point x="1057" y="1055" type="line"/>
      <point x="926.0" y="925.0" type="line"/>
      <point x="982.0" y="837.2162162162163"/>
      <point x="982.0" y="723.0" type="qcurve" smooth="yes"/>
      <point x="982.0" y="613.8108108108108"/>
      <point x="926" y="523" type="qcurve"/>
      <point x="1053" y="397" type="line"/>
    </contour>
    <contour>
      <point x="583.0" y="530.0" type="qcurve" smooth="yes"/>
      <point x="637.0" y="530.0"/>
      <point x="726.0" y="581.0833333333333"/>
      <point x="779.0" y="668.5"/>
      <point x="779.0" y="723.0" type="qcurve" smooth="yes"/>
      <point x="779.0" y="777.0"/>
      <point x="725.5833333333333" y="865.5"/>
      <point x="636.5" y="918.0"/>
      <point x="583.0" y="918.0" type="qcurve" smooth="yes"/>
      <point x="530.0" y="918.0"/>
      <point x="442.83333333333326" y="865.0833333333333"/>
      <point x="391.0" y="776.5"/>
      <point x="391.0" y="723.0" type="qcurve" smooth="yes"/>
      <point x="391.0" y="669.5"/>
      <point x="443.25" y="581.9166666666666"/>
      <point x="530.5" y="530.0"/>
    </contour>
  </outline>
</glyph>
<glyph name="yen" format="1">
  <advance width="1169"/>
  <unicode hex="00A5"/>
  <note>
yen
</note>
  <outline>
    <contour>
      <point x="439" y="0" type="line"/>
      <point x="439" y="241" type="line"/>
      <point x="166" y="241" type="line"/>
      <point x="166" y="411" type="line"/>
      <point x="439" y="411" type="line"/>
      <point x="439" y="555" type="line"/>
      <point x="166" y="555" type="line"/>
      <point x="166" y="727" type="line"/>
      <point x="382" y="727" type="line"/>
      <point x="6" y="1462" type="line"/>
      <point x="321" y="1462" type="line"/>
      <point x="583" y="870" type="line"/>
      <point x="846" y="1462" type="line"/>
      <point x="1159" y="1462" type="line"/>
      <point x="775" y="727" type="line"/>
      <point x="996" y="727" type="line"/>
      <point x="996" y="555" type="line"/>
      <point x="725" y="555" type="line"/>
      <point x="725" y="411" type="line"/>
      <point x="996" y="411" type="line"/>
      <point x="996" y="241" type="line"/>
      <point x="725" y="241" type="line"/>
      <point x="725" y="0" type="line"/>
    </contour>
  </outline>
</glyph>
<glyph name="section" format="1">
  <advance width="995"/>
  <unicode hex="00A7"/>
  <note>
section
</note>
  <outline>
    <contour>
      <point x="456.0" y="-19.0" type="qcurve" smooth="yes"/>
      <point x="357.0" y="-19.0"/>
      <point x="186.25" y="20.75"/>
      <point x="109" y="62" type="qcurve"/>
      <point x="109.0" y="261.0" type="line"/>
      <point x="163.5" y="232.5"/>
      <point x="288.75" y="187.75"/>
      <point x="409.0" y="162.0"/>
      <point x="456.0" y="162.0" type="qcurve" smooth="yes"/>
      <point x="553.5" y="162.0"/>
      <point x="653.0" y="225.25"/>
      <point x="653.0" y="286.0" type="qcurve" smooth="yes"/>
      <point x="653.0" y="317.5"/>
      <point x="627.0" y="362.0"/>
      <point x="597.0" y="383.0" type="qcurve"/>
      <point x="576.75" y="398.75"/>
      <point x="500.0" y="437.75"/>
      <point x="443.0" y="461.0" type="qcurve" smooth="yes"/>
      <point x="380.0" y="488.0"/>
      <point x="286.75" y="535.5"/>
      <point x="253.0" y="558.0" type="qcurve" smooth="yes"/>
      <point x="209.5" y="586.5"/>
      <point x="154.25" y="642.5"/>
      <point x="137.0" y="674.0" type="qcurve" smooth="yes"/>
      <point x="106.0" y="728.6190476190476"/>
      <point x="106.0" y="806.0" type="qcurve" smooth="yes"/>
      <point x="106.0" y="875.75"/>
      <point x="196.0" y="1002.75"/>
      <point x="277.0" y="1047.0" type="qcurve"/>
      <point x="202.0" y="1097.25"/>
      <point x="129.0" y="1216.0"/>
      <point x="129.0" y="1291.0" type="qcurve" smooth="yes"/>
      <point x="129.0" y="1422.25"/>
      <point x="345.5" y="1572.0"/>
      <point x="527.0" y="1572.0" type="qcurve" smooth="yes"/>
      <point x="620.0" y="1572.0"/>
      <point x="799.75" y="1532.75"/>
      <point x="886" y="1493" type="qcurve"/>
      <point x="807.0" y="1314.0" type="line"/>
      <point x="755.0" y="1339.5"/>
      <point x="656.3333333333333" y="1374.25"/>
      <point x="565.0" y="1392.0"/>
      <point x="524.0" y="1392.0" type="qcurve" smooth="yes"/>
      <point x="446.0" y="1392.0"/>
      <point x="365.0" y="1339.75"/>
      <point x="365.0" y="1291.0" type="qcurve" smooth="yes"/>
      <point x="365.0" y="1262.0"/>
      <point x="396.66666666666663" y="1212.3333333333333"/>
      <point x="459.0" y="1168.0"/>
      <point x="505.0" y="1147.0" type="qcurve" smooth="yes"/>
      <point x="517.75" y="1141.0"/>
      <point x="553.75" y="1126.5"/>
      <point x="577.0" y="1119.0" type="qcurve"/>
      <point x="667.0" y="1084.5"/>
      <point x="793.5416666666666" y="1011.9635416666666"/>
      <point x="872.4583333333334" y="933.2864583333334"/>
      <point x="909.0" y="846.125"/>
      <point x="909.0" y="797.0" type="qcurve" smooth="yes"/>
      <point x="909.0" y="716.75"/>
      <point x="836.0" y="591.0"/>
      <point x="749.0" y="534.0" type="qcurve"/>
      <point x="818.75" y="488.25"/>
      <point x="888.0" y="370.5"/>
      <point x="888.0" y="294.0" type="qcurve" smooth="yes"/>
      <point x="888.0" y="148.5"/>
      <point x="657.75" y="-19.0"/>
    </contour>
    <contour>
      <point x="595.0" y="616.0" type="qcurve"/>
      <point x="634.0" y="644.5"/>
      <point x="675.0" y="716.25"/>
      <point x="675.0" y="756.0" type="qcurve" smooth="yes"/>
      <point x="675.0" y="798.75"/>
      <point x="636.0" y="862.5"/>
      <point x="591.0" y="891.0" type="qcurve" smooth="yes"/>
      <point x="564.0" y="909.0"/>
      <point x="486.5" y="945.5"/>
      <point x="434.0" y="965.0" type="qcurve"/>
      <point x="389.75" y="947.0"/>
      <point x="340.0" y="877.5"/>
      <point x="340.0" y="831.0" type="qcurve" smooth="yes"/>
      <point x="340.0" y="793.5"/>
      <point x="374.5" y="738.75"/>
      <point x="412.0" y="714.0" type="qcurve"/>
      <point x="438.25" y="694.5"/>
      <point x="529.75" y="645.25"/>
    </contour>
  </outline>
</glyph>
<glyph name="ordfeminine" format="1">
  <advance width="784"/>
  <unicode hex="00AA"/>
  <note>
ordfeminine
</note>
  <outline>
    <contour>
      <point x="276.0" y="751.0" type="qcurve" smooth="yes"/>
      <point x="167.25" y="751.0"/>
      <point x="47.0" y="869.0"/>
      <point x="47.0" y="974.0" type="qcurve" smooth="yes"/>
      <point x="47.0" y="1085.75"/>
      <point x="204.0" y="1192.75"/>
      <point x="384" y="1201" type="qcurve" smooth="yes"/>
      <point x="474" y="1205" type="line"/>
      <point x="474.0" y="1223.0" type="line" smooth="yes"/>
      <point x="474.0" y="1275.5"/>
      <point x="414.75" y="1321.0"/>
      <point x="357.0" y="1321.0" type="qcurve" smooth="yes"/>
      <point x="306.75" y="1321.0"/>
      <point x="206.25" y="1292.75"/>
      <point x="153" y="1268" type="qcurve"/>
      <point x="90.0" y="1406.0" type="line"/>
      <point x="171.75" y="1445.75"/>
      <point x="312.25" y="1479.0"/>
      <point x="382.0" y="1479.0" type="qcurve" smooth="yes"/>
      <point x="533.5" y="1479.0"/>
      <point x="676.0" y="1341.0"/>
      <point x="676" y="1212" type="qcurve" smooth="yes"/>
      <point x="676" y="763" type="line"/>
      <point x="542" y="763" type="line"/>
      <point x="504" y="873" type="line"/>
      <point x="502.0" y="873.0" type="line"/>
      <point x="457.0" y="807.75"/>
      <point x="346.5" y="751.0"/>
    </contour>
    <contour>
      <point x="340.0" y="901.0" type="qcurve" smooth="yes"/>
      <point x="400.0" y="901.0"/>
      <point x="474.0" y="984.25"/>
      <point x="474" y="1054" type="qcurve" smooth="yes"/>
      <point x="474" y="1088" type="line"/>
      <point x="389.0" y="1082.0" type="line" smooth="yes"/>
      <point x="320.75" y="1078.25"/>
      <point x="250.0" y="1032.0"/>
      <point x="250.0" y="984.0" type="qcurve" smooth="yes"/>
      <point x="250.0" y="944.25"/>
      <point x="296.5" y="901.0"/>
    </contour>
  </outline>
</glyph>
<glyph name="registered" format="1">
  <advance width="1704"/>
  <unicode hex="00AE"/>
  <note>
registered
</note>
  <outline>
    <contour>
      <point x="852.0" y="-20.0" type="qcurve" smooth="yes"/>
      <point x="714.0" y="-20.0"/>
      <point x="464.16666666666663" y="73.75"/>
      <point x="263.0" y="244.5"/>
      <point x="198.0" y="360.0" type="qcurve" smooth="yes"/>
      <point x="100.0" y="533.3846153846154"/>
      <point x="100.0" y="731.0" type="qcurve" smooth="yes"/>
      <point x="100.0" y="931.25"/>
      <point x="300.25" y="1280.75"/>
      <point x="475.0" y="1382.0" type="qcurve" smooth="yes"/>
      <point x="651.3731343283582" y="1483.0"/>
      <point x="852.0" y="1483.0" type="qcurve" smooth="yes"/>
      <point x="1050.75" y="1483.0"/>
      <point x="1397.5" y="1286.75"/>
      <point x="1501.0" y="1112.0" type="qcurve" smooth="yes"/>
      <point x="1604.0" y="934.7794117647059"/>
      <point x="1604.0" y="731.0" type="qcurve" smooth="yes"/>
      <point x="1604.0" y="529.25"/>
      <point x="1405.25" y="184.0"/>
      <point x="1232.0" y="82.0" type="qcurve" smooth="yes"/>
      <point x="1058.0" y="-20.0"/>
    </contour>
    <contour>
      <point x="852.0" y="122.0" type="qcurve" smooth="yes"/>
      <point x="1016.25" y="122.0"/>
      <point x="1297.5" y="285.0"/>
      <point x="1380.0" y="426.0" type="qcurve" smooth="yes"/>
      <point x="1462.0" y="566.1454545454545"/>
      <point x="1462.0" y="731.0" type="qcurve" smooth="yes"/>
      <point x="1462.0" y="893.0"/>
      <point x="1302.0" y="1174.75"/>
      <point x="1161.0" y="1258.0" type="qcurve" smooth="yes"/>
      <point x="1017.6363636363636" y="1341.0"/>
      <point x="852.0" y="1341.0" type="qcurve" smooth="yes"/>
      <point x="688.5" y="1341.0"/>
      <point x="406.75" y="1177.75"/>
      <point x="325.0" y="1036.0" type="qcurve" smooth="yes"/>
      <point x="243.0" y="895.8545454545455"/>
      <point x="243.0" y="731.0" type="qcurve" smooth="yes"/>
      <point x="243.0" y="566.75"/>
      <point x="407.75" y="284.0"/>
      <point x="548.0" y="203.0" type="qcurve" smooth="yes"/>
      <point x="689.0" y="122.0"/>
    </contour>
    <contour>
      <point x="543" y="306" type="line"/>
      <point x="543" y="1183" type="line"/>
      <point x="810.0" y="1183.0" type="line" smooth="yes"/>
      <point x="1185.0" y="1183.0"/>
      <point x="1185.0" y="918.0" type="qcurve" smooth="yes"/>
      <point x="1185.0" y="747.8181818181819"/>
      <point x="1041" y="678" type="qcurve"/>
      <point x="1248" y="306" type="line"/>
      <point x="1009" y="306" type="line"/>
      <point x="844" y="638" type="line"/>
      <point x="769" y="638" type="line"/>
      <point x="769" y="306" type="line"/>
    </contour>
    <contour>
      <point x="769" y="786" type="line"/>
      <point x="810.0" y="786.0" type="line" smooth="yes"/>
      <point x="877.5" y="786.0"/>
      <point x="956.0" y="843.75"/>
      <point x="956.0" y="909.0" type="qcurve" smooth="yes"/>
      <point x="956.0" y="967.5"/>
      <point x="888.25" y="1021.0"/>
      <point x="811" y="1021" type="qcurve" smooth="yes"/>
      <point x="769" y="1021" type="line"/>
    </contour>
  </outline>
</glyph>
<glyph name="degree" format="1">
  <advance width="877"/>
  <unicode hex="00B0"/>
  <note>
degree
</note>
  <outline>
    <contour>
      <point x="440.0" y="791.0" type="qcurve" smooth="yes"/>
      <point x="343.0" y="791.0"/>
      <point x="185.16666666666669" y="881.75"/>
      <point x="92.0" y="1037.5"/>
      <point x="92.0" y="1135.0" type="qcurve" smooth="yes"/>
      <point x="92.0" y="1232.0"/>
      <point x="185.58333333333334" y="1389.8333333333335"/>
      <point x="343.5" y="1483.0"/>
      <point x="440.0" y="1483.0" type="qcurve" smooth="yes"/>
      <point x="536.0" y="1483.0"/>
      <point x="694.0" y="1390.25"/>
      <point x="788.0" y="1232.5"/>
      <point x="788.0" y="1135.0" type="qcurve" smooth="yes"/>
      <point x="788.0" y="1038.0"/>
      <point x="694.0" y="882.1666666666665"/>
      <point x="536.0" y="791.0"/>
    </contour>
    <contour>
      <point x="440.0" y="981.0" type="qcurve" smooth="yes"/>
      <point x="503.75" y="981.0"/>
      <point x="594.0" y="1072.75"/>
      <point x="594.0" y="1135.0" type="qcurve" smooth="yes"/>
      <point x="594.0" y="1198.75"/>
      <point x="506.0" y="1293.0"/>
      <point x="440.0" y="1293.0" type="qcurve" smooth="yes"/>
      <point x="373.25" y="1293.0"/>
      <point x="285.0" y="1198.0"/>
      <point x="285.0" y="1135.0" type="qcurve" smooth="yes"/>
      <point x="285.0" y="1072.75"/>
      <point x="376.25" y="981.0"/>
    </contour>
  </outline>
</glyph>
<glyph name="twosuperior" format="1">
  <advance width="776"/>
  <unicode hex="00B2"/>
  <note>
twosuperior
</note>
  <outline>
    <contour>
      <point x="50" y="586" type="line"/>
      <point x="50" y="754" type="line"/>
      <point x="273.0" y="974.0" type="line" smooth="yes"/>
      <point x="375.4114411441144" y="1074.905390539054"/>
      <point x="411.0" y="1129.0" type="qcurve" smooth="yes"/>
      <point x="443.0" y="1178.4545454545455"/>
      <point x="443.0" y="1223.0" type="qcurve" smooth="yes"/>
      <point x="443.0" y="1309.0"/>
      <point x="347.0" y="1309.0" type="qcurve" smooth="yes"/>
      <point x="257.37931034482756" y="1309.0"/>
      <point x="161" y="1223" type="qcurve"/>
      <point x="47.0" y="1359.0" type="line"/>
      <point x="121.25" y="1425.75"/>
      <point x="283.75" y="1484.0"/>
      <point x="388.0" y="1484.0" type="qcurve" smooth="yes"/>
      <point x="524.5" y="1484.0"/>
      <point x="675.0" y="1357.75"/>
      <point x="675.0" y="1246.0" type="qcurve" smooth="yes"/>
      <point x="675.0" y="1160.388888888889"/>
      <point x="622.0" y="1075.0" type="qcurve" smooth="yes"/>
      <point x="607.75" y="1053.25"/>
      <point x="571.5" y="1007.25"/>
      <point x="549.0" y="984.0" type="qcurve" smooth="yes"/>
      <point x="506.9153605015674" y="939.1097178683385"/>
      <point x="318" y="770" type="qcurve"/>
      <point x="695" y="770" type="line"/>
      <point x="695" y="586" type="line"/>
    </contour>
  </outline>
</glyph>
<glyph name="threesuperior" format="1">
  <advance width="776"/>
  <unicode hex="00B3"/>
  <note>
threesuperior
</note>
  <outline>
    <contour>
      <point x="356.8" y="569.0" type="qcurve" smooth="yes"/>
      <point x="183.81002227171498" y="569.0"/>
      <point x="61.3" y="636" type="qcurve"/>
      <point x="61.3" y="825.5" type="line"/>
      <point x="184.39520958083818" y="750.2"/>
      <point x="349.0" y="750.2" type="qcurve" smooth="yes"/>
      <point x="423.84999999999997" y="750.2"/>
      <point x="500.4" y="802.875"/>
      <point x="500.4" y="852.6" type="qcurve" smooth="yes"/>
      <point x="500.4" y="906.45"/>
      <point x="419.09999999999997" y="951.3"/>
      <point x="334.5" y="951.3" type="qcurve" smooth="yes"/>
      <point x="222.4" y="951.3" type="line"/>
      <point x="222.4" y="1112.3" type="line"/>
      <point x="318.9" y="1112.3" type="line" smooth="yes"/>
      <point x="400.275" y="1112.3"/>
      <point x="479.5" y="1164.0500000000002"/>
      <point x="479.5" y="1216.1" type="qcurve" smooth="yes"/>
      <point x="479.5" y="1253.45"/>
      <point x="422.15" y="1308.1"/>
      <point x="362.9" y="1308.1" type="qcurve" smooth="yes"/>
      <point x="308.6" y="1308.1"/>
      <point x="210.45000000000005" y="1272.425"/>
      <point x="155.4" y="1232.9" type="qcurve"/>
      <point x="59.4" y="1372.9" type="line"/>
      <point x="130.95000000000002" y="1427.5000000000002"/>
      <point x="295.15" y="1481.6"/>
      <point x="387.4" y="1481.6" type="qcurve" smooth="yes"/>
      <point x="527.8" y="1481.6"/>
      <point x="692.3" y="1364.8500000000004"/>
      <point x="692.3" y="1264.2" type="qcurve" smooth="yes"/>
      <point x="692.3" y="1186.2"/>
      <point x="613.85" y="1077.975"/>
      <point x="530.6" y="1049.1" type="qcurve"/>
      <point x="530.6" y="1042.2" type="line"/>
      <point x="626.225" y="1018.8750000000001"/>
      <point x="720.1" y="914.575"/>
      <point x="720.1" y="828.7" type="qcurve" smooth="yes"/>
      <point x="720.1" y="705.775"/>
      <point x="529.975" y="569.0"/>
    </contour>
  </outline>
</glyph>
<glyph name="micro" format="1">
  <advance width="1352"/>
  <unicode hex="00B5"/>
  <note>
mu
</note>
  <outline>
    <contour>
      <point x="160" y="-492" type="line"/>
      <point x="160" y="1119" type="line"/>
      <point x="463" y="1119" type="line"/>
      <point x="463.0" y="477.0" type="line" smooth="yes"/>
      <point x="463.0" y="348.0"/>
      <point x="551.75" y="223.0"/>
      <point x="650.0" y="223.0" type="qcurve" smooth="yes"/>
      <point x="751.425" y="223.0"/>
      <point x="806.0" y="282.0" type="qcurve" smooth="yes"/>
      <point x="887.0" y="365.94545454545454"/>
      <point x="887" y="592" type="qcurve" smooth="yes"/>
      <point x="887" y="1119" type="line"/>
      <point x="1191" y="1119" type="line"/>
      <point x="1191" y="0" type="line"/>
      <point x="961" y="0" type="line"/>
      <point x="918" y="151" type="line"/>
      <point x="905.0" y="151.0" type="line"/>
      <point x="866.75" y="67.0"/>
      <point x="727.0" y="-20.0"/>
      <point x="646.0" y="-20.0" type="qcurve" smooth="yes"/>
      <point x="577.0" y="-20.0"/>
      <point x="488.25" y="24.75"/>
      <point x="453" y="72" type="qcurve"/>
      <point x="455.0" y="72.0" type="line"/>
      <point x="458.75" y="26.25"/>
      <point x="463.0" y="-81.0"/>
      <point x="463" y="-144" type="qcurve" smooth="yes"/>
      <point x="463" y="-492" type="line"/>
    </contour>
  </outline>
</glyph>
<glyph name="paragraph" format="1">
  <advance width="1341"/>
  <unicode hex="00B6"/>
  <note>
paragraph
</note>
  <outline>
    <contour>
      <point x="664" y="-260" type="line"/>
      <point x="664.0" y="559.0" type="line"/>
      <point x="607.0" y="541.0"/>
      <point x="533.0" y="541.0" type="qcurve" smooth="yes"/>
      <point x="425.0" y="541.0"/>
      <point x="266.625" y="603.359375"/>
      <point x="163.375" y="728.390625"/>
      <point x="113.0" y="916.375"/>
      <point x="113.0" y="1042.0" type="qcurve" smooth="yes"/>
      <point x="113.0" y="1299.25"/>
      <point x="329.25" y="1556.0"/>
      <point x="564" y="1556" type="qcurve" smooth="yes"/>
      <point x="1170" y="1556" type="line"/>
      <point x="1170" y="-260" type="line"/>
      <point x="1006" y="-260" type="line"/>
      <point x="1006" y="1367" type="line"/>
      <point x="828" y="1367" type="line"/>
      <point x="828" y="-260" type="line"/>
    </contour>
  </outline>
</glyph>
<glyph name="onesuperior" format="1">
  <advance width="776"/>
  <unicode hex="00B9"/>
  <note>
onesuperior
</note>
  <outline>
    <contour>
      <point x="366" y="586" type="line"/>
      <point x="366.0" y="999.0" type="line" smooth="yes"/>
      <point x="366.0" y="1025.5"/>
      <point x="369.0" y="1115.0"/>
      <point x="374.0" y="1200.5"/>
      <point x="377.0" y="1221.0" type="qcurve"/>
      <point x="371.75" y="1212.75"/>
      <point x="353.5" y="1193.0"/>
      <point x="340.0" y="1181.0" type="qcurve" smooth="yes"/>
      <point x="322.75" y="1166.75"/>
      <point x="256.75" y="1115.75"/>
      <point x="208" y="1079" type="qcurve"/>
      <point x="92" y="1221" type="line"/>
      <point x="412" y="1462" type="line"/>
      <point x="593" y="1462" type="line"/>
      <point x="593" y="586" type="line"/>
    </contour>
  </outline>
</glyph>
<glyph name="ordmasculine" format="1">
  <advance width="795"/>
  <unicode hex="00BA"/>
  <note>
ordmasculine
</note>
  <outline>
    <contour>
      <point x="732.0" y="1115.0" type="qcurve" smooth="yes"/>
      <point x="732.0" y="944.75"/>
      <point x="550.0" y="751.0"/>
      <point x="391.0" y="751.0" type="qcurve" smooth="yes"/>
      <point x="237.25" y="751.0"/>
      <point x="57.0" y="945.5"/>
      <point x="57.0" y="1115.0" type="qcurve" smooth="yes"/>
      <point x="57.0" y="1287.5"/>
      <point x="236.0" y="1479.0"/>
      <point x="395.0" y="1479.0" type="qcurve" smooth="yes"/>
      <point x="547.25" y="1479.0"/>
      <point x="732.0" y="1282.25"/>
    </contour>
    <contour>
      <point x="261.0" y="1115.0" type="qcurve" smooth="yes"/>
      <point x="261.0" y="1014.5"/>
      <point x="325.5" y="915.0"/>
      <point x="393.0" y="915.0" type="qcurve" smooth="yes"/>
      <point x="459.0" y="915.0"/>
      <point x="525.0" y="1015.25"/>
      <point x="525.0" y="1115.0" type="qcurve" smooth="yes"/>
      <point x="525.0" y="1215.5"/>
      <point x="460.5" y="1314.0"/>
      <point x="393.0" y="1314.0" type="qcurve" smooth="yes"/>
      <point x="325.5" y="1314.0"/>
      <point x="261.0" y="1215.5"/>
    </contour>
  </outline>
</glyph>
<glyph name="Eth" format="1">
  <advance width="1516"/>
  <unicode hex="00D0"/>
  <note>
Eth
</note>
  <outline>
    <contour>
      <point x="184" y="0" type="line"/>
      <point x="184" y="598" type="line"/>
      <point x="47" y="598" type="line"/>
      <point x="47" y="850" type="line"/>
      <point x="184" y="850" type="line"/>
      <point x="184" y="1462" type="line"/>
      <point x="656.0" y="1462.0" type="line" smooth="yes"/>
      <point x="890.5" y="1462.0"/>
      <point x="1215.9166666666665" y="1299.9166666666665"/>
      <point x="1385.0" y="985.5"/>
      <point x="1385.0" y="757.0" type="qcurve" smooth="yes"/>
      <point x="1385.0" y="390.25"/>
      <point x="987.5" y="0.0"/>
      <point x="620" y="0" type="qcurve" smooth="yes"/>
    </contour>
    <contour>
      <point x="491" y="254" type="line"/>
      <point x="625.0" y="254.0" type="line" smooth="yes"/>
      <point x="849.25" y="254.0"/>
      <point x="1065.0" y="497.75"/>
      <point x="1065.0" y="746.0" type="qcurve" smooth="yes"/>
      <point x="1065.0" y="980.75"/>
      <point x="858.25" y="1212.0"/>
      <point x="652" y="1212" type="qcurve" smooth="yes"/>
      <point x="491" y="1212" type="line"/>
      <point x="491" y="850" type="line"/>
      <point x="760" y="850" type="line"/>
      <point x="760" y="598" type="line"/>
      <point x="491" y="598" type="line"/>
    </contour>
  </outline>
</glyph>
<glyph name="Thorn" format="1">
  <advance width="1286"/>
  <unicode hex="00DE"/>
  <note>
Thorn
</note>
  <outline>
    <contour>
      <point x="184" y="0" type="line"/>
      <point x="184" y="1462" type="line"/>
      <point x="491" y="1462" type="line"/>
      <point x="491" y="1234" type="line"/>
      <point x="645.0" y="1234.0" type="line" smooth="yes"/>
      <point x="917.25" y="1234.0"/>
      <point x="1190.0" y="1001.0"/>
      <point x="1190.0" y="782.0" type="qcurve" smooth="yes"/>
      <point x="1190.0" y="546.5"/>
      <point x="901.5" y="292.0"/>
      <point x="636" y="292" type="qcurve" smooth="yes"/>
      <point x="491" y="292" type="line"/>
      <point x="491" y="0" type="line"/>
    </contour>
    <contour>
      <point x="491" y="544" type="line"/>
      <point x="601.0" y="544.0" type="line" smooth="yes"/>
      <point x="737.5" y="544.0"/>
      <point x="877.0" y="663.0"/>
      <point x="877.0" y="780.0" type="qcurve" smooth="yes"/>
      <point x="877.0" y="882.0"/>
      <point x="757.25" y="983.0"/>
      <point x="635" y="983" type="qcurve" smooth="yes"/>
      <point x="491" y="983" type="line"/>
    </contour>
    <contour>
      <point x="640" y="0" type="move" name="bottom"/>
    </contour>
    <contour>
      <point x="640" y="1462" type="move" name="top"/>
    </contour>
  </outline>
</glyph>
<glyph name="germandbls" format="1">
  <advance width="1456"/>
  <unicode hex="00DF"/>
  <note>
germandbls
</note>
  <outline>
    <contour>
      <point x="926.0" y="-20.0" type="qcurve" smooth="yes"/>
      <point x="824.75" y="-20.0"/>
      <point x="655.25" y="11.75"/>
      <point x="605" y="41" type="qcurve"/>
      <point x="605.0" y="277.0" type="line"/>
      <point x="659.0" y="244.75"/>
      <point x="824.0" y="195.0"/>
      <point x="893.0" y="195.0" type="qcurve" smooth="yes"/>
      <point x="968.0" y="195.0"/>
      <point x="1057.0" y="261.5"/>
      <point x="1057.0" y="323.0" type="qcurve" smooth="yes"/>
      <point x="1057.0" y="365.5"/>
      <point x="1008.1666666666665" y="429.0"/>
      <point x="924.0" y="484.5"/>
      <point x="871.0" y="515.0" type="qcurve" smooth="yes"/>
      <point x="790.0" y="560.5"/>
      <point x="691.5" y="640.0833333333333"/>
      <point x="647.0" y="726.0"/>
      <point x="647.0" y="781.0" type="qcurve" smooth="yes"/>
      <point x="647.0" y="853.75"/>
      <point x="717.25" y="950.75"/>
      <point x="787.0" y="1004.0" type="qcurve" smooth="yes"/>
      <point x="845.5" y="1048.25"/>
      <point x="926.0" y="1129.25"/>
      <point x="926.0" y="1187.0" type="qcurve" smooth="yes"/>
      <point x="926.0" y="1253.75"/>
      <point x="813.0" y="1331.0"/>
      <point x="711.0" y="1331.0" type="qcurve" smooth="yes"/>
      <point x="590.25" y="1331.0"/>
      <point x="463.0" y="1216.25"/>
      <point x="463" y="1106" type="qcurve" smooth="yes"/>
      <point x="463" y="0" type="line"/>
      <point x="160" y="0" type="line"/>
      <point x="160.0" y="1132.0" type="line" smooth="yes"/>
      <point x="160.0" y="1334.5"/>
      <point x="454.5" y="1567.0"/>
      <point x="720.0" y="1567.0" type="qcurve" smooth="yes"/>
      <point x="875.5" y="1567.0"/>
      <point x="1108.0833333333333" y="1485.0"/>
      <point x="1237.0" y="1331.0"/>
      <point x="1237.0" y="1223.0" type="qcurve" smooth="yes"/>
      <point x="1237.0" y="1157.0"/>
      <point x="1188.25" y="1055.5"/>
      <point x="1147.0" y="1012.0" type="qcurve" smooth="yes"/>
      <point x="1113.25" y="976.0"/>
      <point x="1049.25" y="920.75"/>
      <point x="1023.0" y="899.0" type="qcurve" smooth="yes"/>
      <point x="995.25" y="876.5"/>
      <point x="965.0" y="841.5"/>
      <point x="965.0" y="822.0" type="qcurve" smooth="yes"/>
      <point x="965.0" y="802.5"/>
      <point x="984.25" y="772.75"/>
      <point x="1003.0" y="757.0" type="qcurve" smooth="yes"/>
      <point x="1018.75" y="742.75"/>
      <point x="1065.75" y="712.5"/>
      <point x="1098.0" y="693.0" type="qcurve" smooth="yes"/>
      <point x="1197.75" y="631.5"/>
      <point x="1309.25" y="536.0"/>
      <point x="1337.0" y="485.0" type="qcurve" smooth="yes"/>
      <point x="1356.5" y="451.25"/>
      <point x="1373.0" y="374.25"/>
      <point x="1373.0" y="327.0" type="qcurve" smooth="yes"/>
      <point x="1373.0" y="149.25"/>
      <point x="1151.75" y="-20.0"/>
    </contour>
    <contour>
      <point x="728" y="0" type="move" name="bottom"/>
    </contour>
    <contour>
      <point x="728" y="1119" type="move" name="top"/>
    </contour>
  </outline>
</glyph>
<glyph name="eth" format="1">
  <advance width="1268"/>
  <unicode hex="00F0"/>
  <note>
eth
</note>
  <outline>
    <contour>
      <point x="624.0" y="-20.0" type="qcurve" smooth="yes"/>
      <point x="460.5" y="-20.0"/>
      <point x="221.74999999999994" y="102.91666666666666"/>
      <point x="92.0" y="331.5"/>
      <point x="92.0" y="490.0" type="qcurve" smooth="yes"/>
      <point x="92.0" y="647.0"/>
      <point x="209.16666666666666" y="874.3333333333333"/>
      <point x="423.0" y="997.0"/>
      <point x="568.0" y="997.0" type="qcurve" smooth="yes"/>
      <point x="667.0" y="997.0"/>
      <point x="800.0" y="948.0"/>
      <point x="839" y="900" type="qcurve"/>
      <point x="846.0" y="903.0" type="line"/>
      <point x="780.0117878192534" y="1075.4691909269513"/>
      <point x="665" y="1186" type="qcurve"/>
      <point x="457" y="1055" type="line"/>
      <point x="360" y="1207" type="line"/>
      <point x="534.0" y="1315.0" type="line"/>
      <point x="495.0" y="1340.5"/>
      <point x="412.75" y="1391.25"/>
      <point x="370" y="1416" type="qcurve"/>
      <point x="459.0" y="1568.0" type="line"/>
      <point x="625.3325991189428" y="1495.4185022026431"/>
      <point x="719" y="1430" type="qcurve"/>
      <point x="933" y="1567" type="line"/>
      <point x="1028" y="1414" type="line"/>
      <point x="866.0" y="1310.0" type="line"/>
      <point x="1023.5" y="1155.5"/>
      <point x="1163.0" y="795.25"/>
      <point x="1163.0" y="574.0" type="qcurve" smooth="yes"/>
      <point x="1163.0" y="390.0"/>
      <point x="1033.5" y="123.66666666666667"/>
      <point x="792.0" y="-20.0"/>
    </contour>
    <contour>
      <point x="627.0" y="202.0" type="qcurve" smooth="yes"/>
      <point x="744.75" y="202.0"/>
      <point x="852.0" y="375.0"/>
      <point x="852.0" y="549.0" type="qcurve" smooth="yes"/>
      <point x="852.0" y="651.75"/>
      <point x="730.75" y="774.0"/>
      <point x="628.0" y="774.0" type="qcurve" smooth="yes"/>
      <point x="508.0" y="774.0"/>
      <point x="404.0" y="634.5"/>
      <point x="404.0" y="489.0" type="qcurve" smooth="yes"/>
      <point x="404.0" y="348.75"/>
      <point x="517.5" y="202.0"/>
    </contour>
  </outline>
</glyph>
<glyph name="oslash" format="1">
  <advance width="1268"/>
  <unicode hex="00F8"/>
  <note>
oslash
</note>
  <outline>
    <contour>
      <point x="317" y="-92" type="line"/>
      <point x="177" y="0" type="line"/>
      <point x="260.0" y="122.0" type="line"/>
      <point x="176.0" y="200.0"/>
      <point x="92.0" y="420.25"/>
      <point x="92.0" y="562.0" type="qcurve" smooth="yes"/>
      <point x="92.0" y="744.5"/>
      <point x="225.58333333333334" y="1002.5833333333334"/>
      <point x="477.49999999999994" y="1139.0"/>
      <point x="655.0" y="1139.0" type="qcurve" smooth="yes"/>
      <point x="725.5" y="1139.0"/>
      <point x="853.0" y="1110.25"/>
      <point x="910" y="1081" type="qcurve"/>
      <point x="988" y="1196" type="line"/>
      <point x="1128" y="1106" type="line"/>
      <point x="1050.0" y="992.0" type="line"/>
      <point x="1212.0" y="837.5"/>
      <point x="1212.0" y="562.0" type="qcurve" smooth="yes"/>
      <point x="1212.0" y="286.0"/>
      <point x="915.25" y="-20.0"/>
      <point x="649.0" y="-20.0" type="qcurve" smooth="yes"/>
      <point x="511.0285714285714" y="-20.0"/>
      <point x="402" y="33" type="qcurve"/>
    </contour>
    <contour>
      <point x="653.0" y="196.0" type="qcurve" smooth="yes"/>
      <point x="787.25" y="196.0"/>
      <point x="918.0" y="373.0"/>
      <point x="918.0" y="562.0" type="qcurve" smooth="yes"/>
      <point x="918.0" y="620.5"/>
      <point x="904.25" y="712.25"/>
      <point x="890" y="746" type="qcurve"/>
      <point x="529.0" y="226.0" type="line"/>
      <point x="552.25" y="211.0"/>
      <point x="614.0" y="196.0"/>
    </contour>
    <contour>
      <point x="417" y="362" type="qcurve"/>
      <point x="783.0" y="887.0" type="line"/>
      <point x="755.25" y="905.75"/>
      <point x="690.0" y="924.0"/>
      <point x="651.0" y="924.0" type="qcurve" smooth="yes"/>
      <point x="562.0" y="924.0"/>
      <point x="444.3333333333333" y="845.0833333333333"/>
      <point x="386.0" y="684.5"/>
      <point x="386.0" y="562.0" type="qcurve" smooth="yes"/>
      <point x="386.0" y="497.5"/>
      <point x="401.25" y="397.25"/>
    </contour>
    <contour>
      <point x="653" y="1119" type="move" name="top"/>
    </contour>
  </outline>
</glyph>
<glyph name="thorn" format="1">
  <advance width="1296"/>
  <unicode hex="00FE"/>
  <note>
thorn
</note>
  <outline>
    <contour>
      <point x="160" y="-492" type="line"/>
      <point x="160" y="1556" type="line"/>
      <point x="463" y="1556" type="line"/>
      <point x="463.0" y="1198.0" type="line" smooth="yes"/>
      <point x="463.0" y="1142.5"/>
      <point x="455.75" y="1026.0"/>
      <point x="449" y="966" type="qcurve"/>
      <point x="463.0" y="966.0" type="line"/>
      <point x="510.25" y="1049.25"/>
      <point x="677.0" y="1139.0"/>
      <point x="785.0" y="1139.0" type="qcurve" smooth="yes"/>
      <point x="980.0" y="1139.0"/>
      <point x="1201.0" y="837.0"/>
      <point x="1201.0" y="561.0" type="qcurve" smooth="yes"/>
      <point x="1201.0" y="381.0"/>
      <point x="1097.5" y="120.49999999999999"/>
      <point x="906.0" y="-20.0"/>
      <point x="774.0" y="-20.0" type="qcurve" smooth="yes"/>
      <point x="676.5" y="-20.0"/>
      <point x="520.75" y="53.5"/>
      <point x="463" y="127" type="qcurve"/>
      <point x="452.0" y="127.0" type="line"/>
      <point x="455.5" y="86.0"/>
      <point x="460.41666666666663" y="19.0"/>
      <point x="463.0" y="-34.0"/>
      <point x="463" y="-54" type="qcurve" smooth="yes"/>
      <point x="463" y="-492" type="line"/>
    </contour>
    <contour>
      <point x="686.0" y="227.0" type="qcurve" smooth="yes"/>
      <point x="757.0" y="227.0"/>
      <point x="847.6666666666666" y="304.5833333333333"/>
      <point x="891.0" y="454.5"/>
      <point x="891.0" y="563.0" type="qcurve" smooth="yes"/>
      <point x="891.0" y="673.5"/>
      <point x="848.2499999999999" y="822.5833333333334"/>
      <point x="756.5" y="898.0"/>
      <point x="683.0" y="898.0" type="qcurve" smooth="yes"/>
      <point x="604.5" y="898.0"/>
      <point x="507.58333333333326" y="832.1666666666666"/>
      <point x="463.0" y="695.0"/>
      <point x="463" y="588" type="qcurve" smooth="yes"/>
      <point x="463.0" y="562.0" type="line" smooth="yes"/>
      <point x="463.0" y="442.5"/>
      <point x="509.91666666666663" y="294.9166666666667"/>
      <point x="608.5" y="227.0"/>
    </contour>
    <contour>
      <point x="655" y="0" type="move" name="bottom"/>
    </contour>
    <contour>
      <point x="655" y="1119" type="move" name="top"/>
    </contour>
  </outline>
</glyph>
<glyph name="hbar" format="1">
  <advance width="1346"/>
  <unicode hex="0127"/>
  <note>
hbar
</note>
  <outline>
    <contour>
      <point x="160" y="0" type="line"/>
      <point x="160" y="1199" type="line"/>
      <point x="4" y="1199" type="line"/>
      <point x="4" y="1392" type="line"/>
      <point x="160" y="1392" type="line"/>
      <point x="160" y="1556" type="line"/>
      <point x="463" y="1556" type="line"/>
      <point x="463" y="1392" type="line"/>
      <point x="768" y="1392" type="line"/>
      <point x="768" y="1199" type="line"/>
      <point x="462" y="1199" type="line"/>
      <point x="462.0" y="1097.0" type="line" smooth="yes"/>
      <point x="462.0" y="1073.0"/>
      <point x="458.5" y="996.5833333333333"/>
      <point x="453.0" y="918.5"/>
      <point x="450" y="892" type="qcurve"/>
      <point x="468.0" y="892.0" type="line"/>
      <point x="524.25" y="982.0"/>
      <point x="686.75" y="1060.0"/>
      <point x="800.0" y="1060.0" type="qcurve" smooth="yes"/>
      <point x="987.5" y="1060.0"/>
      <point x="1191.0" y="848.25"/>
      <point x="1191" y="651" type="qcurve" smooth="yes"/>
      <point x="1191" y="0" type="line"/>
      <point x="886" y="0" type="line"/>
      <point x="886.0" y="565.0" type="line" smooth="yes"/>
      <point x="886.0" y="693.25"/>
      <point x="796.75" y="818.0"/>
      <point x="706.0" y="818.0" type="qcurve" smooth="yes"/>
      <point x="604.8888888888889" y="818.0"/>
      <point x="550.0" y="766.0" type="qcurve" smooth="yes"/>
      <point x="505.0" y="724.0"/>
      <point x="463.0" y="567.0"/>
      <point x="463" y="447" type="qcurve" smooth="yes"/>
      <point x="463" y="0" type="line"/>
    </contour>
  </outline>
</glyph>
<glyph name="idotless" format="1">
  <advance width="625"/>
  <unicode hex="0131"/>
  <note>
dotlessi
</note>
  <outline>
    <contour>
      <point x="463" y="1119" type="line"/>
      <point x="463" y="0" type="line"/>
      <point x="160" y="0" type="line"/>
      <point x="160" y="1119" type="line"/>
    </contour>
    <contour>
      <point x="312" y="0" type="move" name="bottom"/>
    </contour>
    <contour>
      <point x="549" y="10" type="move" name="ogonek"/>
    </contour>
    <contour>
      <point x="311" y="1119" type="move" name="top"/>
    </contour>
  </outline>
</glyph>
<glyph name="kgreenlandic" format="1">
  <advance width="1270"/>
  <unicode hex="0138"/>
  <note>
kgreenlandic
</note>
  <outline>
    <contour>
      <point x="160" y="0" type="line"/>
      <point x="160" y="1119" type="line"/>
      <point x="465" y="1119" type="line"/>
      <point x="465.0" y="854.0" type="line" smooth="yes"/>
      <point x="465.0" y="790.25"/>
      <point x="460.5" y="660.5"/>
      <point x="456" y="593" type="qcurve"/>
      <point x="463.0" y="593.0" type="line"/>
      <point x="490.0" y="630.5"/>
      <point x="552.5" y="715.5"/>
      <point x="590" y="762" type="qcurve" smooth="yes"/>
      <point x="886" y="1119" type="line"/>
      <point x="1229" y="1119" type="line"/>
      <point x="817" y="633" type="line"/>
      <point x="1253" y="0" type="line"/>
      <point x="909" y="0" type="line"/>
      <point x="609" y="444" type="line"/>
      <point x="465" y="327" type="line"/>
      <point x="465" y="0" type="line"/>
    </contour>
    <contour>
      <point x="632" y="0" type="move" name="bottom"/>
    </contour>
    <contour>
      <point x="632" y="1119" type="move" name="top"/>
    </contour>
  </outline>
</glyph>
<glyph name="ldot" format="1">
  <advance width="877"/>
  <unicode hex="0140"/>
  <note>
ldot
</note>
  <outline>
    <contour>
      <point x="463" y="1556" type="line"/>
      <point x="463" y="0" type="line"/>
      <point x="160" y="0" type="line"/>
      <point x="160" y="1556" type="line"/>
    </contour>
    <contour>
      <point x="587.0" y="695.0" type="qcurve" smooth="yes"/>
      <point x="587.0" y="770.75"/>
      <point x="664.75" y="846.0"/>
      <point x="751.0" y="846.0" type="qcurve" smooth="yes"/>
      <point x="836.5" y="846.0"/>
      <point x="917.0" y="769.25"/>
      <point x="917.0" y="695.0" type="qcurve" smooth="yes"/>
      <point x="917.0" y="621.5"/>
      <point x="832.75" y="546.0"/>
      <point x="751.0" y="546.0" type="qcurve" smooth="yes"/>
      <point x="668.5" y="546.0"/>
      <point x="587.0" y="620.0"/>
    </contour>
  </outline>
</glyph>
<glyph name="Eng" format="1">
  <advance width="1665"/>
  <unicode hex="014A"/>
  <note>
Eng
</note>
  <outline>
    <contour>
      <point x="1009.0" y="-453.0" type="qcurve" smooth="yes"/>
      <point x="895.0" y="-453.0"/>
      <point x="807" y="-431" type="qcurve"/>
      <point x="807.0" y="-190.0" type="line"/>
      <point x="863.25" y="-201.25"/>
      <point x="931.75" y="-210.0"/>
      <point x="973.0" y="-210.0" type="qcurve" smooth="yes"/>
      <point x="1126.0" y="-210.0"/>
      <point x="1230.25" y="-45.75"/>
      <point x="1207" y="117" type="qcurve"/>
      <point x="1294" y="-114" type="line"/>
      <point x="450" y="1110" type="line"/>
      <point x="441.0" y="1110.0" type="line"/>
      <point x="450.0" y="1008.75"/>
      <point x="458.0" y="811.5"/>
      <point x="458" y="714" type="qcurve" smooth="yes"/>
      <point x="458" y="0" type="line"/>
      <point x="184" y="0" type="line"/>
      <point x="184" y="1462" type="line"/>
      <point x="547" y="1462" type="line"/>
      <point x="1207" y="507" type="line"/>
      <point x="1215.0" y="507.0" type="line"/>
      <point x="1207.5" y="615.0"/>
      <point x="1201.0" y="814.25"/>
      <point x="1201" y="905" type="qcurve" smooth="yes"/>
      <point x="1201" y="1462" type="line"/>
      <point x="1477" y="1462" type="line"/>
      <point x="1477.0" y="-6.0" type="line" smooth="yes"/>
      <point x="1477.0" y="-218.25"/>
      <point x="1230.25" y="-453.0"/>
    </contour>
  </outline>
</glyph>
<glyph name="eng" format="1">
  <advance width="1346"/>
  <unicode hex="014B"/>
  <note>
eng
</note>
  <outline>
    <contour>
      <point x="830.0" y="-492.0" type="qcurve" smooth="yes"/>
      <point x="786.5" y="-492.0"/>
      <point x="680.75" y="-477.5"/>
      <point x="641" y="-467" type="qcurve"/>
      <point x="641.0" y="-228.0" type="line"/>
      <point x="710.0" y="-246.0"/>
      <point x="762.0" y="-246.0" type="qcurve" smooth="yes"/>
      <point x="887.0" y="-246.0"/>
      <point x="887" y="-75" type="qcurve" smooth="yes"/>
      <point x="887.0" y="670.0" type="line" smooth="yes"/>
      <point x="887.0" y="898.0"/>
      <point x="703.0" y="898.0" type="qcurve" smooth="yes"/>
      <point x="580.0181818181818" y="898.0"/>
      <point x="524.0" y="819.0" type="qcurve" smooth="yes"/>
      <point x="463.0" y="733.3095238095239"/>
      <point x="463" y="527" type="qcurve" smooth="yes"/>
      <point x="463" y="0" type="line"/>
      <point x="160" y="0" type="line"/>
      <point x="160" y="1119" type="line"/>
      <point x="392" y="1119" type="line"/>
      <point x="432" y="976" type="line"/>
      <point x="451.0" y="976.0" type="line"/>
      <point x="502.75" y="1057.75"/>
      <point x="683.5" y="1139.0"/>
      <point x="796.0" y="1139.0" type="qcurve" smooth="yes"/>
      <point x="986.5" y="1139.0"/>
      <point x="1191.0" y="925.5"/>
      <point x="1191" y="729" type="qcurve" smooth="yes"/>
      <point x="1191.0" y="-128.0" type="line" smooth="yes"/>
      <point x="1191.0" y="-299.75"/>
      <point x="1002.5" y="-492.0"/>
    </contour>
  </outline>
</glyph>
<glyph name="OE" format="1">
  <advance width="1993"/>
  <unicode hex="0152"/>
  <note>
OE
</note>
  <outline>
    <contour>
      <point x="784.0" y="-19.0" type="qcurve" smooth="yes"/>
      <point x="574.5" y="-19.0"/>
      <point x="276.91666666666663" y="161.33333333333331"/>
      <point x="119.0" y="498.99999999999994"/>
      <point x="119.0" y="735.0" type="qcurve" smooth="yes"/>
      <point x="119.0" y="1090.5"/>
      <point x="469.5" y="1483.0"/>
      <point x="786.0" y="1483.0" type="qcurve" smooth="yes"/>
      <point x="844.5" y="1483.0"/>
      <point x="979.25" y="1471.0"/>
      <point x="1016" y="1462" type="qcurve"/>
      <point x="1826" y="1462" type="line"/>
      <point x="1826" y="1212" type="line"/>
      <point x="1298" y="1212" type="line"/>
      <point x="1298" y="885" type="line"/>
      <point x="1788" y="885" type="line"/>
      <point x="1788" y="635" type="line"/>
      <point x="1298" y="635" type="line"/>
      <point x="1298" y="254" type="line"/>
      <point x="1826" y="254" type="line"/>
      <point x="1826" y="0" type="line"/>
      <point x="1008.0" y="0.0" type="line"/>
      <point x="972.75" y="-8.25"/>
      <point x="839.5" y="-19.0"/>
    </contour>
    <contour>
      <point x="786.0" y="240.0" type="qcurve" smooth="yes"/>
      <point x="916.5" y="240.0"/>
      <point x="990" y="276" type="qcurve"/>
      <point x="990.0" y="1188.0" type="line"/>
      <point x="957.0" y="1206.75"/>
      <point x="848.0" y="1227.0"/>
      <point x="788.0" y="1227.0" type="qcurve" smooth="yes"/>
      <point x="621.5" y="1227.0"/>
      <point x="444.0" y="973.0"/>
      <point x="444.0" y="733.0" type="qcurve" smooth="yes"/>
      <point x="444.0" y="495.25"/>
      <point x="618.75" y="240.0"/>
    </contour>
    <contour>
      <point x="970" y="0" type="move" name="bottom"/>
    </contour>
    <contour>
      <point x="970" y="1462" type="move" name="top"/>
    </contour>
  </outline>
</glyph>
<glyph name="oe" format="1">
  <advance width="2003"/>
  <unicode hex="0153"/>
  <note>
oe
</note>
  <outline>
    <contour>
      <point x="629.0" y="-20.0" type="qcurve" smooth="yes"/>
      <point x="462.5" y="-20.0"/>
      <point x="221.75" y="124.74999999999999"/>
      <point x="92.0" y="386.5"/>
      <point x="92.0" y="562.0" type="qcurve" smooth="yes"/>
      <point x="92.0" y="835.75"/>
      <point x="378.5" y="1139.0"/>
      <point x="635.0" y="1139.0" type="qcurve" smooth="yes"/>
      <point x="882.4" y="1139.0"/>
      <point x="1020.0" y="967.0" type="qcurve"/>
      <point x="1160.591304347826" y="1139.0"/>
      <point x="1420.0" y="1139.0" type="qcurve" smooth="yes"/>
      <point x="1636.75" y="1139.0"/>
      <point x="1888.0" y="869.0"/>
      <point x="1888" y="626" type="qcurve" smooth="yes"/>
      <point x="1888" y="482" type="line"/>
      <point x="1172.0" y="482.0" type="line"/>
      <point x="1175.0" y="350.0"/>
      <point x="1332.0" y="202.0"/>
      <point x="1467.0" y="202.0" type="qcurve" smooth="yes"/>
      <point x="1562.25" y="202.0"/>
      <point x="1732.5" y="239.25"/>
      <point x="1824" y="282" type="qcurve"/>
      <point x="1824.0" y="59.0" type="line"/>
      <point x="1731.75" y="14.0"/>
      <point x="1552.5" y="-20.0"/>
      <point x="1431.0" y="-20.0" type="qcurve" smooth="yes"/>
      <point x="1169.0344827586207" y="-20.0"/>
      <point x="1034.0" y="156.0" type="qcurve"/>
      <point x="962.75" y="69.75"/>
      <point x="762.5" y="-20.0"/>
    </contour>
    <contour>
      <point x="633.0" y="210.0" type="qcurve" smooth="yes"/>
      <point x="747.5901639344262" y="210.0"/>
      <point x="804.0" y="303.0" type="qcurve" smooth="yes"/>
      <point x="831.75" y="347.25"/>
      <point x="856.0" y="477.25"/>
      <point x="856.0" y="562.0" type="qcurve" smooth="yes"/>
      <point x="856.0" y="656.5"/>
      <point x="823.25" y="795.0"/>
      <point x="788.0" y="837.0" type="qcurve"/>
      <point x="734.3829787234042" y="909.0"/>
      <point x="631.0" y="909.0" type="qcurve" smooth="yes"/>
      <point x="527.5" y="909.0"/>
      <point x="472.0" y="840.0" type="qcurve" smooth="yes"/>
      <point x="402.0" y="753.2608695652174"/>
      <point x="402.0" y="562.0" type="qcurve" smooth="yes"/>
      <point x="402.0" y="472.75"/>
      <point x="435.5" y="325.5"/>
      <point x="473.0" y="279.0" type="qcurve" smooth="yes"/>
      <point x="531.0227272727273" y="210.0"/>
    </contour>
    <contour>
      <point x="1177" y="680" type="qcurve"/>
      <point x="1611.0" y="680.0" type="line"/>
      <point x="1609.5" y="794.0"/>
      <point x="1496.25" y="927.0"/>
      <point x="1404.0" y="927.0" type="qcurve" smooth="yes"/>
      <point x="1195.2962962962963" y="927.0"/>
    </contour>
    <contour>
      <point x="990" y="0" type="move" name="bottom"/>
    </contour>
    <contour>
      <point x="990" y="1119" type="move" name="top"/>
    </contour>
  </outline>
</glyph>
<glyph name="tbar" format="1">
  <advance width="889"/>
  <unicode hex="0167"/>
  <note>
tbar
</note>
  <outline>
    <contour>
      <point x="535.0" y="-20.0" type="qcurve" smooth="yes"/>
      <point x="353.5" y="-20.0"/>
      <point x="191.0" y="161.25"/>
      <point x="191" y="351" type="qcurve" smooth="yes"/>
      <point x="191" y="491" type="line"/>
      <point x="66" y="491" type="line"/>
      <point x="66" y="688" type="line"/>
      <point x="191" y="688" type="line"/>
      <point x="191" y="888" type="line"/>
      <point x="47" y="888" type="line"/>
      <point x="47" y="1017" type="line"/>
      <point x="217" y="1117" type="line"/>
      <point x="302" y="1357" type="line"/>
      <point x="497" y="1357" type="line"/>
      <point x="497" y="1119" type="line"/>
      <point x="809" y="1119" type="line"/>
      <point x="809" y="888" type="line"/>
      <point x="497" y="888" type="line"/>
      <point x="497" y="688" type="line"/>
      <point x="774" y="688" type="line"/>
      <point x="774" y="491" type="line"/>
      <point x="497" y="491" type="line"/>
      <point x="497.0" y="373.0" type="line" smooth="yes"/>
      <point x="497.0" y="291.25"/>
      <point x="562.25" y="223.0"/>
      <point x="626.0" y="223.0" type="qcurve" smooth="yes"/>
      <point x="680.0" y="223.0"/>
      <point x="771.0" y="241.75"/>
      <point x="828" y="259" type="qcurve"/>
      <point x="828.0" y="31.0" type="line"/>
      <point x="705.0" y="-20.0"/>
    </contour>
  </outline>
</glyph>
<glyph name="longs" format="1">
  <advance width="784"/>
  <unicode hex="017F"/>
  <note>
longs
</note>
  <outline>
    <contour>
      <point x="160" y="0" type="line"/>
      <point x="160.0" y="1155.0" type="line" smooth="yes"/>
      <point x="160.0" y="1305.0"/>
      <point x="237.58333333333331" y="1485.9999999999998"/>
      <point x="407.5" y="1567.0"/>
      <point x="546.0" y="1567.0" type="qcurve" smooth="yes"/>
      <point x="705.741935483871" y="1567.0"/>
      <point x="820" y="1521" type="qcurve"/>
      <point x="761.0" y="1313.0" type="line"/>
      <point x="724.0" y="1324.0"/>
      <point x="675.4166666666666" y="1337.6666666666665"/>
      <point x="632.5" y="1344.0"/>
      <point x="604.0" y="1344.0" type="qcurve" smooth="yes"/>
      <point x="559.75" y="1344.0"/>
      <point x="501.5" y="1316.5"/>
      <point x="485.0" y="1285.0" type="qcurve"/>
      <point x="474.5" y="1261.75"/>
      <point x="463.0" y="1197.0"/>
      <point x="463" y="1152" type="qcurve" smooth="yes"/>
      <point x="463" y="0" type="line"/>
    </contour>
    <contour>
      <point x="394" y="0" type="move" name="bottom"/>
    </contour>
    <contour>
      <point x="394" y="1119" type="move" name="top"/>
    </contour>
  </outline>
</glyph>
<glyph name="florin" format="1">
  <advance width="1169"/>
  <unicode hex="0192"/>
  <note>
florin
</note>
  <outline>
    <contour>
      <point x="390.0" y="-492.0" type="qcurve" smooth="yes"/>
      <point x="348.0" y="-492.0"/>
      <point x="236.75" y="-478.75"/>
      <point x="197" y="-466" type="qcurve"/>
      <point x="197.0" y="-228.0" type="line"/>
      <point x="264.5" y="-246.0"/>
      <point x="318.0" y="-246.0" type="qcurve" smooth="yes"/>
      <point x="377.25" y="-246.0"/>
      <point x="437.0" y="-163.5"/>
      <point x="437" y="-81" type="qcurve" smooth="yes"/>
      <point x="437" y="844" type="line"/>
      <point x="270" y="844" type="line"/>
      <point x="270" y="996" type="line"/>
      <point x="442" y="1075" type="line"/>
      <point x="442.0" y="1144.0" type="line" smooth="yes"/>
      <point x="442.0" y="1353.25"/>
      <point x="610.0" y="1542.0"/>
      <point x="799.0" y="1542.0" type="qcurve" smooth="yes"/>
      <point x="937.9677419354839" y="1542.0"/>
      <point x="1082" y="1495" type="qcurve"/>
      <point x="1021.0" y="1288.0" type="line"/>
      <point x="979.75" y="1301.5"/>
      <point x="906.75" y="1314.0"/>
      <point x="876.0" y="1314.0" type="qcurve" smooth="yes"/>
      <point x="841.5" y="1314.0"/>
      <point x="791.5" y="1295.25"/>
      <point x="775.0" y="1275.0" type="qcurve" smooth="yes"/>
      <point x="757.0" y="1252.5"/>
      <point x="740.0" y="1179.5"/>
      <point x="740" y="1127" type="qcurve" smooth="yes"/>
      <point x="740" y="1076" type="line"/>
      <point x="1003" y="1076" type="line"/>
      <point x="1003" y="844" type="line"/>
      <point x="740" y="844" type="line"/>
      <point x="740.0" y="-111.0" type="line" smooth="yes"/>
      <point x="740.0" y="-295.5"/>
      <point x="558.0" y="-492.0"/>
    </contour>
  </outline>
</glyph>
<glyph name="Ohorn" format="1">
  <advance width="1690"/>
  <unicode hex="01A0"/>
  <note>
Ohorn
</note>
  <outline>
    <contour>
      <point x="813.0" y="-20.0" type="qcurve" smooth="yes"/>
      <point x="591.5" y="-20.0"/>
      <point x="281.41666666666663" y="156.66666666666663"/>
      <point x="119.0" y="494.00000000000006"/>
      <point x="119.0" y="735.0" type="qcurve" smooth="yes"/>
      <point x="119.0" y="975.0"/>
      <point x="282.25" y="1310.0"/>
      <point x="594.5" y="1485.0"/>
      <point x="818.0" y="1485.0" type="qcurve" smooth="yes"/>
      <point x="1169.5766423357663" y="1485.0"/>
      <point x="1344.0" y="1279.0" type="qcurve"/>
      <point x="1395.75" y="1337.5"/>
      <point x="1437.0" y="1466.0"/>
      <point x="1437" y="1556" type="qcurve"/>
      <point x="1731" y="1556" type="line"/>
      <point x="1745.0" y="1535.0" type="line"/>
      <point x="1712.75" y="1352.75"/>
      <point x="1573.5" y="1153.25"/>
      <point x="1449.0" y="1103.0" type="qcurve"/>
      <point x="1508.0" y="945.6666666666666"/>
      <point x="1508.0" y="733.0" type="qcurve" smooth="yes"/>
      <point x="1508.0" y="491.5"/>
      <point x="1347.5833333333333" y="155.25"/>
      <point x="1037.5" y="-20.0"/>
    </contour>
    <contour>
      <point x="813.0" y="239.0" type="qcurve" smooth="yes"/>
      <point x="997.5" y="239.0"/>
      <point x="1184.0" y="488.5"/>
      <point x="1184.0" y="733.0" type="qcurve" smooth="yes"/>
      <point x="1184.0" y="979.75"/>
      <point x="997.25" y="1229.0"/>
      <point x="815.0" y="1229.0" type="qcurve" smooth="yes"/>
      <point x="632.75" y="1229.0"/>
      <point x="444.0" y="976.75"/>
      <point x="444.0" y="733.0" type="qcurve" smooth="yes"/>
      <point x="444.0" y="490.0"/>
      <point x="630.75" y="239.0"/>
    </contour>
    <contour>
      <point x="849" y="0" type="move" name="bottom"/>
    </contour>
    <contour>
      <point x="849" y="1462" type="move" name="top"/>
    </contour>
  </outline>
</glyph>
<glyph name="ohorn" format="1">
  <advance width="1391"/>
  <unicode hex="01A1"/>
  <note>
ohorn
</note>
  <outline>
    <contour>
      <point x="629.0" y="-20.0" type="qcurve" smooth="yes"/>
      <point x="462.5" y="-20.0"/>
      <point x="221.75" y="124.74999999999999"/>
      <point x="92.0" y="386.5"/>
      <point x="92.0" y="562.0" type="qcurve" smooth="yes"/>
      <point x="92.0" y="744.5"/>
      <point x="221.0" y="1002.5833333333334"/>
      <point x="464.0" y="1139.0"/>
      <point x="635.0" y="1139.0" type="qcurve" smooth="yes"/>
      <point x="749.0" y="1139.0"/>
      <point x="949.0" y="1070.75"/>
      <point x="1021.0" y="1001.0" type="qcurve"/>
      <point x="1076.5" y="1024.25"/>
      <point x="1136.5" y="1168.25"/>
      <point x="1138" y="1286" type="qcurve"/>
      <point x="1431" y="1286" type="line"/>
      <point x="1445.0" y="1266.0" type="line"/>
      <point x="1417.25" y="1088.25"/>
      <point x="1274.25" y="883.75"/>
      <point x="1122.0" y="841.0" type="qcurve"/>
      <point x="1172.0" y="721.8823529411765"/>
      <point x="1172.0" y="562.0" type="qcurve" smooth="yes"/>
      <point x="1172.0" y="379.0"/>
      <point x="1043.0" y="118.5"/>
      <point x="800.0" y="-20.0"/>
    </contour>
    <contour>
      <point x="633.0" y="225.0" type="qcurve" smooth="yes"/>
      <point x="749.6779661016949" y="225.0"/>
      <point x="807.0" y="314.0" type="qcurve" smooth="yes"/>
      <point x="834.75" y="356.75"/>
      <point x="862.0" y="481.0"/>
      <point x="862.0" y="562.0" type="qcurve" smooth="yes"/>
      <point x="862.0" y="756.0769230769231"/>
      <point x="786.0" y="835.0" type="qcurve" smooth="yes"/>
      <point x="730.5" y="895.0"/>
      <point x="631.0" y="895.0" type="qcurve" smooth="yes"/>
      <point x="537.4857142857143" y="895.0"/>
      <point x="484.0" y="843.0" type="qcurve" smooth="yes"/>
      <point x="442.75" y="803.25"/>
      <point x="402.0" y="662.5"/>
      <point x="402.0" y="562.0" type="qcurve" smooth="yes"/>
      <point x="402.0" y="478.0"/>
      <point x="432.75" y="349.0"/>
      <point x="462.0" y="307.0" type="qcurve" smooth="yes"/>
      <point x="490.5" y="265.75"/>
      <point x="576.0" y="225.0"/>
    </contour>
    <contour>
      <point x="694" y="0" type="move" name="bottom"/>
    </contour>
    <contour>
      <point x="694" y="1119" type="move" name="top"/>
    </contour>
  </outline>
</glyph>
<glyph name="Uhorn" format="1">
  <advance width="1812"/>
  <unicode hex="01AF"/>
  <note>
Uhorn
</note>
  <outline>
    <contour>
      <point x="763.0" y="-20.0" type="qcurve" smooth="yes"/>
      <point x="483.25" y="-20.0"/>
      <point x="174.0" y="267.25"/>
      <point x="174" y="520" type="qcurve" smooth="yes"/>
      <point x="174" y="1462" type="line"/>
      <point x="483" y="1462" type="line"/>
      <point x="483.0" y="550.0" type="line" smooth="yes"/>
      <point x="483.0" y="389.5"/>
      <point x="622.75" y="237.0"/>
      <point x="775.0" y="237.0" type="qcurve" smooth="yes"/>
      <point x="1070.0" y="237.0"/>
      <point x="1070" y="549" type="qcurve" smooth="yes"/>
      <point x="1070" y="1462" type="line"/>
      <point x="1377" y="1462" type="line"/>
      <point x="1377.0" y="1258.0" type="line"/>
      <point x="1449.75" y="1287.25"/>
      <point x="1522.0" y="1439.75"/>
      <point x="1522" y="1556" type="qcurve"/>
      <point x="1817" y="1556" type="line"/>
      <point x="1831.0" y="1535.0" type="line"/>
      <point x="1801.75" y="1383.5"/>
      <point x="1703.0" y="1214.25"/>
      <point x="1619.0" y="1161.0" type="qcurve" smooth="yes"/>
      <point x="1524.2307692307693" y="1097.820512820513"/>
      <point x="1377" y="1077" type="qcurve"/>
      <point x="1377.0" y="516.0" type="line" smooth="yes"/>
      <point x="1377.0" y="344.5"/>
      <point x="1220.8333333333335" y="105.08333333333331"/>
      <point x="944.0" y="-20.0"/>
    </contour>
    <contour>
      <point x="767" y="0" type="move" name="bottom"/>
    </contour>
    <contour>
      <point x="777" y="1462" type="move" name="top"/>
    </contour>
  </outline>
</glyph>
<glyph name="uhorn" format="1">
  <advance width="1556"/>
  <unicode hex="01B0"/>
  <note>
uhorn
</note>
  <outline>
    <contour>
      <point x="549.0" y="-20.0" type="qcurve" smooth="yes"/>
      <point x="357.75" y="-20.0"/>
      <point x="154.0" y="191.25"/>
      <point x="154" y="390" type="qcurve" smooth="yes"/>
      <point x="154" y="1119" type="line"/>
      <point x="457" y="1119" type="line"/>
      <point x="457.0" y="475.0" type="line" smooth="yes"/>
      <point x="457.0" y="343.75"/>
      <point x="546.5" y="223.0"/>
      <point x="647.0" y="223.0" type="qcurve" smooth="yes"/>
      <point x="767.75" y="223.0"/>
      <point x="879.0" y="394.0"/>
      <point x="879" y="592" type="qcurve" smooth="yes"/>
      <point x="879" y="1119" type="line"/>
      <point x="1184" y="1119" type="line"/>
      <point x="1184.0" y="989.0" type="line"/>
      <point x="1259.3592330978809" y="1015.5973763874874"/>
      <point x="1289.0" y="1117.0" type="qcurve" smooth="yes"/>
      <point x="1309.0" y="1187.7692307692307"/>
      <point x="1309" y="1288" type="qcurve"/>
      <point x="1603" y="1288" type="line"/>
      <point x="1618.0" y="1267.0" type="line"/>
      <point x="1596.25" y="1135.0"/>
      <point x="1524.5" y="981.5"/>
      <point x="1466.0" y="929.0" type="qcurve" smooth="yes"/>
      <point x="1418.0" y="884.75"/>
      <point x="1282.25" y="822.5"/>
      <point x="1184" y="806" type="qcurve"/>
      <point x="1184" y="0" type="line"/>
      <point x="952" y="0" type="line"/>
      <point x="912" y="144" type="line"/>
      <point x="892.0" y="144.0" type="line"/>
      <point x="841.75" y="64.5"/>
      <point x="663.75" y="-20.0"/>
    </contour>
    <contour>
      <point x="780" y="0" type="move" name="bottom"/>
    </contour>
    <contour>
      <point x="780" y="1119" type="move" name="top"/>
    </contour>
  </outline>
</glyph>
<glyph name="Aringacute" format="1">
  <advance width="1413"/>
  <unicode hex="01FA"/>
  <note>
Aringacute
</note>
  <outline>
    <contour>
      <point x="0" y="0" type="line"/>
      <point x="503.0" y="1388.0" type="line"/>
      <point x="482.75" y="1395.5"/>
      <point x="457.0" y="1432.25"/>
      <point x="457.0" y="1460.0" type="qcurve" smooth="yes"/>
      <point x="457.0" y="1569.5"/>
      <point x="593.75" y="1701.0"/>
      <point x="707.0" y="1701.0" type="qcurve" smooth="yes"/>
      <point x="819.5" y="1701.0"/>
      <point x="963.0" y="1568.25"/>
      <point x="963.0" y="1461.0" type="qcurve" smooth="yes"/>
      <point x="963.0" y="1431.0"/>
      <point x="938.0" y="1388.0"/>
      <point x="917" y="1376" type="qcurve"/>
      <point x="1417" y="0" type="line"/>
      <point x="1080" y="0" type="line"/>
      <point x="969" y="326" type="line"/>
      <point x="452" y="326" type="line"/>
      <point x="337" y="0" type="line"/>
    </contour>
    <contour>
      <point x="521" y="580" type="qcurve"/>
      <point x="900.0" y="580.0" type="line"/>
      <point x="862.5" y="705.0"/>
      <point x="809.3333333333333" y="875.3333333333333"/>
      <point x="769.5" y="997.0"/>
      <point x="752.0" y="1049.0" type="qcurve" smooth="yes"/>
      <point x="740.0" y="1090.25"/>
      <point x="718.25" y="1170.75"/>
      <point x="710.0" y="1203.0" type="qcurve"/>
      <point x="703.25" y="1174.5"/>
      <point x="681.0" y="1091.75"/>
      <point x="666.0" y="1037.0" type="qcurve"/>
      <point x="653.25" y="999.875"/>
      <point x="622.4635416666666" y="905.4479166666666"/>
      <point x="586.2864583333334" y="791.0520833333334"/>
      <point x="544.625" y="656.875"/>
    </contour>
    <contour>
      <point x="707.0" y="1359.0" type="qcurve" smooth="yes"/>
      <point x="750.5" y="1359.0"/>
      <point x="808.0" y="1414.25"/>
      <point x="808.0" y="1460.0" type="qcurve" smooth="yes"/>
      <point x="808.0" y="1505.75"/>
      <point x="749.75" y="1560.0"/>
      <point x="707.0" y="1560.0" type="qcurve" smooth="yes"/>
      <point x="665.0" y="1560.0"/>
      <point x="607.0" y="1505.75"/>
      <point x="607.0" y="1460.0" type="qcurve" smooth="yes"/>
      <point x="607.0" y="1414.25"/>
      <point x="659.75" y="1359.0"/>
    </contour>
    <contour>
      <point x="572" y="1755" type="line"/>
      <point x="572.0" y="1777.0" type="line"/>
      <point x="599.0" y="1799.0"/>
      <point x="663.5833333333333" y="1859.5"/>
      <point x="726.5" y="1928.0"/>
      <point x="751" y="1962" type="qcurve"/>
      <point x="1095" y="1962" type="line"/>
      <point x="1095.0" y="1943.0" type="line"/>
      <point x="1078.125" y="1924.625"/>
      <point x="1002.8333333333334" y="1873.8958333333333"/>
      <point x="907.6666666666666" y="1819.6041666666667"/>
      <point x="812.125" y="1771.125"/>
      <point x="775" y="1755" type="qcurve"/>
    </contour>
  </outline>
</glyph>
<glyph name="jdotless" format="1">
  <advance width="625"/>
  <unicode hex="0237"/>
  <note>
uni0237
</note>
  <outline>
    <contour>
      <point x="56.0" y="-492.0" type="qcurve" smooth="yes"/>
      <point x="11.0" y="-492.0"/>
      <point x="-97.25" y="-477.5"/>
      <point x="-131" y="-467" type="qcurve"/>
      <point x="-131.0" y="-228.0" type="line"/>
      <point x="-65.0" y="-246.0"/>
      <point x="-8.0" y="-246.0" type="qcurve" smooth="yes"/>
      <point x="45.5" y="-246.0"/>
      <point x="77.0" y="-216.0" type="qcurve" smooth="yes"/>
      <point x="120.0" y="-174.48275862068965"/>
      <point x="120" y="-75" type="qcurve" smooth="yes"/>
      <point x="120" y="1119" type="line"/>
      <point x="424" y="1119" type="line"/>
      <point x="424.0" y="-128.0" type="line" smooth="yes"/>
      <point x="424.0" y="-299.0"/>
      <point x="232.25" y="-492.0"/>
    </contour>
    <contour>
      <point x="273" y="0" type="move" name="bottom"/>
    </contour>
    <contour>
      <point x="273" y="1119" type="move" name="top"/>
    </contour>
  </outline>
</glyph>
<glyph name="apostrophemod" format="1">
  <advance width="444"/>
  <unicode hex="02BC"/>
  <note>
afii57929
</note>
  <outline>
    <contour>
      <point x="27" y="902" type="line"/>
      <point x="60.0" y="1041.5"/>
      <point x="113.25" y="1333.5"/>
      <point x="129" y="1461" type="qcurve"/>
      <point x="403" y="1461" type="line"/>
      <point x="418.0" y="1439.0" type="line"/>
      <point x="331.0" y="1103.0"/>
      <point x="241" y="902" type="qcurve"/>
    </contour>
  </outline>
</glyph>
<glyph name="firsttonechinese" format="1">
  <advance width="1243"/>
  <unicode hex="02C9"/>
  <note>
uni02C9
</note>
  <outline>
    <contour>
      <point x="284" y="1244" type="line"/>
      <point x="284" y="1434" type="line"/>
      <point x="959" y="1434" type="line"/>
      <point x="959" y="1244" type="line"/>
    </contour>
  </outline>
</glyph>
<glyph name="lowringmod" format="1">
  <advance width="682"/>
  <unicode hex="02F3"/>
  <note>
uni02F3
</note>
  <outline>
    <contour>
      <point x="339.0" y="-585.0" type="qcurve" smooth="yes"/>
      <point x="225.75" y="-585.0"/>
      <point x="88.0" y="-455.25"/>
      <point x="88.0" y="-345.0" type="qcurve" smooth="yes"/>
      <point x="88.0" y="-237.0"/>
      <point x="225.0" y="-105.0"/>
      <point x="339.0" y="-105.0" type="qcurve" smooth="yes"/>
      <point x="449.25" y="-105.0"/>
      <point x="593.0" y="-238.25"/>
      <point x="593.0" y="-344.0" type="qcurve" smooth="yes"/>
      <point x="593.0" y="-452.75"/>
      <point x="451.5" y="-585.0"/>
    </contour>
    <contour>
      <point x="340.0" y="-446.0" type="qcurve" smooth="yes"/>
      <point x="383.5" y="-446.0"/>
      <point x="440.0" y="-390.75"/>
      <point x="440.0" y="-345.0" type="qcurve" smooth="yes"/>
      <point x="440.0" y="-300.0"/>
      <point x="383.5" y="-244.0"/>
      <point x="340.0" y="-244.0" type="qcurve" smooth="yes"/>
      <point x="296.5" y="-244.0"/>
      <point x="241.0" y="-300.75"/>
      <point x="241.0" y="-345.0" type="qcurve" smooth="yes"/>
      <point x="241.0" y="-390.75"/>
      <point x="292.0" y="-446.0"/>
    </contour>
    <contour>
      <point x="340" y="1" type="move" name="_bottom"/>
    </contour>
  </outline>
</glyph>
<glyph name="gravecomb" format="1">
  <unicode hex="0300"/>
  <note>
gravecomb
</note>
  <outline>
    <contour>
      <point x="97" y="1241" type="line"/>
      <point x="45.5" y="1277.5"/>
      <point x="-102.33333333333334" y="1388.75"/>
      <point x="-249.49999999999997" y="1505.0"/>
      <point x="-300" y="1549" type="qcurve"/>
      <point x="-300" y="1569" type="line"/>
      <point x="44.0" y="1569.0" type="line"/>
      <point x="70.25" y="1529.25"/>
      <point x="197.25" y="1377.75"/>
      <point x="300" y="1266" type="qcurve"/>
      <point x="300" y="1241" type="line"/>
    </contour>
    <contour>
      <point x="115" y="1124" type="move" name="_top"/>
    </contour>
    <contour>
      <point x="0" y="1569" type="move" name="top"/>
    </contour>
  </outline>
</glyph>
<glyph name="acutecomb" format="1">
  <unicode hex="0301"/>
  <note>
acutecomb
</note>
  <outline>
    <contour>
      <point x="-300" y="1241" type="line"/>
      <point x="-300.0" y="1266.0" type="line"/>
      <point x="-258.375" y="1310.25"/>
      <point x="-181.88020833333334" y="1394.765625"/>
      <point x="-115.36979166666667" y="1472.484375"/>
      <point x="-61.75" y="1540.875"/>
      <point x="-43" y="1569" type="qcurve"/>
      <point x="300" y="1569" type="line"/>
      <point x="300.0" y="1549.0" type="line"/>
      <point x="266.625" y="1519.0"/>
      <point x="166.18229166666666" y="1437.6614583333333"/>
      <point x="52.567708333333336" y="1350.0885416666667"/>
      <point x="-55.75" y="1269.875"/>
      <point x="-97" y="1241" type="qcurve"/>
    </contour>
    <contour>
      <point x="-122" y="1131" type="move" name="_top"/>
    </contour>
    <contour>
      <point x="-1" y="1569" type="move" name="top"/>
    </contour>
  </outline>
</glyph>
<glyph name="circumflexcomb" format="1">
  <advance width="869"/>
  <unicode hex="0302"/>
  <note>
circumflex
</note>
  <outline>
    <contour>
      <point x="30" y="1241" type="line"/>
      <point x="30.0" y="1266.0" type="line"/>
      <point x="74.5" y="1310.0"/>
      <point x="171.91666666666669" y="1420.4166666666667"/>
      <point x="257.0" y="1528.5"/>
      <point x="283" y="1569" type="qcurve"/>
      <point x="587.0" y="1569.0" type="line"/>
      <point x="616.0" y="1525.0"/>
      <point x="691.3333333333333" y="1428.333333333333"/>
      <point x="784.0" y="1323.0"/>
      <point x="839" y="1266" type="qcurve"/>
      <point x="839" y="1241" type="line"/>
      <point x="640.0" y="1241.0" type="line"/>
      <point x="616.75" y="1256.75"/>
      <point x="567.5" y="1293.75"/>
      <point x="542.0" y="1314.0" type="qcurve" smooth="yes"/>
      <point x="515.75" y="1335.0"/>
      <point x="461.75" y="1381.75"/>
      <point x="434.0" y="1408.0" type="qcurve"/>
      <point x="405.5" y="1382.5"/>
      <point x="353.0" y="1337.25"/>
      <point x="329.0" y="1317.0" type="qcurve" smooth="yes"/>
      <point x="302.0" y="1294.5"/>
      <point x="252.75" y="1256.0"/>
      <point x="231" y="1241" type="qcurve"/>
    </contour>
    <contour>
      <point x="435" y="1131" type="move" name="_top"/>
    </contour>
    <contour>
      <point x="435" y="1569" type="move" name="top"/>
    </contour>
  </outline>
</glyph>
<glyph name="tildecomb" format="1">
  <unicode hex="0303"/>
  <note>
tildecomb
</note>
  <outline>
    <contour>
      <point x="-1056" y="1239" type="line"/>
      <point x="-1033.463768115942" y="1550.0"/>
      <point x="-819.0" y="1550.0" type="qcurve" smooth="yes"/>
      <point x="-777.75" y="1550.0"/>
      <point x="-694.5" y="1513.5"/>
      <point x="-651.0" y="1491.0" type="qcurve" smooth="yes"/>
      <point x="-609.75" y="1470.0"/>
      <point x="-531.0" y="1436.0"/>
      <point x="-495.0" y="1436.0" type="qcurve" smooth="yes"/>
      <point x="-429.11538461538464" y="1436.0"/>
      <point x="-407" y="1551" type="qcurve"/>
      <point x="-257.0" y="1551.0" type="line"/>
      <point x="-269.75" y="1398.75"/>
      <point x="-389.25" y="1240.0"/>
      <point x="-489.0" y="1240.0" type="qcurve" smooth="yes"/>
      <point x="-531.75" y="1240.0"/>
      <point x="-618.5" y="1272.5"/>
      <point x="-668.0" y="1301.0" type="qcurve"/>
      <point x="-708.5" y="1321.25"/>
      <point x="-785.0" y="1354.0"/>
      <point x="-821.0" y="1354.0" type="qcurve" smooth="yes"/>
      <point x="-885.0" y="1354.0"/>
      <point x="-908" y="1239" type="qcurve"/>
    </contour>
    <contour>
      <point x="-662" y="1131" type="move" name="_top"/>
    </contour>
    <contour>
      <point x="-656" y="1551" type="move" name="top"/>
    </contour>
  </outline>
</glyph>
<glyph name="brevecomb" format="1">
  <advance width="1243"/>
  <unicode hex="0306"/>
  <note>
breve
</note>
  <outline>
    <contour>
      <point x="591.0" y="1241.0" type="qcurve" smooth="yes"/>
      <point x="422.25" y="1241.0"/>
      <point x="236.75" y="1411.25"/>
      <point x="227" y="1574" type="qcurve"/>
      <point x="400.0" y="1574.0" type="line"/>
      <point x="418.0" y="1493.75"/>
      <point x="498.0" y="1434.0"/>
      <point x="591.0" y="1434.0" type="qcurve" smooth="yes"/>
      <point x="674.25" y="1434.0"/>
      <point x="764.75" y="1500.5"/>
      <point x="782" y="1574" type="qcurve"/>
      <point x="960.0" y="1574.0" type="line"/>
      <point x="948.0" y="1418.0"/>
      <point x="755.25" y="1241.0"/>
    </contour>
    <contour>
      <point x="594" y="1131" type="move" name="_top"/>
    </contour>
    <contour>
      <point x="594" y="1574" type="move" name="top"/>
    </contour>
  </outline>
</glyph>
<glyph name="dotaccentcomb" format="1">
  <advance width="625"/>
  <unicode hex="0307"/>
  <note>
dotaccent
</note>
  <outline>
    <contour>
      <point x="312.0" y="1258.0" type="qcurve" smooth="yes"/>
      <point x="230.25" y="1258.0"/>
      <point x="148.0" y="1332.0"/>
      <point x="148.0" y="1407.0" type="qcurve" smooth="yes"/>
      <point x="148.0" y="1482.75"/>
      <point x="226.5" y="1558.0"/>
      <point x="312.0" y="1558.0" type="qcurve" smooth="yes"/>
      <point x="397.5" y="1558.0"/>
      <point x="478.0" y="1481.25"/>
      <point x="478.0" y="1407.0" type="qcurve" smooth="yes"/>
      <point x="478.0" y="1333.5"/>
      <point x="394.5" y="1258.0"/>
    </contour>
    <contour>
      <point x="313" y="1119" type="move" name="_top"/>
    </contour>
    <contour>
      <point x="313" y="1558" type="move" name="top"/>
    </contour>
  </outline>
</glyph>
<glyph name="dieresiscomb" format="1">
  <advance width="1243"/>
  <unicode hex="0308"/>
  <note>
dieresis
</note>
  <outline>
    <contour>
      <point x="868.0" y="1271.0" type="qcurve" smooth="yes"/>
      <point x="802.0" y="1271.0"/>
      <point x="729.0" y="1342.25"/>
      <point x="729.0" y="1406.0" type="qcurve" smooth="yes"/>
      <point x="729.0" y="1472.0"/>
      <point x="802.0" y="1542.0"/>
      <point x="868.0" y="1542.0" type="qcurve" smooth="yes"/>
      <point x="934.0" y="1542.0"/>
      <point x="1008.0" y="1469.0"/>
      <point x="1008.0" y="1406.0" type="qcurve" smooth="yes"/>
      <point x="1008.0" y="1343.0"/>
      <point x="934.0" y="1271.0"/>
    </contour>
    <contour>
      <point x="417.0" y="1271.0" type="qcurve" smooth="yes"/>
      <point x="352.5" y="1271.0"/>
      <point x="279.0" y="1340.75"/>
      <point x="279.0" y="1406.0" type="qcurve" smooth="yes"/>
      <point x="279.0" y="1472.0"/>
      <point x="352.5" y="1542.0"/>
      <point x="417.0" y="1542.0" type="qcurve" smooth="yes"/>
      <point x="481.5" y="1542.0"/>
      <point x="556.0" y="1469.75"/>
      <point x="556.0" y="1406.0" type="qcurve" smooth="yes"/>
      <point x="556.0" y="1343.0"/>
      <point x="481.5" y="1271.0"/>
    </contour>
    <contour>
      <point x="644" y="1131" type="move" name="_top"/>
    </contour>
    <contour>
      <point x="644" y="1542" type="move" name="top"/>
    </contour>
  </outline>
</glyph>
<glyph name="hookabovecomb" format="1">
  <unicode hex="0309"/>
  <note>
hookabovecomb
</note>
  <outline>
    <contour>
      <point x="-696" y="1220" type="line"/>
      <point x="-718.0" y="1364.0" type="line"/>
      <point x="-645.25" y="1373.75"/>
      <point x="-589.0" y="1421.0"/>
      <point x="-589.0" y="1460.0" type="qcurve" smooth="yes"/>
      <point x="-589.0" y="1533.0"/>
      <point x="-682.0" y="1533.0" type="qcurve" smooth="yes"/>
      <point x="-710.5" y="1533.0"/>
      <point x="-758.25" y="1526.0"/>
      <point x="-807" y="1511" type="qcurve"/>
      <point x="-807.0" y="1677.0" type="line"/>
      <point x="-727.5882352941177" y="1702.0"/>
      <point x="-621.0" y="1702.0" type="qcurve" smooth="yes"/>
      <point x="-488.25" y="1702.0"/>
      <point x="-348.0" y="1590.5"/>
      <point x="-348.0" y="1490.0" type="qcurve" smooth="yes"/>
      <point x="-348.0" y="1414.25"/>
      <point x="-430.5" y="1310.75"/>
      <point x="-516" y="1289" type="qcurve"/>
      <point x="-527" y="1220" type="line"/>
    </contour>
    <contour>
      <point x="-594" y="1119" type="move" name="_top"/>
    </contour>
    <contour>
      <point x="-577" y="1702" type="move" name="top"/>
    </contour>
  </outline>
</glyph>
<glyph name="ringcomb" format="1">
  <advance width="1182"/>
  <unicode hex="030A"/>
  <note>
ring
</note>
  <outline>
    <contour>
      <point x="590.0" y="1239.0" type="qcurve" smooth="yes"/>
      <point x="476.0" y="1239.0"/>
      <point x="340.0" y="1369.5"/>
      <point x="340.0" y="1479.0" type="qcurve" smooth="yes"/>
      <point x="340.0" y="1588.5"/>
      <point x="476.0" y="1720.0"/>
      <point x="590.0" y="1720.0" type="qcurve" smooth="yes"/>
      <point x="701.0" y="1720.0"/>
      <point x="845.0" y="1586.75"/>
      <point x="845.0" y="1481.0" type="qcurve" smooth="yes"/>
      <point x="845.0" y="1372.25"/>
      <point x="702.5" y="1239.0"/>
    </contour>
    <contour>
      <point x="590.0" y="1378.0" type="qcurve" smooth="yes"/>
      <point x="633.5" y="1378.0"/>
      <point x="690.0" y="1433.25"/>
      <point x="690.0" y="1479.0" type="qcurve" smooth="yes"/>
      <point x="690.0" y="1524.75"/>
      <point x="632.0" y="1580.0"/>
      <point x="590.0" y="1580.0" type="qcurve" smooth="yes"/>
      <point x="546.5" y="1580.0"/>
      <point x="490.0" y="1524.75"/>
      <point x="490.0" y="1479.0" type="qcurve" smooth="yes"/>
      <point x="490.0" y="1433.25"/>
      <point x="542.0" y="1378.0"/>
    </contour>
    <contour>
      <point x="593" y="1119" type="move" name="_top"/>
    </contour>
    <contour>
      <point x="593" y="1720" type="move" name="top"/>
    </contour>
  </outline>
</glyph>
<glyph name="hungarumlautcomb" format="1">
  <advance width="1204"/>
  <unicode hex="030B"/>
  <note>
hungarumlaut
</note>
  <outline>
    <contour>
      <point x="581" y="1241" type="line"/>
      <point x="581.0" y="1266.0" type="line"/>
      <point x="656.0" y="1364.25"/>
      <point x="752.0" y="1511.25"/>
      <point x="782" y="1569" type="qcurve"/>
      <point x="1084" y="1569" type="line"/>
      <point x="1084.0" y="1549.0" type="line"/>
      <point x="1058.0" y="1509.0"/>
      <point x="949.4166666666665" y="1402.4999999999998"/>
      <point x="812.5" y="1290.0"/>
      <point x="744" y="1241" type="qcurve"/>
    </contour>
    <contour>
      <point x="156" y="1241" type="line"/>
      <point x="156.0" y="1266.0" type="line"/>
      <point x="230.25" y="1364.25"/>
      <point x="326.25" y="1512.0"/>
      <point x="357" y="1569" type="qcurve"/>
      <point x="657" y="1569" type="line"/>
      <point x="657.0" y="1549.0" type="line"/>
      <point x="619.5" y="1491.25"/>
      <point x="436.75" y="1326.5"/>
      <point x="319" y="1241" type="qcurve"/>
    </contour>
    <contour>
      <point x="599" y="1119" type="move" name="_top"/>
    </contour>
    <contour>
      <point x="620" y="1569" type="move" name="top"/>
    </contour>
  </outline>
</glyph>
<glyph name="caroncomb" format="1">
  <advance width="1243"/>
  <unicode hex="030C"/>
  <note>
caron
</note>
  <outline>
    <contour>
      <point x="439" y="1241" type="line"/>
      <point x="425.5" y="1262.75"/>
      <point x="390.25" y="1310.75"/>
      <point x="370.0" y="1337.0" type="qcurve" smooth="yes"/>
      <point x="290.47457627118644" y="1436.406779661017"/>
      <point x="186" y="1544" type="qcurve"/>
      <point x="186" y="1569" type="line"/>
      <point x="387.0" y="1569.0" type="line"/>
      <point x="469.23809523809524" y="1510.6857142857143"/>
      <point x="590.0" y="1402.0" type="qcurve"/>
      <point x="704.6585788561525" y="1507.6065857885615"/>
      <point x="796" y="1569" type="qcurve"/>
      <point x="995" y="1569" type="line"/>
      <point x="995.0" y="1544.0" type="line"/>
      <point x="892.283950617284" y="1436.5432098765432"/>
      <point x="807.0" y="1328.0" type="qcurve" smooth="yes"/>
      <point x="788.25" y="1304.75"/>
      <point x="755.75" y="1261.25"/>
      <point x="743" y="1241" type="qcurve"/>
    </contour>
    <contour>
      <point x="591" y="1119" type="move" name="_top"/>
    </contour>
    <contour>
      <point x="591" y="1569" type="move" name="top"/>
    </contour>
  </outline>
</glyph>
<glyph name="dblgravecomb" format="1">
  <unicode hex="030F"/>
  <note>
uni030F
</note>
  <outline>
    <contour>
      <point x="266" y="1241" type="line"/>
      <point x="215.5" y="1281.5"/>
      <point x="95.41666666666666" y="1397.5"/>
      <point x="-7.0" y="1511.5"/>
      <point x="-31" y="1549" type="qcurve"/>
      <point x="-31" y="1569" type="line"/>
      <point x="250.0" y="1569.0" type="line"/>
      <point x="288.25" y="1488.0"/>
      <point x="385.25" y="1321.5"/>
      <point x="428" y="1266" type="qcurve"/>
      <point x="428" y="1241" type="line"/>
    </contour>
    <contour>
      <point x="-133" y="1241" type="line"/>
      <point x="-183.5" y="1281.5"/>
      <point x="-303.83333333333337" y="1398.75"/>
      <point x="-405.5" y="1513.0"/>
      <point x="-428" y="1549" type="qcurve"/>
      <point x="-428" y="1569" type="line"/>
      <point x="-148.0" y="1569.0" type="line"/>
      <point x="-110.5" y="1491.75"/>
      <point x="-10.5" y="1317.0"/>
      <point x="30" y="1266" type="qcurve"/>
      <point x="30" y="1241" type="line"/>
    </contour>
    <contour>
      <point x="1" y="1119" type="move" name="_top"/>
    </contour>
    <contour>
      <point x="1" y="1569" type="move" name="top"/>
    </contour>
  </outline>
</glyph>
<glyph name="commaturnedabovecomb" format="1">
  <advance width="600"/>
  <unicode hex="0312"/>
  <outline>
    <contour>
      <point x="130" y="1241" type="line"/>
      <point x="130.0" y="1261.0" type="line"/>
      <point x="150.5" y="1312.5"/>
      <point x="199.0" y="1417.9166666666665"/>
      <point x="257.5" y="1521.0"/>
      <point x="293" y="1569" type="qcurve"/>
      <point x="471" y="1569" type="line"/>
      <point x="471.0" y="1544.0" type="line"/>
      <point x="457.5" y="1489.0"/>
      <point x="434.16666666666663" y="1377.5"/>
      <point x="417.5" y="1278.0"/>
      <point x="414" y="1241" type="qcurve"/>
    </contour>
    <contour>
      <point x="283" y="1119" type="move" name="_top"/>
    </contour>
    <contour>
      <point x="301" y="1569" type="move" name="top"/>
    </contour>
  </outline>
</glyph>
<glyph name="dotbelowcomb" format="1">
  <unicode hex="0323"/>
  <note>
dotbelowcomb
</note>
  <outline>
    <contour>
      <point x="-644.0" y="-432.0" type="qcurve" smooth="yes"/>
      <point x="-807.0" y="-432.0"/>
      <point x="-807.0" y="-282.0" type="qcurve" smooth="yes"/>
      <point x="-807.0" y="-131.0"/>
      <point x="-644.0" y="-131.0" type="qcurve" smooth="yes"/>
      <point x="-477.0" y="-131.0"/>
      <point x="-477.0" y="-282.0" type="qcurve" smooth="yes"/>
      <point x="-477.0" y="-432.0"/>
    </contour>
    <contour>
      <point x="-642" y="0" type="move" name="_bottom"/>
    </contour>
    <contour>
      <point x="-642" y="-432" type="move" name="bottom"/>
    </contour>
  </outline>
</glyph>
<glyph name="commaaccentcomb" format="1">
  <advance width="600"/>
  <unicode hex="0326"/>
  <outline>
    <contour>
      <point x="130" y="-453" type="line"/>
      <point x="130.0" y="-428.0" type="line"/>
      <point x="142.0" y="-391.0"/>
      <point x="166.58333333333331" y="-282.75"/>
      <point x="185.5" y="-169.5"/>
      <point x="189" y="-125" type="qcurve"/>
      <point x="471" y="-125" type="line"/>
      <point x="471.0" y="-145.0" type="line"/>
      <point x="439.5" y="-226.75"/>
      <point x="356.5" y="-385.5"/>
      <point x="310" y="-453" type="qcurve"/>
    </contour>
    <contour>
      <point x="310" y="0" type="move" name="_bottom"/>
    </contour>
    <contour>
      <point x="301" y="-453" type="move" name="bottom"/>
    </contour>
  </outline>
</glyph>
<glyph name="cedillacomb" format="1">
  <advance width="420"/>
  <unicode hex="0327"/>
  <note>
cedilla
</note>
  <outline>
    <contour>
      <point x="140.0" y="-492.0" type="qcurve" smooth="yes"/>
      <point x="23.000000000000007" y="-492.0"/>
      <point x="-37" y="-468" type="qcurve"/>
      <point x="-37.0" y="-299.0" type="line"/>
      <point x="29.0" y="-320.0"/>
      <point x="93.0" y="-320.0" type="qcurve" smooth="yes"/>
      <point x="177.0" y="-320.0"/>
      <point x="177.0" y="-255.0" type="qcurve" smooth="yes"/>
      <point x="177.0" y="-217.5"/>
      <point x="91.0" y="-164.25"/>
      <point x="16" y="-150" type="qcurve"/>
      <point x="94" y="0" type="line"/>
      <point x="265" y="0" type="line"/>
      <point x="239.0" y="-55.0" type="line"/>
      <point x="331.25" y="-88.0"/>
      <point x="408.0" y="-189.0"/>
      <point x="408.0" y="-264.0" type="qcurve" smooth="yes"/>
      <point x="408.0" y="-369.75"/>
      <point x="263.0" y="-492.0"/>
    </contour>
    <contour>
      <point x="186" y="0" type="move" name="_bottom"/>
    </contour>
    <contour>
      <point x="186" y="-492" type="move" name="bottom"/>
    </contour>
  </outline>
</glyph>
<glyph name="ogonekcomb" format="1">
  <advance width="422"/>
  <unicode hex="0328"/>
  <note>
ogonek
</note>
  <outline>
    <contour>
      <point x="258.0" y="-478.0" type="qcurve" smooth="yes"/>
      <point x="147.0" y="-478.0"/>
      <point x="10.0" y="-359.25"/>
      <point x="10.0" y="-261.0" type="qcurve" smooth="yes"/>
      <point x="10.0" y="-192.0"/>
      <point x="90.0" y="-63.0"/>
      <point x="177" y="0" type="qcurve"/>
      <point x="353.0" y="0.0" type="line"/>
      <point x="293.75" y="-53.25"/>
      <point x="217.0" y="-156.25"/>
      <point x="217.0" y="-214.0" type="qcurve" smooth="yes"/>
      <point x="217.0" y="-294.0"/>
      <point x="304.0" y="-294.0" type="qcurve" smooth="yes"/>
      <point x="368.61538461538464" y="-294.0"/>
      <point x="411" y="-275" type="qcurve"/>
      <point x="411.0" y="-455.0" type="line"/>
      <point x="338.93333333333334" y="-478.0"/>
    </contour>
    <contour>
      <point x="372" y="10" type="move" name="_ogonek"/>
    </contour>
  </outline>
</glyph>
<glyph name="tonos" format="1">
  <advance width="1182"/>
  <unicode hex="0384"/>
  <note>
tonos
</note>
  <outline>
    <contour>
      <point x="471" y="1241" type="line"/>
      <point x="471.0" y="1269.0" type="line"/>
      <point x="486.5" y="1316.0"/>
      <point x="519.5833333333333" y="1449.9166666666665"/>
      <point x="547.0" y="1585.5"/>
      <point x="554" y="1635" type="qcurve"/>
      <point x="830" y="1635" type="line"/>
      <point x="830.0" y="1612.0" type="line"/>
      <point x="795.5" y="1525.75"/>
      <point x="701.5" y="1331.0"/>
      <point x="646" y="1241" type="qcurve"/>
    </contour>
    <contour>
      <point x="651" y="1112" type="move" name="_top"/>
    </contour>
    <contour>
      <point x="831" y="1556" type="move" name="_topleft"/>
    </contour>
  </outline>
</glyph>
<glyph name="dieresistonos" format="1">
  <advance width="1182"/>
  <unicode hex="0385"/>
  <note>
dieresistonos
</note>
  <outline>
    <contour>
      <point x="489" y="1389" type="line"/>
      <point x="489.0" y="1413.0" type="line"/>
      <point x="505.0" y="1478.5"/>
      <point x="529.5833333333333" y="1589.5"/>
      <point x="546.5" y="1680.5"/>
      <point x="551" y="1716" type="qcurve"/>
      <point x="801" y="1716" type="line"/>
      <point x="801.0" y="1697.0" type="line"/>
      <point x="785.5" y="1659.0"/>
      <point x="733.5833333333334" y="1560.0833333333333"/>
      <point x="666.0" y="1447.5"/>
      <point x="627" y="1389" type="qcurve"/>
    </contour>
    <contour>
      <point x="308.0" y="1271.0" type="qcurve" smooth="yes"/>
      <point x="245.0" y="1271.0"/>
      <point x="182.0" y="1338.5"/>
      <point x="182.0" y="1406.0" type="qcurve" smooth="yes"/>
      <point x="182.0" y="1473.5"/>
      <point x="245.0" y="1542.0"/>
      <point x="308.0" y="1542.0" type="qcurve" smooth="yes"/>
      <point x="365.75" y="1542.0"/>
      <point x="436.0" y="1475.75"/>
      <point x="436.0" y="1406.0" type="qcurve" smooth="yes"/>
      <point x="436.0" y="1337.0"/>
      <point x="365.75" y="1271.0"/>
    </contour>
    <contour>
      <point x="872.0" y="1271.0" type="qcurve" smooth="yes"/>
      <point x="807.5" y="1271.0"/>
      <point x="743.0" y="1338.5"/>
      <point x="743.0" y="1406.0" type="qcurve" smooth="yes"/>
      <point x="743.0" y="1473.5"/>
      <point x="807.5" y="1542.0"/>
      <point x="872.0" y="1542.0" type="qcurve" smooth="yes"/>
      <point x="931.25" y="1542.0"/>
      <point x="1000.0" y="1475.75"/>
      <point x="1000.0" y="1406.0" type="qcurve" smooth="yes"/>
      <point x="1000.0" y="1337.0"/>
      <point x="931.25" y="1271.0"/>
    </contour>
    <contour>
      <point x="591" y="1119" type="move" name="_top"/>
    </contour>
  </outline>
</glyph>
<glyph name="Eta" format="1">
  <advance width="1567"/>
  <unicode hex="0397"/>
  <note>
Eta
</note>
  <outline>
    <component base="H"/>
    <contour>
      <point x="24.213" y="1462" type="move" name="topleft"/>
    </contour>
  </outline>
</glyph>
<glyph name="Theta" format="1">
  <advance width="1630"/>
  <unicode hex="0398"/>
  <note>
Theta
</note>
  <outline>
    <contour>
      <point x="813.0" y="-20.0" type="qcurve" smooth="yes"/>
      <point x="480.75" y="-20.0"/>
      <point x="119.0" y="371.25"/>
      <point x="119.0" y="735.0" type="qcurve" smooth="yes"/>
      <point x="119.0" y="1095.0"/>
      <point x="480.5" y="1485.0"/>
      <point x="815.0" y="1485.0" type="qcurve" smooth="yes"/>
      <point x="1151.0" y="1485.0"/>
      <point x="1507.0" y="1096.75"/>
      <point x="1507.0" y="733.0" type="qcurve" smooth="yes"/>
      <point x="1507.0" y="370.0"/>
      <point x="1149.0" y="-20.0"/>
    </contour>
    <contour>
      <point x="813.0" y="231.0" type="qcurve" smooth="yes"/>
      <point x="1200.0" y="231.0"/>
      <point x="1200.0" y="733.0" type="qcurve" smooth="yes"/>
      <point x="1200.0" y="1238.0"/>
      <point x="815.0" y="1238.0" type="qcurve" smooth="yes"/>
      <point x="623.0" y="1238.0"/>
      <point x="427.0" y="982.0"/>
      <point x="427.0" y="733.0" type="qcurve" smooth="yes"/>
      <point x="427.0" y="231.0"/>
    </contour>
    <contour>
      <point x="570" y="625" type="line"/>
      <point x="570" y="863" type="line"/>
      <point x="1058" y="863" type="line"/>
      <point x="1058" y="625" type="line"/>
    </contour>
  </outline>
</glyph>
<glyph name="Iota" format="1">
  <advance width="678"/>
  <unicode hex="0399"/>
  <note>
Iota
</note>
  <outline>
    <component base="I"/>
    <contour>
      <point x="24.199" y="1462" type="move" name="topleft"/>
    </contour>
  </outline>
</glyph>
<glyph name="Lambda" format="1">
  <advance width="1331"/>
  <unicode hex="039B"/>
  <note>
Lambda
</note>
  <outline>
    <contour>
      <point x="0" y="0" type="line"/>
      <point x="514.1" y="1463.8" type="line"/>
      <point x="854.3" y="1463.8" type="line"/>
      <point x="1363.4" y="0" type="line"/>
      <point x="1018.1" y="0" type="line"/>
      <point x="748.0" y="854.7" type="line" smooth="yes"/>
      <point x="739.75" y="885.7125"/>
      <point x="720.4744791666668" y="965.2104166666664"/>
      <point x="701.8505208333335" y="1048.139583333333"/>
      <point x="686.9624999999999" y="1121.8624999999997"/>
      <point x="683.1" y="1147.1" type="qcurve"/>
      <point x="677.8000000000001" y="1113.25"/>
      <point x="657.1083333333332" y="1007.0416666666666"/>
      <point x="631.65" y="896.8"/>
      <point x="619.2" y="856.9" type="qcurve" smooth="yes"/>
      <point x="343.3" y="0" type="line"/>
    </contour>
  </outline>
</glyph>
<glyph name="Phi" format="1">
  <advance width="1761"/>
  <unicode hex="03A6"/>
  <note>
Phi
</note>
  <outline>
    <contour>
      <point x="731" y="-20" type="line"/>
      <point x="731" y="205" type="line"/>
      <point x="712.0" y="205.0" type="line" smooth="yes"/>
      <point x="512.5" y="205.0"/>
      <point x="233.5" y="339.25"/>
      <point x="163.0" y="463.0" type="qcurve" smooth="yes"/>
      <point x="127.0" y="524.5"/>
      <point x="92.0" y="671.75"/>
      <point x="92.0" y="758.0" type="qcurve" smooth="yes"/>
      <point x="92.0" y="918.5"/>
      <point x="240.25" y="1172.0"/>
      <point x="376.0" y="1238.0" type="qcurve" smooth="yes"/>
      <point x="512.046511627907" y="1303.0"/>
      <point x="694" y="1303" type="qcurve" smooth="yes"/>
      <point x="731" y="1303" type="line"/>
      <point x="731" y="1483" type="line"/>
      <point x="1029" y="1483" type="line"/>
      <point x="1029" y="1303" type="line"/>
      <point x="1062.0" y="1303.0" type="line" smooth="yes"/>
      <point x="1236.0" y="1303.0"/>
      <point x="1499.0" y="1183.5"/>
      <point x="1574.0" y="1074.0" type="qcurve" smooth="yes"/>
      <point x="1620.5" y="1009.5"/>
      <point x="1668.0" y="852.25"/>
      <point x="1668.0" y="760.0" type="qcurve" smooth="yes"/>
      <point x="1668.0" y="592.0"/>
      <point x="1523.75" y="341.25"/>
      <point x="1382.0" y="273.0" type="qcurve" smooth="yes"/>
      <point x="1241.4666666666667" y="205.0"/>
      <point x="1040" y="205" type="qcurve" smooth="yes"/>
      <point x="1029" y="205" type="line"/>
      <point x="1029" y="-20" type="line"/>
    </contour>
    <contour>
      <point x="712" y="439" type="qcurve" smooth="yes"/>
      <point x="731" y="439" type="line"/>
      <point x="731" y="1066" type="line"/>
      <point x="703.0" y="1066.0" type="line" smooth="yes"/>
      <point x="555.25" y="1066.0"/>
      <point x="394.0" y="906.25"/>
      <point x="394.0" y="760.0" type="qcurve" smooth="yes"/>
      <point x="394.0" y="597.25"/>
      <point x="556.0" y="439.0"/>
    </contour>
    <contour>
      <point x="1029" y="439" type="line"/>
      <point x="1041.0" y="439.0" type="line" smooth="yes"/>
      <point x="1200.75" y="439.0"/>
      <point x="1366.0" y="601.0"/>
      <point x="1366.0" y="760.0" type="qcurve" smooth="yes"/>
      <point x="1366.0" y="905.5"/>
      <point x="1203.0" y="1066.0"/>
      <point x="1053" y="1066" type="qcurve" smooth="yes"/>
      <point x="1029" y="1066" type="line"/>
    </contour>
  </outline>
</glyph>
<glyph name="Psi" format="1">
  <advance width="1794"/>
  <unicode hex="03A8"/>
  <note>
Psi
</note>
  <outline>
    <contour>
      <point x="743" y="0" type="line"/>
      <point x="743" y="414" type="line"/>
      <point x="709.0" y="414.0" type="line" smooth="yes"/>
      <point x="396.25" y="414.0"/>
      <point x="109.0" y="676.75"/>
      <point x="109" y="964" type="qcurve" smooth="yes"/>
      <point x="109" y="1462" type="line"/>
      <point x="412" y="1462" type="line"/>
      <point x="412.0" y="969.0" type="line" smooth="yes"/>
      <point x="412.0" y="894.0"/>
      <point x="446.0" y="782.75"/>
      <point x="482.0" y="746.0" type="qcurve" smooth="yes"/>
      <point x="519.5" y="706.25"/>
      <point x="640.0" y="669.0"/>
      <point x="724" y="669" type="qcurve" smooth="yes"/>
      <point x="743" y="669" type="line"/>
      <point x="743" y="1462" type="line"/>
      <point x="1040" y="1462" type="line"/>
      <point x="1040" y="669" type="line"/>
      <point x="1061.0" y="669.0" type="line" smooth="yes"/>
      <point x="1133.0" y="669.0"/>
      <point x="1245.0" y="703.25"/>
      <point x="1284.0" y="737.0" type="qcurve" smooth="yes"/>
      <point x="1326.75" y="774.5"/>
      <point x="1371.0" y="888.5"/>
      <point x="1371" y="965" type="qcurve" smooth="yes"/>
      <point x="1371" y="1462" type="line"/>
      <point x="1674" y="1462" type="line"/>
      <point x="1674.0" y="983.0" type="line" smooth="yes"/>
      <point x="1674.0" y="689.75"/>
      <point x="1383.25" y="414.0"/>
      <point x="1075" y="414" type="qcurve" smooth="yes"/>
      <point x="1040" y="414" type="line"/>
      <point x="1040" y="0" type="line"/>
    </contour>
  </outline>
</glyph>
